{
.appVersion = "1271";
copyright = "Copyright 2019 Google LLC. All Rights Reserved.";
customParameters = (
{
name = description;
value = "Designed by Borys Kosmynka";
},
{
name = license;
value = "This Font Software is licensed under the SIL Open Font License, Version 1.1. This Font Software is distributed on an \"AS IS\" BASIS, WITHOUT WARRANTIES OR CONDITIONS OF ANY KIND, either express or implied. See the SIL Open Font License for the specific language, permissions and limitations governing your use of this Font Software.";
},
{
name = licenseURL;
value = "http://scripts.sil.org/OFL";
},
{
name = vendorID;
value = GOOG;
},
{
name = glyphOrder;
value = (
.notdef,
NULL,
CR,
space,
uni0591,
uni0592,
uni0593,
uni0594,
uni0595,
uni0596,
uni0597,
uni0598,
uni0599,
uni059A,
uni059B,
uni059C,
uni059D,
uni059E,
uni059F,
uni05A0,
uni05A1,
uni05A2,
uni05A3,
uni05A4,
uni05A5,
uni05A6,
uni05A7,
uni05A8,
uni05A9,
uni05AA,
uni05AB,
uni05AC,
uni05AD,
uni05AE,
uni05AF,
sheva,
hatafsegol,
hatafpatah,
hatafqamats,
hiriq,
tsere,
segol,
patah,
qamats,
holam,
uni05BA,
qubuts,
dagesh,
meteg,
maqaf,
rafe,
paseq,
shindot,
sindot,
sofpasuq,
upper_dot,
lowerdot,
uni05C6,
qamatsqatan,
alef,
bet,
gimel,
dalet,
he,
vav,
zayin,
het,
tet,
yod,
finalkaf,
kaf,
lamed,
finalmem,
mem,
finalnun,
nun,
samekh,
ayin,
finalpe,
pe,
finaltsadi,
tsadi,
qof,
resh,
shin,
tav,
vavvav,
vavyod,
yodyod,
geresh,
gershayim,
sheqel,
uniFB1D,
uniFB1E,
yodyod_patah,
alternativeayin,
alefwide,
daletwide,
hewide,
kafwide,
lamedwide,
finalmemwide,
reshwide,
tavwide,
alt_plussign,
shinshindot,
shinsindot,
shindageshshindot,
shindageshsindot,
alefpatah,
alefqamats,
alefmapiq,
betdagesh,
gimeldagesh,
daletdagesh,
hedagesh,
vavdagesh,
zayindagesh,
tetdagesh,
yoddagesh,
finalkafdagesh,
kafdagesh,
lameddagesh,
memdagesh,
nundagesh,
samekhdagesh,
finalpedagesh,
pedagesh,
tsadidagesh,
qofdagesh,
reshdagesh,
shindagesh,
tavdagesh,
vavholam,
betrafe,
kafrafe,
perafe,
aleflamed,
lamedholamdagesh,
lamedholam,
finalkafqamats,

glyphs = (
{
glyphname = "alef-hb";
lastChange = "2019-12-23 03:33:39 +0000";
layers = (
{
anchors = (
{
name = bottom;
position = "{293, 0}";
},
{
name = bottomleft;
position = "{77, 0}";
},
{
name = center;
position = "{248, 340}";
},
{
name = top;
position = "{324, 516}";
},
{
name = topleft;
position = "{21, 536}";
}
);
layerId = "B853D75E-14CD-4000-B7A0-02101202F42C";
paths = (
{
closed = 1;
nodes = (
"371 168 OFFCURVE",
"445 296 OFFCURVE",
"445 423 CURVE SMOOTH",
"445 509 OFFCURVE",
"424 596 OFFCURVE",
"300 592 CURVE SMOOTH",
"182 589 OFFCURVE",
"102 589 OFFCURVE",
"58 594 CURVE SMOOTH",
"54 594 OFFCURVE",
"51 588 OFFCURVE",
"51 580 CURVE SMOOTH",
"51 573 OFFCURVE",
"54 565 OFFCURVE",
"64 564 CURVE SMOOTH",
"113 561 OFFCURVE",
"179 561 OFFCURVE",
"292 564 CURVE SMOOTH",
"400 568 OFFCURVE",
"418 499 OFFCURVE",
"418 422 CURVE SMOOTH",
"418 306 OFFCURVE",
"355 196 OFFCURVE",
"297 118 CURVE SMOOTH",
"286 104 OFFCURVE",
"314 97 OFFCURVE",
"324 109 CURVE SMOOTH"
);
},
{
closed = 1;
nodes = (
"90 -12 OFFCURVE",
"104 -2 OFFCURVE",
"104 8 CURVE SMOOTH",
"110 252 OFFCURVE",
"99 271 OFFCURVE",
"98 433 CURVE SMOOTH",
"97 487 OFFCURVE",
"101 533 OFFCURVE",
"116 575 CURVE",
"96 575 LINE",
"78 531 OFFCURVE",
"70 483 OFFCURVE",
"71 424 CURVE SMOOTH",
"72 258 OFFCURVE",
"80 235 OFFCURVE",
"75 7 CURVE SMOOTH",
"75 -9 OFFCURVE",
"79 -12 OFFCURVE",
"83 -12 CURVE SMOOTH"
);
},
{
closed = 1;
nodes = (
"144 701 OFFCURVE",
"207 787 OFFCURVE",
"314 865 CURVE SMOOTH",
"343 886 OFFCURVE",
"300 890 OFFCURVE",
"278 873 CURVE SMOOTH",
"227 834 OFFCURVE",
"114 717 OFFCURVE",
"78 589 CURVE",
"103 586 LINE"
);
}
);
width = 488;
},
{
anchors = (
{
name = bottom;
position = "{367, 0}";
},
{
name = bottomleft;
position = "{116, -30}";
},
{
name = center;
position = "{292, 265}";
},
{
name = top;
position = "{381, 516}";
},
{
name = topleft;
position = "{11, 536}";
}
);
layerId = "79F23985-86A9-4934-8BAF-8AAE7E0AB6FA";
paths = (
{
closed = 1;
nodes = (
"488 139 OFFCURVE",
"542 224 OFFCURVE",
"542 343 CURVE SMOOTH",
"542 540 OFFCURVE",
"465 592 OFFCURVE",
"345 592 CURVE SMOOTH",
"261 592 OFFCURVE",
"131 594 OFFCURVE",
"58 601 CURVE SMOOTH",
"48 602 OFFCURVE",
"34 586 OFFCURVE",
"34 564 CURVE SMOOTH",
"34 504 OFFCURVE",
"52 395 OFFCURVE",
"125 391 CURVE SMOOTH",
"186 388 OFFCURVE",
"282 393 OFFCURVE",
"337 394 CURVE SMOOTH",
"444 396 OFFCURVE",
"491 360 OFFCURVE",
"491 324 CURVE SMOOTH",
"491 235 OFFCURVE",
"412 163 OFFCURVE",
"361 124 CURVE SMOOTH",
"317 95 OFFCURVE",
"414 73 OFFCURVE",
"439 95 CURVE SMOOTH"
);
},
{
closed = 1;
nodes = (
"127 -15 OFFCURVE",
"173 24 OFFCURVE",
"173 65 CURVE SMOOTH",
"173 149 OFFCURVE",
"153 153 OFFCURVE",
"151 273 CURVE SMOOTH",
"150 324 OFFCURVE",
"161 368 OFFCURVE",
"184 416 CURVE",
"117 415 LINE",
"92 370 OFFCURVE",
"83 323 OFFCURVE",
"84 264 CURVE SMOOTH",
"87 97 OFFCURVE",
"84 72 OFFCURVE",
"84 0 CURVE SMOOTH",
"84 -12 OFFCURVE",
"92 -17 OFFCURVE",
"100 -16 CURVE SMOOTH"
);
},
{
closed = 1;
nodes = (
"199 700 OFFCURVE",
"300 782 OFFCURVE",
"389 837 CURVE SMOOTH",
"451 876 OFFCURVE",
"301 900 OFFCURVE",
"275 881 CURVE SMOOTH",
"234 848 OFFCURVE",
"130 717 OFFCURVE",
"96 589 CURVE",
"155 585 LINE"
);
}
);
width = 562;
},
{
anchors = (
{
name = bottom;
position = "{330, 0}";
},
{
name = bottomleft;
position = "{96, -15}";
},
{
name = center;
position = "{270, 303}";
},
{
name = top;
position = "{352, 516}";
},
{
name = topleft;
position = "{16, 536}";
}
);
layerId = "6A5C4ED4-BBA5-4E07-B50E-1C6C5DE6A04B";
paths = (
{
closed = 1;
nodes = (
"429 154 OFFCURVE",
"493 260 OFFCURVE",
"493 383 CURVE SMOOTH",
"493 524 OFFCURVE",
"444 594 OFFCURVE",
"322 592 CURVE SMOOTH",
"221 590 OFFCURVE",
"116 591 OFFCURVE",
"58 597 CURVE SMOOTH",
"51 598 OFFCURVE",
"43 587 OFFCURVE",
"43 572 CURVE SMOOTH",
"43 539 OFFCURVE",
"53 481 OFFCURVE",
"94 479 CURVE SMOOTH",
"149 476 OFFCURVE",
"230 478 OFFCURVE",
"314 480 CURVE SMOOTH",
"422 483 OFFCURVE",
"454 430 OFFCURVE",
"454 374 CURVE SMOOTH",
"454 271 OFFCURVE",
"383 180 OFFCURVE",
"329 121 CURVE SMOOTH",
"301 100 OFFCURVE",
"363 85 OFFCURVE",
"381 102 CURVE SMOOTH"
);
},
{
closed = 1;
nodes = (
"108 -13 OFFCURVE",
"138 11 OFFCURVE",
"138 36 CURVE SMOOTH",
"141 201 OFFCURVE",
"126 213 OFFCURVE",
"124 354 CURVE SMOOTH",
"123 406 OFFCURVE",
"131 451 OFFCURVE",
"150 496 CURVE",
"106 496 LINE",
"85 451 OFFCURVE",
"76 404 OFFCURVE",
"77 345 CURVE SMOOTH",
"79 178 OFFCURVE",
"82 154 OFFCURVE",
"79 4 CURVE SMOOTH",
"79 -10 OFFCURVE",
"85 -14 OFFCURVE",
"91 -14 CURVE SMOOTH"
);
},
{
closed = 1;
nodes = (
"171 701 OFFCURVE",
"253 785 OFFCURVE",
"351 851 CURVE SMOOTH",
"396 881 OFFCURVE",
"300 895 OFFCURVE",
"277 877 CURVE SMOOTH",
"230 841 OFFCURVE",
"122 717 OFFCURVE",
"87 589 CURVE",
"129 586 LINE"
);
}
);
width = 524.55422;
}
);
unicode = 05D0;
},
{
glyphname = "bet-hb";
lastChange = "2019-12-23 03:33:39 +0000";
layers = (
{
anchors = (
{
name = bottom;
position = "{262, 0}";
},
{
name = bottomleft;
position = "{53, 0}";
},
{
name = center;
position = "{196, 340}";
},
{
name = top;
position = "{293, 536}";
},
{
name = topleft;
position = "{110, 566}";
}
);
layerId = "B853D75E-14CD-4000-B7A0-02101202F42C";
paths = (
{
closed = 1;
nodes = (
"309 -12 OFFCURVE",
"485 155 OFFCURVE",
"485 280 CURVE SMOOTH",
"485 323 OFFCURVE",
"398 342 OFFCURVE",
"406 386 CURVE SMOOTH",
"422 467 OFFCURVE",
"431 535 OFFCURVE",
"431 571 CURVE SMOOTH",
"431 595 OFFCURVE",
"424 601 OFFCURVE",
"415 600 CURVE SMOOTH",
"297 590 OFFCURVE",
"238 586 OFFCURVE",
"150 592 CURVE SMOOTH",
"129 593 OFFCURVE",
"122 606 OFFCURVE",
"122 642 CURVE SMOOTH",
"122 650 OFFCURVE",
"107 654 OFFCURVE",
"105 646 CURVE SMOOTH",
"92 593 OFFCURVE",
"105 566 OFFCURVE",
"136 564 CURVE SMOOTH",
"245 558 OFFCURVE",
"272 559 OFFCURVE",
"384 567 CURVE SMOOTH",
"401 568 OFFCURVE",
"404 555 OFFCURVE",
"400 526 CURVE SMOOTH",
"397 506 OFFCURVE",
"386 460 OFFCURVE",
"376 381 CURVE SMOOTH",
"369 327 OFFCURVE",
"455 303 OFFCURVE",
"455 267 CURVE SMOOTH",
"455 177 OFFCURVE",
"304 18 OFFCURVE",
"96 18 CURVE SMOOTH",
"57 18 OFFCURVE",
"50 20 OFFCURVE",
"31 22 CURVE",
"31 -11 OFFCURVE",
"38 -12 OFFCURVE",
"88 -12 CURVE SMOOTH"
);
}
);
width = 521;
},
{
anchors = (
{
name = bottom;
position = "{332, 0}";
},
{
name = bottomleft;
position = "{68, 0}";
},
{
name = center;
position = "{203, 287}";
},
{
name = top;
position = "{307, 536}";
},
{
name = topleft;
position = "{105, 566}";
}
);
layerId = "79F23985-86A9-4934-8BAF-8AAE7E0AB6FA";
paths = (
{
closed = 1;
nodes = (
"304 -12 OFFCURVE",
"517 110 OFFCURVE",
"517 285 CURVE SMOOTH",
"517 340 OFFCURVE",
"458 319 OFFCURVE",
"458 359 CURVE SMOOTH",
"458 399 OFFCURVE",
"497 474 OFFCURVE",
"497 568 CURVE SMOOTH",
"497 604 OFFCURVE",
"432 597 OFFCURVE",
"372 592 CURVE SMOOTH",
"285 585 OFFCURVE",
"202 588 OFFCURVE",
"152 592 CURVE SMOOTH",
"128 594 OFFCURVE",
"124 611 OFFCURVE",
"122 640 CURVE SMOOTH",
"121 655 OFFCURVE",
"80 654 OFFCURVE",
"79 646 CURVE SMOOTH",
"65 532 OFFCURVE",
"81 396 OFFCURVE",
"163 391 CURVE SMOOTH",
"225 387 OFFCURVE",
"310 400 OFFCURVE",
"364 400 CURVE SMOOTH",
"391 400 OFFCURVE",
"399 388 OFFCURVE",
"399 373 CURVE SMOOTH",
"399 354 OFFCURVE",
"387 330 OFFCURVE",
"387 317 CURVE SMOOTH",
"387 276 OFFCURVE",
"461 270 OFFCURVE",
"461 256 CURVE SMOOTH",
"461 233 OFFCURVE",
"289 172 OFFCURVE",
"83 172 CURVE SMOOTH",
"44 172 OFFCURVE",
"37 174 OFFCURVE",
"18 176 CURVE",
"18 -6 OFFCURVE",
"36 -12 OFFCURVE",
"115 -12 CURVE SMOOTH"
);
}
);
width = 540;
},
{
anchors = (
{
name = bottom;
position = "{297, 0}";
},
{
name = bottomleft;
position = "{60, 0}";
},
{
name = center;
position = "{199, 314}";
},
{
name = top;
position = "{300, 536}";
},
{
name = topleft;
position = "{108, 566}";
}
);
layerId = "6A5C4ED4-BBA5-4E07-B50E-1C6C5DE6A04B";
paths = (
{
closed = 1;
nodes = (
"307 -12 OFFCURVE",
"501 133 OFFCURVE",
"501 282 CURVE SMOOTH",
"501 331 OFFCURVE",
"428 331 OFFCURVE",
"432 373 CURVE SMOOTH",
"440 433 OFFCURVE",
"464 505 OFFCURVE",
"464 570 CURVE SMOOTH",
"464 599 OFFCURVE",
"428 599 OFFCURVE",
"394 596 CURVE SMOOTH",
"291 588 OFFCURVE",
"220 587 OFFCURVE",
"151 592 CURVE SMOOTH",
"129 593 OFFCURVE",
"123 608 OFFCURVE",
"122 641 CURVE SMOOTH",
"122 652 OFFCURVE",
"94 654 OFFCURVE",
"92 646 CURVE SMOOTH",
"79 563 OFFCURVE",
"93 482 OFFCURVE",
"149 479 CURVE SMOOTH",
"235 474 OFFCURVE",
"291 480 OFFCURVE",
"374 485 CURVE SMOOTH",
"396 485 OFFCURVE",
"402 473 OFFCURVE",
"400 450 CURVE SMOOTH",
"398 431 OFFCURVE",
"386 396 OFFCURVE",
"381 349 CURVE SMOOTH",
"378 302 OFFCURVE",
"458 287 OFFCURVE",
"458 262 CURVE SMOOTH",
"458 205 OFFCURVE",
"297 94 OFFCURVE",
"90 94 CURVE SMOOTH",
"51 94 OFFCURVE",
"44 96 OFFCURVE",
"25 98 CURVE",
"25 -9 OFFCURVE",
"37 -12 OFFCURVE",
"101 -12 CURVE SMOOTH"
);
}
);
width = 530.38554;
}
);
unicode = 05D1;
},
{
glyphname = "gimel-hb";
lastChange = "2019-12-24 17:19:04 +0000";
layers = (
{
anchors = (
{
name = bottom;
position = "{197, 0}";
},
{
name = bottomleft;
position = "{35, 0}";
},
{
name = center;
position = "{101, 340}";
},
{
name = top;
position = "{182, 536}";
},
{
name = topleft;
position = "{65, 536}";
}
);
layerId = "B853D75E-14CD-4000-B7A0-02101202F42C";
paths = (
{
closed = 1;
nodes = (
"118 -10 OFFCURVE",
"165 9 OFFCURVE",
"191 19 CURVE SMOOTH",
"199 22 OFFCURVE",
"204 25 OFFCURVE",
"205 18 CURVE SMOOTH",
"208 0 OFFCURVE",
"213 -3 OFFCURVE",
"217 -3 CURVE SMOOTH",
"225 -3 OFFCURVE",
"231 5 OFFCURVE",
"232 18 CURVE SMOOTH",
"240 117 OFFCURVE",
"239 214 OFFCURVE",
"237 313 CURVE SMOOTH",
"233 499 OFFCURVE",
"195 578 OFFCURVE",
"136 594 CURVE SMOOTH",
"96 605 OFFCURVE",
"82 604 OFFCURVE",
"68 604 CURVE SMOOTH",
"59 604 OFFCURVE",
"59 577 OFFCURVE",
"72 576 CURVE SMOOTH",
"89 575 OFFCURVE",
"106 572 OFFCURVE",
"123 569 CURVE SMOOTH",
"168 561 OFFCURVE",
"205 484 OFFCURVE",
"209 309 CURVE SMOOTH",
"211 209 OFFCURVE",
"212 133 OFFCURVE",
"203 40 CURVE",
"219 67 LINE",
"198 43 OFFCURVE",
"116 18 OFFCURVE",
"67 18 CURVE SMOOTH",
"48 18 OFFCURVE",
"41 19 OFFCURVE",
"22 22 CURVE",
"22 -9 OFFCURVE",
"29 -10 OFFCURVE",
"59 -10 CURVE SMOOTH"
);
}
);
width = 294;
},
{
anchors = (
{
name = bottom;
position = "{296, 0}";
},
{
name = bottomleft;
position = "{56, 0}";
},
{
name = center;
position = "{172, 297}";
},
{
name = top;
position = "{277, 536}";
},
{
name = topleft;
position = "{76, 536}";
}
);
background = {
paths = (
{
closed = 0;
nodes = (
"182 611 LINE SMOOTH",
"168 616 OFFCURVE",
"154 616 OFFCURVE",
"140 616 CURVE SMOOTH",
"101 616 OFFCURVE",
"141 409 OFFCURVE",
"164 405 CURVE SMOOTH",
"194 400 LINE SMOOTH"
);
}
);
};
layerId = "79F23985-86A9-4934-8BAF-8AAE7E0AB6FA";
paths = (
{
closed = 1;
nodes = (
"197 -11 OFFCURVE",
"229 53 OFFCURVE",
"260 53 CURVE SMOOTH",
"270 53 OFFCURVE",
"270 34 OFFCURVE",
"284 9 CURVE SMOOTH",
"289 -2 OFFCURVE",
"298 -4 OFFCURVE",
"309 -4 CURVE SMOOTH",
"332 -5 OFFCURVE",
"347 1 OFFCURVE",
"350 34 CURVE SMOOTH",
"359 134 OFFCURVE",
"367 219 OFFCURVE",
"367 324 CURVE SMOOTH",
"367 499 OFFCURVE",
"314 561 OFFCURVE",
"220 595 CURVE SMOOTH",
"197 603 OFFCURVE",
"181 604 OFFCURVE",
"167 604 CURVE SMOOTH",
"128 604 OFFCURVE",
"168 395 OFFCURVE",
"191 393 CURVE SMOOTH",
"201 392 OFFCURVE",
"212 390 OFFCURVE",
"222 388 CURVE SMOOTH",
"285 375 OFFCURVE",
"308 358 OFFCURVE",
"308 302 CURVE SMOOTH",
"308 284 OFFCURVE",
"306 201 OFFCURVE",
"301 170 CURVE",
"325 229 LINE",
"286 185 OFFCURVE",
"185 173 OFFCURVE",
"109 173 CURVE SMOOTH",
"70 173 OFFCURVE",
"63 175 OFFCURVE",
"44 179 CURVE",
"44 -5 OFFCURVE",
"67 -11 OFFCURVE",
"119 -11 CURVE SMOOTH"
);
}
);
width = 405;
},
{
anchors = (
{
name = bottom;
position = "{244, 0}";
},
{
name = bottomleft;
position = "{44, 0}";
},
{
name = center;
position = "{135, 319}";
},
{
name = top;
position = "{227, 536}";
},
{
name = topleft;
position = "{69, 536}";
}
);
layerId = "6A5C4ED4-BBA5-4E07-B50E-1C6C5DE6A04B";
paths = (
{
closed = 1;
nodes = (
"166 -10 OFFCURVE",
"199 32 OFFCURVE",
"224 36 CURVE SMOOTH",
"233 37 OFFCURVE",
"235 29 OFFCURVE",
"243 14 CURVE",
"247 -1 OFFCURVE",
"254 -3 OFFCURVE",
"261 -3 CURVE SMOOTH",
"276 -4 OFFCURVE",
"287 3 OFFCURVE",
"289 26 CURVE SMOOTH",
"300 163 OFFCURVE",
"297 291 OFFCURVE",
"296 353 CURVE SMOOTH",
"294 499 OFFCURVE",
"249 572 OFFCURVE",
"168 596 CURVE SMOOTH",
"141 604 OFFCURVE",
"127 604 OFFCURVE",
"113 604 CURVE SMOOTH",
"89 604 OFFCURVE",
"109 484 OFFCURVE",
"127 483 CURVE SMOOTH",
"141 482 OFFCURVE",
"154 481 OFFCURVE",
"168 478 CURVE SMOOTH",
"225 466 OFFCURVE",
"249 422 OFFCURVE",
"254 303 CURVE SMOOTH",
"255 288 OFFCURVE",
"259 193 OFFCURVE",
"250 104 CURVE",
"270 147 LINE",
"242 113 OFFCURVE",
"158 95 OFFCURVE",
"101 95 CURVE SMOOTH",
"72 95 OFFCURVE",
"65 96 OFFCURVE",
"46 100 CURVE",
"46 -7 OFFCURVE",
"61 -10 OFFCURVE",
"107 -10 CURVE SMOOTH"
);
}
);
width = 352.28916;
}
);
unicode = 05D2;
},
{
glyphname = "dalet-hb";
lastChange = "2019-12-24 17:21:44 +0000";
layers = (
{
anchors = (
{
name = bottom;
position = "{298, 0}";
},
{
name = bottomleft;
position = "{123, 0}";
},
{
name = center;
position = "{184, 360}";
},
{
name = top;
position = "{245, 536}";
},
{
name = topleft;
position = "{70, 566}";
}
);
layerId = "B853D75E-14CD-4000-B7A0-02101202F42C";
paths = (
{
closed = 1;
nodes = (
"166 -9 OFFCURVE",
"172 -12 OFFCURVE",
"176 -12 CURVE SMOOTH",
"183 -12 OFFCURVE",
"198 -2 OFFCURVE",
"200 8 CURVE SMOOTH",
"237 169 OFFCURVE",
"421 385 OFFCURVE",
"428 512 CURVE SMOOTH",
"431 561 OFFCURVE",
"427 575 OFFCURVE",
"421 583 CURVE SMOOTH",
"415 591 OFFCURVE",
"409 597 OFFCURVE",
"382 596 CURVE SMOOTH",
"242 591 OFFCURVE",
"146 590 OFFCURVE",
"91 592 CURVE SMOOTH",
"70 593 OFFCURVE",
"64 606 OFFCURVE",
"63 642 CURVE SMOOTH",
"63 650 OFFCURVE",
"48 654 OFFCURVE",
"46 646 CURVE SMOOTH",
"33 593 OFFCURVE",
"46 565 OFFCURVE",
"77 564 CURVE SMOOTH",
"126 562 OFFCURVE",
"222 562 OFFCURVE",
"379 568 CURVE SMOOTH",
"398 569 OFFCURVE",
"406 559 OFFCURVE",
"403 519 CURVE SMOOTH",
"394 379 OFFCURVE",
"220 209 OFFCURVE",
"170 7 CURVE SMOOTH"
);
}
);
width = 475;
},
{
anchors = (
{
name = bottom;
position = "{365, 0}";
},
{
name = bottomleft;
position = "{118, 0}";
},
{
name = center;
position = "{185, 277}";
},
{
name = top;
position = "{294, 536}";
},
{
name = topleft;
position = "{83, 566}";
}
);
layerId = "79F23985-86A9-4934-8BAF-8AAE7E0AB6FA";
paths = (
{
closed = 1;
nodes = (
"112 -12 OFFCURVE",
"127 -17 OFFCURVE",
"140 -17 CURVE SMOOTH",
"180 -17 OFFCURVE",
"228 -5 OFFCURVE",
"238 47 CURVE SMOOTH",
"262 171 OFFCURVE",
"452 301 OFFCURVE",
"455 415 CURVE SMOOTH",
"457 492 OFFCURVE",
"449 522 OFFCURVE",
"437 556 CURVE SMOOTH",
"428 584 OFFCURVE",
"411 595 OFFCURVE",
"360 595 CURVE SMOOTH",
"298 595 OFFCURVE",
"244 588 OFFCURVE",
"188 588 CURVE SMOOTH",
"136 588 OFFCURVE",
"98 582 OFFCURVE",
"94 640 CURVE SMOOTH",
"93 655 OFFCURVE",
"52 654 OFFCURVE",
"51 646 CURVE SMOOTH",
"36 523 OFFCURVE",
"44 389 OFFCURVE",
"158 389 CURVE SMOOTH",
"251 389 OFFCURVE",
"258 394 OFFCURVE",
"312 394 CURVE SMOOTH",
"331 394 OFFCURVE",
"358 390 OFFCURVE",
"358 366 CURVE SMOOTH",
"358 267 OFFCURVE",
"124 110 OFFCURVE",
"113 0 CURVE SMOOTH"
);
}
);
width = 478;
},
{
anchors = (
{
name = bottom;
position = "{326, 0}";
},
{
name = bottomleft;
position = "{115, 0}";
},
{
name = center;
position = "{179, 319}";
},
{
name = top;
position = "{264, 536}";
},
{
name = topleft;
position = "{71, 566}";
}
);
layerId = "6A5C4ED4-BBA5-4E07-B50E-1C6C5DE6A04B";
paths = (
{
closed = 1;
nodes = (
"134 -10 OFFCURVE",
"144 -14 OFFCURVE",
"153 -14 CURVE SMOOTH",
"176 -14 OFFCURVE",
"207 -3 OFFCURVE",
"213 27 CURVE SMOOTH",
"244 170 OFFCURVE",
"431 344 OFFCURVE",
"436 464 CURVE SMOOTH",
"438 527 OFFCURVE",
"432 549 OFFCURVE",
"423 570 CURVE SMOOTH",
"416 588 OFFCURVE",
"404 596 OFFCURVE",
"366 596 CURVE SMOOTH",
"264 593 OFFCURVE",
"189 589 OFFCURVE",
"133 590 CURVE SMOOTH",
"97 591 OFFCURVE",
"75 594 OFFCURVE",
"73 641 CURVE SMOOTH",
"72 652 OFFCURVE",
"44 654 OFFCURVE",
"43 646 CURVE SMOOTH",
"29 558 OFFCURVE",
"39 478 OFFCURVE",
"111 478 CURVE SMOOTH",
"182 477 OFFCURVE",
"234 479 OFFCURVE",
"340 482 CURVE SMOOTH",
"359 483 OFFCURVE",
"377 476 OFFCURVE",
"375 443 CURVE SMOOTH",
"371 324 OFFCURVE",
"167 160 OFFCURVE",
"136 4 CURVE SMOOTH"
);
}
);
width = 476;
}
);
unicode = 05D3;
},
{
glyphname = "he-hb";
lastChange = "2019-12-23 03:33:39 +0000";
layers = (
{
anchors = (
{
name = bottom;
position = "{309, 0}";
},
{
name = bottomleft;
position = "{77, 0}";
},
{
name = center;
position = "{269, 340}";
},
{
name = top;
position = "{304, 536}";
},
{
name = topleft;
position = "{80, 566}";
}
);
layerId = "B853D75E-14CD-4000-B7A0-02101202F42C";
paths = (
{
closed = 1;
nodes = (
"434 196 OFFCURVE",
"472 291 OFFCURVE",
"472 423 CURVE SMOOTH",
"472 509 OFFCURVE",
"456 597 OFFCURVE",
"317 592 CURVE SMOOTH",
"199 588 OFFCURVE",
"155 590 OFFCURVE",
"111 592 CURVE SMOOTH",
"90 593 OFFCURVE",
"83 606 OFFCURVE",
"83 642 CURVE SMOOTH",
"83 650 OFFCURVE",
"68 654 OFFCURVE",
"66 646 CURVE SMOOTH",
"53 593 OFFCURVE",
"66 566 OFFCURVE",
"97 564 CURVE SMOOTH",
"146 561 OFFCURVE",
"196 561 OFFCURVE",
"309 564 CURVE SMOOTH",
"426 567 OFFCURVE",
"445 499 OFFCURVE",
"445 422 CURVE SMOOTH",
"445 292 OFFCURVE",
"407 208 OFFCURVE",
"387 180 CURVE SMOOTH",
"376 166 OFFCURVE",
"404 159 OFFCURVE",
"414 171 CURVE SMOOTH"
);
},
{
closed = 1;
nodes = (
"339 -12 OFFCURVE",
"351 18 OFFCURVE",
"333 18 CURVE SMOOTH",
"172 18 OFFCURVE",
"90 140 OFFCURVE",
"90 382 CURVE SMOOTH",
"90 387 OFFCURVE",
"68 387 OFFCURVE",
"68 382 CURVE SMOOTH",
"67 370 OFFCURVE",
"66 362 OFFCURVE",
"66 334 CURVE SMOOTH",
"66 120 OFFCURVE",
"169 -12 OFFCURVE",
"328 -12 CURVE SMOOTH"
);
}
);
width = 530;
},
{
anchors = (
{
name = bottom;
position = "{305, 0}";
},
{
name = bottomleft;
position = "{55, 0}";
},
{
name = center;
position = "{269, 287}";
},
{
name = top;
position = "{327, 536}";
},
{
name = topleft;
position = "{50, 566}";
}
);
layerId = "79F23985-86A9-4934-8BAF-8AAE7E0AB6FA";
paths = (
{
closed = 1;
nodes = (
"481 199 OFFCURVE",
"504 258 OFFCURVE",
"504 344 CURVE SMOOTH",
"504 540 OFFCURVE",
"427 595 OFFCURVE",
"307 592 CURVE SMOOTH",
"189 589 OFFCURVE",
"145 590 OFFCURVE",
"93 592 CURVE SMOOTH",
"72 593 OFFCURVE",
"67 611 OFFCURVE",
"66 640 CURVE SMOOTH",
"65 655 OFFCURVE",
"24 654 OFFCURVE",
"23 646 CURVE SMOOTH",
"8 532 OFFCURVE",
"25 396 OFFCURVE",
"107 391 CURVE SMOOTH",
"169 387 OFFCURVE",
"236 392 OFFCURVE",
"299 394 CURVE SMOOTH",
"406 396 OFFCURVE",
"453 361 OFFCURVE",
"453 325 CURVE SMOOTH",
"453 267 OFFCURVE",
"409 218 OFFCURVE",
"378 194 CURVE SMOOTH",
"336 162 OFFCURVE",
"436 138 OFFCURVE",
"456 165 CURVE SMOOTH"
);
},
{
closed = 1;
nodes = (
"298 -12 OFFCURVE",
"252 188 OFFCURVE",
"183 188 CURVE SMOOTH",
"136 188 OFFCURVE",
"108 241 OFFCURVE",
"108 322 CURVE SMOOTH",
"108 337 OFFCURVE",
"58 337 OFFCURVE",
"54 322 CURVE SMOOTH",
"51 310 OFFCURVE",
"50 302 OFFCURVE",
"50 264 CURVE SMOOTH",
"50 134 OFFCURVE",
"100 -12 OFFCURVE",
"218 -12 CURVE SMOOTH"
);
}
);
width = 539;
},
{
anchors = (
{
name = bottom;
position = "{307, 0}";
},
{
name = bottomleft;
position = "{66, 0}";
},
{
name = center;
position = "{269, 314}";
},
{
name = top;
position = "{315, 536}";
},
{
name = topleft;
position = "{65, 566}";
}
);
layerId = "6A5C4ED4-BBA5-4E07-B50E-1C6C5DE6A04B";
paths = (
{
closed = 1;
nodes = (
"457 197 OFFCURVE",
"488 275 OFFCURVE",
"488 384 CURVE SMOOTH",
"488 524 OFFCURVE",
"442 596 OFFCURVE",
"312 592 CURVE SMOOTH",
"194 588 OFFCURVE",
"150 590 OFFCURVE",
"102 592 CURVE SMOOTH",
"81 593 OFFCURVE",
"75 608 OFFCURVE",
"75 641 CURVE SMOOTH",
"74 652 OFFCURVE",
"46 654 OFFCURVE",
"45 646 CURVE SMOOTH",
"31 563 OFFCURVE",
"46 482 OFFCURVE",
"102 479 CURVE SMOOTH",
"157 475 OFFCURVE",
"216 478 OFFCURVE",
"304 480 CURVE SMOOTH",
"416 483 OFFCURVE",
"449 431 OFFCURVE",
"449 374 CURVE SMOOTH",
"449 280 OFFCURVE",
"408 213 OFFCURVE",
"383 187 CURVE SMOOTH",
"356 164 OFFCURVE",
"420 149 OFFCURVE",
"435 168 CURVE SMOOTH"
);
},
{
closed = 1;
nodes = (
"319 -12 OFFCURVE",
"302 102 OFFCURVE",
"259 102 CURVE SMOOTH",
"154 102 OFFCURVE",
"99 190 OFFCURVE",
"99 352 CURVE SMOOTH",
"99 362 OFFCURVE",
"63 362 OFFCURVE",
"61 352 CURVE SMOOTH",
"59 340 OFFCURVE",
"58 332 OFFCURVE",
"58 299 CURVE SMOOTH",
"58 127 OFFCURVE",
"135 -12 OFFCURVE",
"274 -12 CURVE SMOOTH"
);
}
);
width = 534.44578;
}
);
unicode = 05D4;
},
{
glyphname = "vav-hb";
lastChange = "2019-12-24 17:21:02 +0000";
layers = (
{
anchors = (
{
name = bottom;
position = "{166, 0}";
},
{
name = bottomleft;
position = "{35, 0}";
},
{
name = center;
position = "{106, 318}";
},
{
name = top;
position = "{146, 536}";
},
{
name = topleft;
position = "{35, 536}";
}
);
layerId = "B853D75E-14CD-4000-B7A0-02101202F42C";
paths = (
{
closed = 1;
nodes = (
"159 -3 OFFCURVE",
"171 5 OFFCURVE",
"174 18 CURVE SMOOTH",
"202 139 OFFCURVE",
"220 253 OFFCURVE",
"220 356 CURVE SMOOTH",
"220 514 OFFCURVE",
"192 583 OFFCURVE",
"150 594 CURVE SMOOTH",
"110 604 OFFCURVE",
"96 604 OFFCURVE",
"82 604 CURVE SMOOTH",
"73 604 OFFCURVE",
"73 578 OFFCURVE",
"86 576 CURVE SMOOTH",
"103 574 OFFCURVE",
"120 571 OFFCURVE",
"137 569 CURVE SMOOTH",
"166 565 OFFCURVE",
"192 500 OFFCURVE",
"192 352 CURVE SMOOTH",
"192 238 OFFCURVE",
"169 146 OFFCURVE",
"145 16 CURVE SMOOTH",
"142 0 OFFCURVE",
"148 -3 OFFCURVE",
"152 -3 CURVE SMOOTH"
);
}
);
width = 261;
},
{
anchors = (
{
name = bottom;
position = "{221, 0}";
},
{
name = bottomleft;
position = "{-6, 0}";
},
{
name = center;
position = "{92, 277}";
},
{
name = top;
position = "{179, 536}";
},
{
name = topleft;
position = "{-10, 536}";
}
);
layerId = "79F23985-86A9-4934-8BAF-8AAE7E0AB6FA";
paths = (
{
closed = 1;
nodes = (
"170 -4 OFFCURVE",
"211 3 OFFCURVE",
"219 33 CURVE SMOOTH",
"244 129 OFFCURVE",
"255 206 OFFCURVE",
"255 313 CURVE SMOOTH",
"255 499 OFFCURVE",
"201 562 OFFCURVE",
"98 599 CURVE SMOOTH",
"84 604 OFFCURVE",
"70 604 OFFCURVE",
"56 604 CURVE SMOOTH",
"17 604 OFFCURVE",
"57 391 OFFCURVE",
"80 388 CURVE SMOOTH",
"90 387 OFFCURVE",
"101 385 OFFCURVE",
"111 384 CURVE SMOOTH",
"183 375 OFFCURVE",
"197 358 OFFCURVE",
"197 303 CURVE SMOOTH",
"197 178 OFFCURVE",
"136 59 OFFCURVE",
"126 19 CURVE SMOOTH",
"121 0 OFFCURVE",
"136 -4 OFFCURVE",
"147 -4 CURVE SMOOTH"
);
}
);
width = 291;
},
{
anchors = (
{
name = bottom;
position = "{199, 0}";
},
{
name = bottomleft;
position = "{20, 0}";
},
{
name = center;
position = "{105, 298}";
},
{
name = top;
position = "{168, 536}";
},
{
name = topleft;
position = "{18, 536}";
}
);
layerId = "6A5C4ED4-BBA5-4E07-B50E-1C6C5DE6A04B";
paths = (
{
closed = 1;
nodes = (
"130 -3 OFFCURVE",
"156 4 OFFCURVE",
"164 25 CURVE SMOOTH",
"208 135 OFFCURVE",
"238 224 OFFCURVE",
"238 313 CURVE SMOOTH",
"237 499 OFFCURVE",
"190 572 OFFCURVE",
"109 596 CURVE SMOOTH",
"82 604 OFFCURVE",
"68 604 OFFCURVE",
"54 604 CURVE SMOOTH",
"30 604 OFFCURVE",
"50 485 OFFCURVE",
"68 483 CURVE SMOOTH",
"82 481 OFFCURVE",
"95 480 OFFCURVE",
"109 478 CURVE SMOOTH",
"167 471 OFFCURVE",
"196 422 OFFCURVE",
"195 303 CURVE SMOOTH",
"194 186 OFFCURVE",
"148 104 OFFCURVE",
"103 16 CURVE SMOOTH",
"95 1 OFFCURVE",
"108 -3 OFFCURVE",
"115 -3 CURVE SMOOTH"
);
}
);
width = 281.25301;
}
);
unicode = 05D5;
},
{
glyphname = "zayin-hb";
lastChange = "2019-12-24 16:57:33 +0000";
layers = (
{
anchors = (
{
name = bottom;
position = "{134, 0}";
},
{
name = bottomleft;
position = "{9, 0}";
},
{
name = center;
position = "{20, 330}";
},
{
name = top;
position = "{140, 536}";
},
{
name = topleft;
position = "{3, 536}";
}
);
layerId = "B853D75E-14CD-4000-B7A0-02101202F42C";
paths = (
{
closed = 1;
nodes = (
"102 265 OFFCURVE",
"87 172 OFFCURVE",
"77 16 CURVE SMOOTH",
"76 0 OFFCURVE",
"81 -3 OFFCURVE",
"85 -3 CURVE SMOOTH",
"92 -3 OFFCURVE",
"105 5 OFFCURVE",
"106 18 CURVE SMOOTH",
"118 179 OFFCURVE",
"128 213 OFFCURVE",
"122 359 CURVE SMOOTH",
"117 491 OFFCURVE",
"79 503 OFFCURVE",
"79 531 CURVE SMOOTH",
"79 552 OFFCURVE",
"176 592 OFFCURVE",
"176 605 CURVE SMOOTH",
"176 617 OFFCURVE",
"173 624 OFFCURVE",
"169 624 CURVE SMOOTH",
"157 624 OFFCURVE",
"50 565 OFFCURVE",
"50 537 CURVE SMOOTH",
"50 487 OFFCURVE",
"82 491 OFFCURVE",
"91 389 CURVE SMOOTH"
);
}
);
width = 221;
},
{
anchors = (
{
name = bottom;
position = "{197, 0}";
},
{
name = bottomleft;
position = "{30, 0}";
},
{
name = center;
position = "{32, 267}";
},
{
name = top;
position = "{219, 556}";
},
{
name = topleft;
position = "{26, 506}";
}
);
layerId = "79F23985-86A9-4934-8BAF-8AAE7E0AB6FA";
paths = (
{
closed = 1;
nodes = (
"111 136 OFFCURVE",
"83 55 OFFCURVE",
"83 10 CURVE SMOOTH",
"83 -2 OFFCURVE",
"90 -4 OFFCURVE",
"101 -4 CURVE SMOOTH",
"124 -4 OFFCURVE",
"155 1 OFFCURVE",
"161 33 CURVE SMOOTH",
"173 96 OFFCURVE",
"173 153 OFFCURVE",
"173 210 CURVE SMOOTH",
"173 302 OFFCURVE",
"140 333 OFFCURVE",
"140 365 CURVE SMOOTH",
"140 395 OFFCURVE",
"274 401 OFFCURVE",
"274 444 CURVE SMOOTH",
"274 561 OFFCURVE",
"246 607 OFFCURVE",
"221 607 CURVE SMOOTH",
"185 607 OFFCURVE",
"44 552 OFFCURVE",
"44 504 CURVE SMOOTH",
"44 425 OFFCURVE",
"111 331 OFFCURVE",
"111 240 CURVE SMOOTH"
);
}
);
width = 294;
},
{
anchors = (
{
name = bottom;
position = "{165, 0}";
},
{
name = bottomleft;
position = "{19, 0}";
},
{
name = center;
position = "{26, 299}";
},
{
name = top;
position = "{179, 546}";
},
{
name = topleft;
position = "{14, 521}";
}
);
layerId = "6A5C4ED4-BBA5-4E07-B50E-1C6C5DE6A04B";
paths = (
{
closed = 1;
nodes = (
"106 201 OFFCURVE",
"85 114 OFFCURVE",
"80 13 CURVE SMOOTH",
"79 -1 OFFCURVE",
"85 -3 OFFCURVE",
"93 -3 CURVE SMOOTH",
"108 -3 OFFCURVE",
"130 3 OFFCURVE",
"133 25 CURVE SMOOTH",
"145 138 OFFCURVE",
"150 183 OFFCURVE",
"147 285 CURVE SMOOTH",
"145 398 OFFCURVE",
"109 419 OFFCURVE",
"109 449 CURVE SMOOTH",
"109 480 OFFCURVE",
"224 509 OFFCURVE",
"224 532 CURVE SMOOTH",
"224 601 OFFCURVE",
"209 627 OFFCURVE",
"195 627 CURVE SMOOTH",
"171 627 OFFCURVE",
"47 559 OFFCURVE",
"47 521 CURVE SMOOTH",
"47 456 OFFCURVE",
"96 412 OFFCURVE",
"101 315 CURVE SMOOTH"
);
}
);
width = 257.06024;
}
);
unicode = 05D6;
},
{
glyphname = "het-hb";
lastChange = "2019-12-23 03:33:39 +0000";
layers = (
{
anchors = (
{
name = bottom;
position = "{251, 1}";
},
{
name = bottomleft;
position = "{99, 0}";
},
{
name = center;
position = "{257, 340}";
},
{
name = top;
position = "{285, 536}";
},
{
name = topleft;
position = "{56, 556}";
}
);
background = {
paths = (
{
closed = 1;
nodes = (
"448 -6 LINE",
"458 -2 OFFCURVE",
"467 2 OFFCURVE",
"473 8 CURVE",
"468 564 LINE",
"483 567 LINE",
"483 583 LINE SMOOTH",
"483 589 OFFCURVE",
"479 592 OFFCURVE",
"473 592 CURVE SMOOTH",
"95 592 LINE SMOOTH",
"80 592 OFFCURVE",
"73 603 OFFCURVE",
"73 627 CURVE SMOOTH",
"73 647 LINE",
"60 647 LINE",
"56 625 OFFCURVE",
"53 597 OFFCURVE",
"53 585 CURVE SMOOTH",
"53 571 OFFCURVE",
"57 564 OFFCURVE",
"72 564 CURVE SMOOTH",
"445 564 LINE",
"445 563 LINE",
"443 535 OFFCURVE",
"443 502 OFFCURVE",
"443 444 CURVE SMOOTH",
"443 -6 LINE"
);
},
{
closed = 1;
nodes = (
"87 -6 LINE",
"97 -2 OFFCURVE",
"106 2 OFFCURVE",
"112 8 CURVE",
"107 572 LINE",
"84 572 LINE",
"84 563 LINE",
"83 535 OFFCURVE",
"82 502 OFFCURVE",
"82 444 CURVE SMOOTH",
"82 -6 LINE"
);
}
);
};
layerId = "B853D75E-14CD-4000-B7A0-02101202F42C";
paths = (
{
closed = 1;
nodes = (
"99 -16 OFFCURVE",
"113 -6 OFFCURVE",
"113 4 CURVE SMOOTH",
"113 252 OFFCURVE",
"109 271 OFFCURVE",
"106 433 CURVE SMOOTH",
"105 487 OFFCURVE",
"110 533 OFFCURVE",
"125 575 CURVE",
"105 575 LINE",
"87 531 OFFCURVE",
"79 483 OFFCURVE",
"80 424 CURVE SMOOTH",
"83 258 OFFCURVE",
"84 235 OFFCURVE",
"84 3 CURVE SMOOTH",
"84 -13 OFFCURVE",
"88 -16 OFFCURVE",
"92 -16 CURVE SMOOTH"
);
},
{
closed = 1;
nodes = (
"36 593 OFFCURVE",
"49 566 OFFCURVE",
"80 564 CURVE SMOOTH",
"132 561 OFFCURVE",
"183 561 OFFCURVE",
"302 564 CURVE SMOOTH",
"419 568 OFFCURVE",
"438 499 OFFCURVE",
"438 422 CURVE SMOOTH",
"438 251 OFFCURVE",
"350 85 OFFCURVE",
"302 5 CURVE SMOOTH",
"291 -9 OFFCURVE",
"318 -17 OFFCURVE",
"329 -4 CURVE SMOOTH",
"382 72 OFFCURVE",
"465 257 OFFCURVE",
"465 423 CURVE SMOOTH",
"465 509 OFFCURVE",
"443 596 OFFCURVE",
"310 592 CURVE SMOOTH",
"187 589 OFFCURVE",
"140 590 OFFCURVE",
"94 592 CURVE SMOOTH",
"73 593 OFFCURVE",
"68 606 OFFCURVE",
"66 642 CURVE SMOOTH",
"66 650 OFFCURVE",
"51 654 OFFCURVE",
"49 646 CURVE SMOOTH"
);
}
);
width = 509;
},
{
anchors = (
{
name = bottom;
position = "{346, 0}";
},
{
name = bottomleft;
position = "{74, 0}";
},
{
name = center;
position = "{326, 250}";
},
{
name = top;
position = "{352, 536}";
},
{
name = topleft;
position = "{79, 566}";
}
);
background = {
paths = (
{
closed = 1;
nodes = (
"514 -7 LINE",
"542 2 OFFCURVE",
"552 9 OFFCURVE",
"574 31 CURVE",
"562 398 LINE",
"587 407 LINE",
"587 548 LINE SMOOTH",
"587 579 OFFCURVE",
"575 592 OFFCURVE",
"547 592 CURVE SMOOTH",
"156 592 LINE SMOOTH",
"125 592 OFFCURVE",
"112 604 OFFCURVE",
"112 625 CURVE SMOOTH",
"112 647 LINE",
"71 647 LINE",
"53 576 OFFCURVE",
"47 545 OFFCURVE",
"47 495 CURVE SMOOTH",
"47 420 OFFCURVE",
"73 393 OFFCURVE",
"136 393 CURVE SMOOTH",
"507 393 LINE",
"507 391 LINE",
"501 369 OFFCURVE",
"493 344 OFFCURVE",
"493 245 CURVE SMOOTH",
"493 -7 LINE"
);
},
{
closed = 1;
nodes = (
"118 -7 LINE",
"146 2 OFFCURVE",
"156 9 OFFCURVE",
"178 31 CURVE",
"166 422 LINE",
"111 422 LINE",
"111 393 LINE",
"105 371 OFFCURVE",
"97 344 OFFCURVE",
"97 245 CURVE SMOOTH",
"97 -7 LINE"
);
}
);
};
layerId = "79F23985-86A9-4934-8BAF-8AAE7E0AB6FA";
paths = (
{
closed = 1;
nodes = (
"134 -17 OFFCURVE",
"180 21 OFFCURVE",
"182 62 CURVE SMOOTH",
"186 139 OFFCURVE",
"161 163 OFFCURVE",
"159 273 CURVE SMOOTH",
"158 324 OFFCURVE",
"169 368 OFFCURVE",
"192 416 CURVE",
"125 415 LINE",
"100 370 OFFCURVE",
"91 323 OFFCURVE",
"92 264 CURVE SMOOTH",
"95 97 OFFCURVE",
"92 72 OFFCURVE",
"92 0 CURVE SMOOTH",
"92 -12 OFFCURVE",
"99 -17 OFFCURVE",
"107 -17 CURVE SMOOTH"
);
},
{
closed = 1;
nodes = (
"34 532 OFFCURVE",
"51 396 OFFCURVE",
"133 391 CURVE SMOOTH",
"205 386 OFFCURVE",
"282 392 OFFCURVE",
"355 394 CURVE SMOOTH",
"455 397 OFFCURVE",
"499 350 OFFCURVE",
"499 304 CURVE SMOOTH",
"499 178 OFFCURVE",
"418 94 OFFCURVE",
"354 39 CURVE SMOOTH",
"312 5 OFFCURVE",
"418 -30 OFFCURVE",
"439 -3 CURVE SMOOTH",
"498 55 OFFCURVE",
"560 167 OFFCURVE",
"560 323 CURVE SMOOTH",
"560 536 OFFCURVE",
"483 595 OFFCURVE",
"363 592 CURVE SMOOTH",
"228 589 OFFCURVE",
"178 590 OFFCURVE",
"119 592 CURVE SMOOTH",
"98 593 OFFCURVE",
"93 611 OFFCURVE",
"92 640 CURVE SMOOTH",
"91 655 OFFCURVE",
"50 654 OFFCURVE",
"49 646 CURVE SMOOTH"
);
}
);
width = 614;
},
{
anchors = (
{
name = bottom;
position = "{298, 1}";
},
{
name = bottomleft;
position = "{87, 0}";
},
{
name = center;
position = "{291, 296}";
},
{
name = top;
position = "{318, 536}";
},
{
name = topleft;
position = "{67, 561}";
}
);
layerId = "6A5C4ED4-BBA5-4E07-B50E-1C6C5DE6A04B";
paths = (
{
closed = 1;
nodes = (
"116 -16 OFFCURVE",
"146 7 OFFCURVE",
"147 33 CURVE SMOOTH",
"149 196 OFFCURVE",
"135 218 OFFCURVE",
"132 354 CURVE SMOOTH",
"131 406 OFFCURVE",
"139 451 OFFCURVE",
"158 496 CURVE",
"115 496 LINE",
"93 451 OFFCURVE",
"85 404 OFFCURVE",
"86 345 CURVE SMOOTH",
"89 178 OFFCURVE",
"88 154 OFFCURVE",
"88 2 CURVE SMOOTH",
"88 -13 OFFCURVE",
"93 -16 OFFCURVE",
"99 -16 CURVE SMOOTH"
);
},
{
closed = 1;
nodes = (
"35 563 OFFCURVE",
"50 482 OFFCURVE",
"106 479 CURVE SMOOTH",
"168 475 OFFCURVE",
"232 478 OFFCURVE",
"328 480 CURVE SMOOTH",
"437 484 OFFCURVE",
"468 425 OFFCURVE",
"468 364 CURVE SMOOTH",
"468 215 OFFCURVE",
"384 89 OFFCURVE",
"328 22 CURVE SMOOTH",
"301 -2 OFFCURVE",
"367 -23 OFFCURVE",
"383 -4 CURVE SMOOTH",
"439 64 OFFCURVE",
"512 213 OFFCURVE",
"512 374 CURVE SMOOTH",
"512 522 OFFCURVE",
"463 596 OFFCURVE",
"336 592 CURVE SMOOTH",
"207 589 OFFCURVE",
"159 590 OFFCURVE",
"106 592 CURVE SMOOTH",
"85 593 OFFCURVE",
"80 608 OFFCURVE",
"79 641 CURVE SMOOTH",
"78 652 OFFCURVE",
"51 654 OFFCURVE",
"49 646 CURVE SMOOTH"
);
}
);
width = 560.86747;
}
);
unicode = 05D7;
},
{
glyphname = "tet-hb";
lastChange = "2019-12-24 17:19:26 +0000";
layers = (
{
anchors = (
{
name = bottom;
position = "{308, 0}";
},
{
name = bottomleft;
position = "{112, -50}";
},
{
name = center;
position = "{337, 340}";
},
{
name = top;
position = "{293, 546}";
},
{
name = topleft;
position = "{71, 536}";
}
);
layerId = "B853D75E-14CD-4000-B7A0-02101202F42C";
paths = (
{
closed = 1;
nodes = (
"449 -12 OFFCURVE",
"563 179 OFFCURVE",
"563 365 CURVE SMOOTH",
"563 511 OFFCURVE",
"502 604 OFFCURVE",
"397 604 CURVE SMOOTH",
"355 604 OFFCURVE",
"274 525 OFFCURVE",
"274 509 CURVE SMOOTH",
"274 488 OFFCURVE",
"287 495 OFFCURVE",
"306 516 CURVE SMOOTH",
"329 542 OFFCURVE",
"364 576 OFFCURVE",
"399 576 CURVE SMOOTH",
"485 576 OFFCURVE",
"535 489 OFFCURVE",
"535 356 CURVE SMOOTH",
"535 191 OFFCURVE",
"432 16 OFFCURVE",
"261 16 CURVE SMOOTH",
"190 16 OFFCURVE",
"150 48 OFFCURVE",
"144 40 CURVE SMOOTH",
"140 34 OFFCURVE",
"137 35 OFFCURVE",
"137 29 CURVE SMOOTH",
"137 17 OFFCURVE",
"204 -12 OFFCURVE",
"262 -12 CURVE SMOOTH"
);
},
{
closed = 1;
nodes = (
"98 -72 OFFCURVE",
"102 -81 OFFCURVE",
"108 -81 CURVE SMOOTH",
"113 -81 OFFCURVE",
"125 -77 OFFCURVE",
"129 -60 CURVE SMOOTH",
"187 171 OFFCURVE",
"185 468 OFFCURVE",
"71 601 CURVE SMOOTH",
"64 610 OFFCURVE",
"40 592 OFFCURVE",
"50 581 CURVE SMOOTH",
"157 453 OFFCURVE",
"160 175 OFFCURVE",
"101 -58 CURVE SMOOTH"
);
}
);
width = 601;
},
{
anchors = (
{
name = bottom;
position = "{373, 0}";
},
{
name = bottomleft;
position = "{85, -30}";
},
{
name = center;
position = "{373, 269}";
},
{
name = top;
position = "{364, 536}";
},
{
name = topleft;
position = "{96, 536}";
}
);
layerId = "79F23985-86A9-4934-8BAF-8AAE7E0AB6FA";
paths = (
{
closed = 1;
nodes = (
"504 -12 OFFCURVE",
"619 190 OFFCURVE",
"619 395 CURVE SMOOTH",
"619 532 OFFCURVE",
"556 604 OFFCURVE",
"482 604 CURVE SMOOTH",
"418 604 OFFCURVE",
"309 447 OFFCURVE",
"309 419 CURVE SMOOTH",
"309 398 OFFCURVE",
"340 382 OFFCURVE",
"352 391 CURVE SMOOTH",
"369 403 OFFCURVE",
"389 406 OFFCURVE",
"424 406 CURVE SMOOTH",
"524 406 OFFCURVE",
"550 352 OFFCURVE",
"550 306 CURVE SMOOTH",
"550 232 OFFCURVE",
"485 165 OFFCURVE",
"316 165 CURVE SMOOTH",
"245 165 OFFCURVE",
"197 196 OFFCURVE",
"192 180 CURVE SMOOTH",
"183 148 OFFCURVE",
"175 84 OFFCURVE",
"174 47 CURVE SMOOTH",
"174 22 OFFCURVE",
"237 -12 OFFCURVE",
"300 -12 CURVE SMOOTH"
);
},
{
closed = 1;
nodes = (
"107 -85 OFFCURVE",
"116 -90 OFFCURVE",
"127 -90 CURVE SMOOTH",
"150 -90 OFFCURVE",
"182 -81 OFFCURVE",
"186 -58 CURVE SMOOTH",
"224 174 OFFCURVE",
"243 491 OFFCURVE",
"150 605 CURVE",
"127 638 OFFCURVE",
"-16 510 OFFCURVE",
"38 482 CURVE SMOOTH",
"200 398 OFFCURVE",
"169 166 OFFCURVE",
"109 -76 CURVE SMOOTH"
);
}
);
width = 644;
},
{
anchors = (
{
name = bottom;
position = "{340, 0}";
},
{
name = bottomleft;
position = "{99, -40}";
},
{
name = center;
position = "{355, 305}";
},
{
name = top;
position = "{328, 541}";
},
{
name = topleft;
position = "{83, 536}";
}
);
layerId = "6A5C4ED4-BBA5-4E07-B50E-1C6C5DE6A04B";
paths = (
{
closed = 1;
nodes = (
"476 -12 OFFCURVE",
"591 184 OFFCURVE",
"591 380 CURVE SMOOTH",
"591 521 OFFCURVE",
"529 604 OFFCURVE",
"439 604 CURVE SMOOTH",
"386 604 OFFCURVE",
"291 486 OFFCURVE",
"291 465 CURVE SMOOTH",
"291 444 OFFCURVE",
"313 439 OFFCURVE",
"329 454 CURVE SMOOTH",
"349 473 OFFCURVE",
"376 492 OFFCURVE",
"411 492 CURVE SMOOTH",
"504 492 OFFCURVE",
"542 421 OFFCURVE",
"542 331 CURVE SMOOTH",
"542 211 OFFCURVE",
"458 90 OFFCURVE",
"288 90 CURVE SMOOTH",
"217 90 OFFCURVE",
"173 121 OFFCURVE",
"168 109 CURVE SMOOTH",
"161 90 OFFCURVE",
"156 59 OFFCURVE",
"155 38 CURVE SMOOTH",
"155 19 OFFCURVE",
"220 -12 OFFCURVE",
"281 -12 CURVE SMOOTH"
);
},
{
closed = 1;
nodes = (
"102 -78 OFFCURVE",
"109 -85 OFFCURVE",
"117 -85 CURVE SMOOTH",
"131 -85 OFFCURVE",
"153 -79 OFFCURVE",
"157 -59 CURVE SMOOTH",
"205 172 OFFCURVE",
"214 479 OFFCURVE",
"110 603 CURVE SMOOTH",
"95 624 OFFCURVE",
"12 551 OFFCURVE",
"44 532 CURVE SMOOTH",
"178 426 OFFCURVE",
"164 171 OFFCURVE",
"105 -67 CURVE SMOOTH"
);
}
);
width = 622.24096;
}
);
unicode = 05D8;
},
{
glyphname = "yod-hb";
lastChange = "2019-12-24 16:47:24 +0000";
layers = (
{
anchors = (
{
name = bottom;
position = "{130, 0}";
},
{
name = bottomleft;
position = "{20, 0}";
},
{
name = center;
position = "{66, 422}";
},
{
name = top;
position = "{120, 536}";
},
{
name = topleft;
position = "{30, 536}";
}
);
layerId = "B853D75E-14CD-4000-B7A0-02101202F42C";
paths = (
{
closed = 1;
nodes = (
"138 277 OFFCURVE",
"150 285 OFFCURVE",
"155 297 CURVE SMOOTH",
"183 370 OFFCURVE",
"194 434 OFFCURVE",
"184 539 CURVE SMOOTH",
"182 559 OFFCURVE",
"175 574 OFFCURVE",
"162 586 CURVE SMOOTH",
"139 608 OFFCURVE",
"96 618 OFFCURVE",
"39 631 CURVE SMOOTH",
"30 633 OFFCURVE",
"25 628 OFFCURVE",
"25 619 CURVE SMOOTH",
"25 608 OFFCURVE",
"29 598 OFFCURVE",
"43 595 CURVE SMOOTH",
"126 577 OFFCURVE",
"153 567 OFFCURVE",
"156 532 CURVE SMOOTH",
"166 418 OFFCURVE",
"150 364 OFFCURVE",
"126 295 CURVE SMOOTH",
"122 280 OFFCURVE",
"127 277 OFFCURVE",
"131 277 CURVE SMOOTH"
);
}
);
width = 240;
},
{
anchors = (
{
name = bottom;
position = "{194, 0}";
},
{
name = bottomleft;
position = "{14, 0}";
},
{
name = center;
position = "{90, 297}";
},
{
name = top;
position = "{170, 536}";
},
{
name = topleft;
position = "{51, 556}";
}
);
background = {
paths = (
{
closed = 1;
nodes = (
"206 186 OFFCURVE",
"233 191 OFFCURVE",
"243 224 CURVE SMOOTH",
"262 286 OFFCURVE",
"270 341 OFFCURVE",
"270 384 CURVE SMOOTH",
"270 433 OFFCURVE",
"258 511 OFFCURVE",
"230 543 CURVE SMOOTH",
"202 575 OFFCURVE",
"105 634 OFFCURVE",
"52 634 CURVE SMOOTH",
"28 634 OFFCURVE",
"30 554 OFFCURVE",
"40 508 CURVE SMOOTH",
"55 440 OFFCURVE",
"67 426 OFFCURVE",
"77 417 CURVE SMOOTH",
"137 379 OFFCURVE",
"203 363 OFFCURVE",
"203 301 CURVE SMOOTH",
"203 253 OFFCURVE",
"170 219 OFFCURVE",
"165 200 CURVE SMOOTH",
"164 188 OFFCURVE",
"172 186 OFFCURVE",
"183 186 CURVE SMOOTH"
);
}
);
};
layerId = "79F23985-86A9-4934-8BAF-8AAE7E0AB6FA";
paths = (
{
closed = 1;
nodes = (
"200 186 OFFCURVE",
"227 191 OFFCURVE",
"237 224 CURVE SMOOTH",
"250 267 OFFCURVE",
"262 316 OFFCURVE",
"262 349 CURVE SMOOTH",
"262 499 OFFCURVE",
"208 562 OFFCURVE",
"105 599 CURVE SMOOTH",
"91 604 OFFCURVE",
"77 604 OFFCURVE",
"63 604 CURVE SMOOTH",
"24 604 OFFCURVE",
"64 390 OFFCURVE",
"87 388 CURVE SMOOTH",
"97 387 OFFCURVE",
"108 385 OFFCURVE",
"118 384 CURVE SMOOTH",
"190 377 OFFCURVE",
"204 358 OFFCURVE",
"204 317 CURVE SMOOTH",
"203 268 OFFCURVE",
"161 220 OFFCURVE",
"159 200 CURVE SMOOTH",
"158 188 OFFCURVE",
"166 186 OFFCURVE",
"177 186 CURVE SMOOTH"
);
}
);
width = 295;
},
{
anchors = (
{
name = bottom;
position = "{162, 0}";
},
{
name = bottomleft;
position = "{17, 0}";
},
{
name = center;
position = "{78, 360}";
},
{
name = top;
position = "{145, 536}";
},
{
name = topleft;
position = "{40, 546}";
}
);
layerId = "6A5C4ED4-BBA5-4E07-B50E-1C6C5DE6A04B";
paths = (
{
closed = 1;
nodes = (
"169 232 OFFCURVE",
"188 239 OFFCURVE",
"196 261 CURVE SMOOTH",
"216 319 OFFCURVE",
"228 375 OFFCURVE",
"223 462 CURVE SMOOTH",
"222 505 OFFCURVE",
"209 556 OFFCURVE",
"195 572 CURVE SMOOTH",
"168 602 OFFCURVE",
"96 619 OFFCURVE",
"42 624 CURVE SMOOTH",
"26 624 OFFCURVE",
"26 588 OFFCURVE",
"31 561 CURVE SMOOTH",
"39 523 OFFCURVE",
"48 511 OFFCURVE",
"61 506 CURVE SMOOTH",
"137 472 OFFCURVE",
"178 487 OFFCURVE",
"179 433 CURVE SMOOTH",
"184 344 OFFCURVE",
"155 293 OFFCURVE",
"142 248 CURVE SMOOTH",
"140 235 OFFCURVE",
"146 232 OFFCURVE",
"154 232 CURVE SMOOTH"
);
}
);
width = 267.16867;
}
);
unicode = 05D9;
},
{
glyphname = "finalkaf-hb";
lastChange = "2019-12-24 17:22:19 +0000";
layers = (
{
anchors = (
{
name = bottom;
position = "{178, -6}";
},
{
name = bottomleft;
position = "{30, 0}";
},
{
name = center;
position = "{177, 310}";
},
{
name = top;
position = "{226, 536}";
},
{
name = topleft;
position = "{49, 536}";
}
);
layerId = "B853D75E-14CD-4000-B7A0-02101202F42C";
paths = (
{
closed = 1;
nodes = (
"373 565 OFFCURVE",
"372 578 OFFCURVE",
"369 585 CURVE SMOOTH",
"364 596 OFFCURVE",
"349 595 OFFCURVE",
"338 595 CURVE SMOOTH",
"231 590 OFFCURVE",
"130 589 OFFCURVE",
"75 592 CURVE SMOOTH",
"54 593 OFFCURVE",
"47 606 OFFCURVE",
"47 642 CURVE SMOOTH",
"47 650 OFFCURVE",
"32 654 OFFCURVE",
"30 646 CURVE SMOOTH",
"17 594 OFFCURVE",
"30 565 OFFCURVE",
"61 564 CURVE SMOOTH",
"115 562 OFFCURVE",
"269 564 OFFCURVE",
"337 567 CURVE SMOOTH",
"343 567 OFFCURVE",
"347 566 OFFCURVE",
"347 556 CURVE SMOOTH",
"347 493 OFFCURVE",
"324 431 OFFCURVE",
"324 287 CURVE SMOOTH",
"324 161 OFFCURVE",
"329 -127 OFFCURVE",
"331 -232 CURVE SMOOTH",
"331 -238 OFFCURVE",
"335 -240 OFFCURVE",
"339 -240 CURVE SMOOTH",
"348 -240 OFFCURVE",
"360 -231 OFFCURVE",
"360 -217 CURVE SMOOTH",
"358 45 OFFCURVE",
"349 204 OFFCURVE",
"350 286 CURVE SMOOTH",
"352 431 OFFCURVE",
"373 516 OFFCURVE",
"373 559 CURVE SMOOTH"
);
}
);
width = 430;
},
{
anchors = (
{
name = bottom;
position = "{75, 6}";
},
{
name = bottomleft;
position = "{75, 0}";
},
{
name = center;
position = "{165, 267}";
},
{
name = top;
position = "{270, 536}";
},
{
name = topleft;
position = "{-15, 536}";
}
);
layerId = "79F23985-86A9-4934-8BAF-8AAE7E0AB6FA";
paths = (
{
closed = 1;
nodes = (
"412 492 OFFCURVE",
"404 522 OFFCURVE",
"392 556 CURVE SMOOTH",
"381 588 OFFCURVE",
"360 599 OFFCURVE",
"288 594 CURVE SMOOTH",
"211 587 OFFCURVE",
"191 589 OFFCURVE",
"106 592 CURVE SMOOTH",
"85 593 OFFCURVE",
"81 611 OFFCURVE",
"79 640 CURVE SMOOTH",
"78 655 OFFCURVE",
"37 654 OFFCURVE",
"36 646 CURVE SMOOTH",
"22 532 OFFCURVE",
"38 396 OFFCURVE",
"120 391 CURVE SMOOTH",
"174 387 OFFCURVE",
"196 388 OFFCURVE",
"254 393 CURVE SMOOTH",
"270 394 OFFCURVE",
"327 396 OFFCURVE",
"327 366 CURVE SMOOTH",
"327 333 OFFCURVE",
"288 192 OFFCURVE",
"282 118 CURVE SMOOTH",
"275 33 OFFCURVE",
"283 -157 OFFCURVE",
"283 -220 CURVE SMOOTH",
"283 -237 OFFCURVE",
"289 -240 OFFCURVE",
"306 -240 CURVE SMOOTH",
"327 -240 OFFCURVE",
"386 -193 OFFCURVE",
"393 -131 CURVE SMOOTH",
"407 -3 OFFCURVE",
"336 83 OFFCURVE",
"351 184 CURVE SMOOTH",
"369 302 OFFCURVE",
"410 346 OFFCURVE",
"411 435 CURVE SMOOTH"
);
}
);
width = 450;
},
{
anchors = (
{
name = bottom;
position = "{127, 0}";
},
{
name = bottomleft;
position = "{52, 0}";
},
{
name = center;
position = "{171, 289}";
},
{
name = top;
position = "{248, 536}";
},
{
name = topleft;
position = "{17, 536}";
}
);
layerId = "6A5C4ED4-BBA5-4E07-B50E-1C6C5DE6A04B";
paths = (
{
closed = 1;
nodes = (
"392 529 OFFCURVE",
"388 550 OFFCURVE",
"380 571 CURVE SMOOTH",
"372 592 OFFCURVE",
"354 597 OFFCURVE",
"313 595 CURVE SMOOTH",
"221 589 OFFCURVE",
"160 589 OFFCURVE",
"90 592 CURVE SMOOTH",
"69 593 OFFCURVE",
"64 608 OFFCURVE",
"63 641 CURVE SMOOTH",
"62 652 OFFCURVE",
"34 654 OFFCURVE",
"33 646 CURVE SMOOTH",
"19 563 OFFCURVE",
"34 482 OFFCURVE",
"90 479 CURVE SMOOTH",
"144 476 OFFCURVE",
"233 477 OFFCURVE",
"296 481 CURVE SMOOTH",
"307 482 OFFCURVE",
"337 482 OFFCURVE",
"337 462 CURVE SMOOTH",
"337 414 OFFCURVE",
"306 313 OFFCURVE",
"303 204 CURVE SMOOTH",
"300 98 OFFCURVE",
"306 -142 OFFCURVE",
"307 -226 CURVE SMOOTH",
"307 -238 OFFCURVE",
"312 -240 OFFCURVE",
"323 -240 CURVE SMOOTH",
"338 -240 OFFCURVE",
"373 -212 OFFCURVE",
"376 -175 CURVE SMOOTH",
"382 21 OFFCURVE",
"343 144 OFFCURVE",
"350 236 CURVE SMOOTH",
"360 367 OFFCURVE",
"391 432 OFFCURVE",
"392 498 CURVE SMOOTH"
);
}
);
width = 439.87952;
}
);
unicode = 05DA;
},
{
glyphname = "kaf-hb";
lastChange = "2019-12-23 03:33:39 +0000";
layers = (
{
anchors = (
{
name = bottom;
position = "{233, 0}";
},
{
name = bottomleft;
position = "{60, 0}";
},
{
name = center;
position = "{215, 350}";
},
{
name = top;
position = "{232, 536}";
},
{
name = topleft;
position = "{49, 536}";
}
);
layerId = "B853D75E-14CD-4000-B7A0-02101202F42C";
paths = (
{
closed = 1;
nodes = (
"306 -12 OFFCURVE",
"416 148 OFFCURVE",
"418 318 CURVE SMOOTH",
"420 484 OFFCURVE",
"363 592 OFFCURVE",
"224 592 CURVE SMOOTH",
"189 592 OFFCURVE",
"153 592 OFFCURVE",
"118 592 CURVE SMOOTH",
"97 593 OFFCURVE",
"90 606 OFFCURVE",
"90 642 CURVE SMOOTH",
"90 650 OFFCURVE",
"75 654 OFFCURVE",
"73 646 CURVE SMOOTH",
"60 594 OFFCURVE",
"73 565 OFFCURVE",
"104 564 CURVE SMOOTH",
"145 564 OFFCURVE",
"185 564 OFFCURVE",
"226 564 CURVE SMOOTH",
"349 564 OFFCURVE",
"389 465 OFFCURVE",
"389 316 CURVE SMOOTH",
"389 163 OFFCURVE",
"284 16 OFFCURVE",
"92 16 CURVE SMOOTH",
"53 16 OFFCURVE",
"46 18 OFFCURVE",
"27 20 CURVE",
"27 -11 OFFCURVE",
"34 -12 OFFCURVE",
"64 -12 CURVE SMOOTH"
);
}
);
width = 449;
},
{
anchors = (
{
name = bottom;
position = "{332, 0}";
},
{
name = bottomleft;
position = "{84, 0}";
},
{
name = center;
position = "{248, 297}";
},
{
name = top;
position = "{335, 536}";
},
{
name = topleft;
position = "{104, 566}";
}
);
layerId = "79F23985-86A9-4934-8BAF-8AAE7E0AB6FA";
paths = (
{
closed = 1;
nodes = (
"317 -11 OFFCURVE",
"527 147 OFFCURVE",
"527 344 CURVE SMOOTH",
"527 461 OFFCURVE",
"468 583 OFFCURVE",
"352 592 CURVE SMOOTH",
"272 598 OFFCURVE",
"219 587 OFFCURVE",
"158 593 CURVE SMOOTH",
"137 595 OFFCURVE",
"133 612 OFFCURVE",
"131 641 CURVE SMOOTH",
"130 656 OFFCURVE",
"89 655 OFFCURVE",
"88 647 CURVE SMOOTH",
"74 533 OFFCURVE",
"90 397 OFFCURVE",
"172 392 CURVE SMOOTH",
"234 388 OFFCURVE",
"308 395 OFFCURVE",
"344 394 CURVE SMOOTH",
"426 392 OFFCURVE",
"466 367 OFFCURVE",
"466 315 CURVE SMOOTH",
"466 224 OFFCURVE",
"301 188 OFFCURVE",
"99 188 CURVE SMOOTH",
"60 188 OFFCURVE",
"53 190 OFFCURVE",
"34 192 CURVE",
"34 -4 OFFCURVE",
"52 -11 OFFCURVE",
"131 -11 CURVE SMOOTH"
);
}
);
width = 550;
},
{
anchors = (
{
name = bottom;
position = "{282, 0}";
},
{
name = bottomleft;
position = "{72, 0}";
},
{
name = center;
position = "{231, 324}";
},
{
name = top;
position = "{283, 536}";
},
{
name = topleft;
position = "{76, 551}";
}
);
layerId = "6A5C4ED4-BBA5-4E07-B50E-1C6C5DE6A04B";
paths = (
{
closed = 1;
nodes = (
"311 -12 OFFCURVE",
"471 148 OFFCURVE",
"472 331 CURVE SMOOTH",
"473 473 OFFCURVE",
"415 588 OFFCURVE",
"287 592 CURVE SMOOTH",
"230 595 OFFCURVE",
"186 590 OFFCURVE",
"138 592 CURVE SMOOTH",
"117 594 OFFCURVE",
"111 609 OFFCURVE",
"110 642 CURVE SMOOTH",
"110 653 OFFCURVE",
"82 654 OFFCURVE",
"80 646 CURVE SMOOTH",
"67 564 OFFCURVE",
"81 482 OFFCURVE",
"138 479 CURVE SMOOTH",
"189 477 OFFCURVE",
"246 481 OFFCURVE",
"284 480 CURVE SMOOTH",
"387 479 OFFCURVE",
"427 417 OFFCURVE",
"427 316 CURVE SMOOTH",
"427 193 OFFCURVE",
"292 101 OFFCURVE",
"95 101 CURVE SMOOTH",
"56 101 OFFCURVE",
"49 103 OFFCURVE",
"30 105 CURVE",
"30 -8 OFFCURVE",
"43 -12 OFFCURVE",
"97 -12 CURVE SMOOTH"
);
}
);
width = 498.89157;
}
);
unicode = 05DB;
},
{
glyphname = "lamed-hb";
lastChange = "2019-12-23 03:33:39 +0000";
layers = (
{
anchors = (
{
name = bottom;
position = "{224, 0}";
},
{
name = bottomleft;
position = "{68, 0}";
},
{
name = center;
position = "{188, 369}";
},
{
name = top;
position = "{264, 536}";
},
{
name = topleft;
position = "{-3, 536}";
}
);
background = {
paths = (
{
closed = 0;
nodes = (
"103 626 LINE",
"120 701 OFFCURVE",
"126 765 OFFCURVE",
"121 817 CURVE SMOOTH",
"119 837 OFFCURVE",
"111 852 OFFCURVE",
"98 864 CURVE SMOOTH",
"87 874 OFFCURVE",
"76 884 OFFCURVE",
"55 889 CURVE SMOOTH",
"46 891 OFFCURVE",
"41 886 OFFCURVE",
"41 877 CURVE SMOOTH",
"41 866 OFFCURVE",
"45 857 OFFCURVE",
"59 853 CURVE SMOOTH",
"78 848 OFFCURVE",
"90 834 OFFCURVE",
"92 810 CURVE SMOOTH",
"99 732 OFFCURVE",
"87 695 OFFCURVE",
"74 624 CURVE"
);
}
);
};
layerId = "B853D75E-14CD-4000-B7A0-02101202F42C";
paths = (
{
closed = 1;
nodes = (
"56 -12 OFFCURVE",
"63 -13 OFFCURVE",
"93 -13 CURVE SMOOTH",
"232 -13 OFFCURVE",
"332 155 OFFCURVE",
"332 334 CURVE SMOOTH",
"332 474 OFFCURVE",
"284 547 OFFCURVE",
"170 582 CURVE SMOOTH",
"134 592 OFFCURVE",
"120 604 OFFCURVE",
"120 637 CURVE SMOOTH",
"119 701 OFFCURVE",
"119 772 OFFCURVE",
"118 823 CURVE SMOOTH",
"118 844 OFFCURVE",
"113 857 OFFCURVE",
"100 866 CURVE SMOOTH",
"91 872 OFFCURVE",
"81 876 OFFCURVE",
"64 880 CURVE SMOOTH",
"55 882 OFFCURVE",
"50 877 OFFCURVE",
"50 868 CURVE SMOOTH",
"50 857 OFFCURVE",
"51 857 OFFCURVE",
"61 853 CURVE SMOOTH",
"81 845 OFFCURVE",
"92 839 OFFCURVE",
"92 821 CURVE SMOOTH",
"93 741 OFFCURVE",
"92 698 OFFCURVE",
"93 630 CURVE SMOOTH",
"93 585 OFFCURVE",
"127 566 OFFCURVE",
"158 558 CURVE SMOOTH",
"263 527 OFFCURVE",
"305 465 OFFCURVE",
"305 333 CURVE SMOOTH",
"305 181 OFFCURVE",
"220 15 OFFCURVE",
"101 15 CURVE SMOOTH",
"82 15 OFFCURVE",
"75 17 OFFCURVE",
"56 19 CURVE"
);
}
);
width = 373;
},
{
anchors = (
{
name = bottom;
position = "{236, 0}";
},
{
name = bottomleft;
position = "{13, 0}";
},
{
name = center;
position = "{164, 300}";
},
{
name = top;
position = "{300, 536}";
},
{
name = topleft;
position = "{-103, 536}";
}
);
layerId = "79F23985-86A9-4934-8BAF-8AAE7E0AB6FA";
paths = (
{
closed = 1;
nodes = (
"53 -3 OFFCURVE",
"71 -12 OFFCURVE",
"150 -12 CURVE SMOOTH",
"246 -12 OFFCURVE",
"359 62 OFFCURVE",
"359 307 CURVE SMOOTH",
"359 471 OFFCURVE",
"304 571 OFFCURVE",
"214 593 CURVE SMOOTH",
"164 605 OFFCURVE",
"157 630 OFFCURVE",
"157 657 CURVE SMOOTH",
"157 678 OFFCURVE",
"158 733 OFFCURVE",
"158 770 CURVE SMOOTH",
"158 805 OFFCURVE",
"151 838 OFFCURVE",
"127 855 CURVE SMOOTH",
"106 870 OFFCURVE",
"67 887 OFFCURVE",
"41 886 CURVE SMOOTH",
"17 885 OFFCURVE",
"21 825 OFFCURVE",
"29 781 CURVE SMOOTH",
"38 730 OFFCURVE",
"45 719 OFFCURVE",
"65 713 CURVE SMOOTH",
"87 706 OFFCURVE",
"100 700 OFFCURVE",
"100 653 CURVE SMOOTH",
"100 599 OFFCURVE",
"100 544 OFFCURVE",
"100 490 CURVE SMOOTH",
"100 439 OFFCURVE",
"133 413 OFFCURVE",
"165 408 CURVE SMOOTH",
"256 393 OFFCURVE",
"302 362 OFFCURVE",
"302 306 CURVE SMOOTH",
"302 244 OFFCURVE",
"217 190 OFFCURVE",
"98 190 CURVE SMOOTH",
"78 190 OFFCURVE",
"72 191 OFFCURVE",
"53 193 CURVE"
);
}
);
width = 382;
},
{
anchors = (
{
name = bottom;
position = "{230, 0}";
},
{
name = bottomleft;
position = "{41, 0}";
},
{
name = center;
position = "{176, 335}";
},
{
name = top;
position = "{282, 536}";
},
{
name = topleft;
position = "{-52, 536}";
}
);
layerId = "6A5C4ED4-BBA5-4E07-B50E-1C6C5DE6A04B";
paths = (
{
closed = 1;
nodes = (
"55 -8 OFFCURVE",
"67 -13 OFFCURVE",
"121 -13 CURVE SMOOTH",
"239 -13 OFFCURVE",
"345 109 OFFCURVE",
"345 321 CURVE SMOOTH",
"345 473 OFFCURVE",
"294 559 OFFCURVE",
"192 587 CURVE SMOOTH",
"149 598 OFFCURVE",
"138 617 OFFCURVE",
"138 647 CURVE SMOOTH",
"138 690 OFFCURVE",
"138 753 OFFCURVE",
"138 797 CURVE SMOOTH",
"138 825 OFFCURVE",
"132 848 OFFCURVE",
"113 861 CURVE SMOOTH",
"98 871 OFFCURVE",
"74 881 OFFCURVE",
"53 883 CURVE SMOOTH",
"36 883 OFFCURVE",
"36 851 OFFCURVE",
"40 825 CURVE SMOOTH",
"44 794 OFFCURVE",
"48 789 OFFCURVE",
"63 784 CURVE SMOOTH",
"84 776 OFFCURVE",
"96 770 OFFCURVE",
"96 738 CURVE SMOOTH",
"96 671 OFFCURVE",
"96 622 OFFCURVE",
"96 561 CURVE SMOOTH",
"96 513 OFFCURVE",
"130 490 OFFCURVE",
"161 484 CURVE SMOOTH",
"260 461 OFFCURVE",
"304 414 OFFCURVE",
"304 320 CURVE SMOOTH",
"304 212 OFFCURVE",
"219 101 OFFCURVE",
"100 101 CURVE SMOOTH",
"80 101 OFFCURVE",
"74 103 OFFCURVE",
"55 105 CURVE"
);
}
);
width = 377.44578;
}
);
unicode = 05DC;
},
{
glyphname = "finalmem-hb";
lastChange = "2019-12-23 12:31:03 +0000";
layers = (
{
anchors = (
{
name = bottom;
position = "{293, 0}";
},
{
name = bottomleft;
position = "{40, 0}";
},
{
name = center;
position = "{280, 340}";
},
{
name = top;
position = "{275, 536}";
},
{
name = topleft;
position = "{40, 536}";
}
);
layerId = "B853D75E-14CD-4000-B7A0-02101202F42C";
paths = (
{
closed = 1;
nodes = (
"432 -12 OFFCURVE",
"550 148 OFFCURVE",
"551 318 CURVE SMOOTH",
"553 484 OFFCURVE",
"495 592 OFFCURVE",
"355 592 CURVE SMOOTH",
"290 592 OFFCURVE",
"227 592 OFFCURVE",
"162 592 CURVE",
"144 593 OFFCURVE",
"137 606 OFFCURVE",
"137 642 CURVE SMOOTH",
"137 650 OFFCURVE",
"122 654 OFFCURVE",
"120 646 CURVE SMOOTH",
"117 636 OFFCURVE",
"116 626 OFFCURVE",
"116 617 CURVE SMOOTH",
"116 583 OFFCURVE",
"134 564 OFFCURVE",
"152 564 CURVE SMOOTH",
"169 564 LINE",
"128 505 OFFCURVE",
"97 428 OFFCURVE",
"97 299 CURVE SMOOTH",
"97 137 OFFCURVE",
"140 -12 OFFCURVE",
"277 -12 CURVE SMOOTH"
);
},
{
closed = 1;
nodes = (
"175 16 OFFCURVE",
"126 114 OFFCURVE",
"126 305 CURVE SMOOTH",
"126 415 OFFCURVE",
"158 500 OFFCURVE",
"197 564 CURVE",
"357 564 LINE SMOOTH",
"482 564 OFFCURVE",
"522 465 OFFCURVE",
"522 316 CURVE SMOOTH",
"522 163 OFFCURVE",
"413 16 OFFCURVE",
"285 16 CURVE SMOOTH"
);
}
);
width = 570;
},
{
anchors = (
{
name = bottom;
position = "{295, 0}";
},
{
name = bottomleft;
position = "{14, 0}";
},
{
name = center;
position = "{285, 297}";
},
{
name = top;
position = "{281, 536}";
},
{
name = topleft;
position = "{54, 566}";
}
);
layerId = "79F23985-86A9-4934-8BAF-8AAE7E0AB6FA";
paths = (
{
closed = 1;
nodes = (
"427 -12 OFFCURVE",
"538 185 OFFCURVE",
"539 337 CURVE SMOOTH",
"540 464 OFFCURVE",
"470 592 OFFCURVE",
"354 592 CURVE SMOOTH",
"280 592 OFFCURVE",
"191 593 OFFCURVE",
"107 593 CURVE SMOOTH",
"95 593 OFFCURVE",
"80 606 OFFCURVE",
"82 635 CURVE SMOOTH",
"83 653 OFFCURVE",
"40 657 OFFCURVE",
"38 647 CURVE SMOOTH",
"34 625 OFFCURVE",
"33 612 OFFCURVE",
"33 580 CURVE SMOOTH",
"33 473 OFFCURVE",
"66 394 OFFCURVE",
"109 394 CURVE SMOOTH",
"117 394 LINE",
"73 353 OFFCURVE",
"35 295 OFFCURVE",
"35 209 CURVE SMOOTH",
"35 97 OFFCURVE",
"105 -12 OFFCURVE",
"259 -12 CURVE SMOOTH"
);
},
{
closed = 1;
nodes = (
"144 182 OFFCURVE",
"114 217 OFFCURVE",
"114 279 CURVE SMOOTH",
"114 321 OFFCURVE",
"156 372 OFFCURVE",
"195 394 CURVE",
"355 394 LINE SMOOTH",
"443 394 OFFCURVE",
"478 360 OFFCURVE",
"478 315 CURVE SMOOTH",
"478 242 OFFCURVE",
"370 182 OFFCURVE",
"245 182 CURVE SMOOTH"
);
}
);
width = 574;
},
{
anchors = (
{
name = bottom;
position = "{294, 0}";
},
{
name = bottomleft;
position = "{27, 0}";
},
{
name = center;
position = "{282, 319}";
},
{
name = top;
position = "{278, 536}";
},
{
name = topleft;
position = "{47, 551}";
}
);
layerId = "6A5C4ED4-BBA5-4E07-B50E-1C6C5DE6A04B";
paths = (
{
closed = 1;
nodes = (
"437 -12 OFFCURVE",
"533 161 OFFCURVE",
"534 317 CURVE SMOOTH",
"536 470 OFFCURVE",
"465 592 OFFCURVE",
"321 592 CURVE SMOOTH",
"259 592 OFFCURVE",
"190 592 OFFCURVE",
"124 592 CURVE",
"109 593 OFFCURVE",
"98 606 OFFCURVE",
"99 639 CURVE SMOOTH",
"99 651 OFFCURVE",
"70 655 OFFCURVE",
"68 646 CURVE SMOOTH",
"65 631 OFFCURVE",
"64 619 OFFCURVE",
"64 599 CURVE SMOOTH",
"64 529 OFFCURVE",
"89 480 OFFCURVE",
"120 480 CURVE SMOOTH",
"132 480 LINE",
"90 430 OFFCURVE",
"55 362 OFFCURVE",
"55 255 CURVE SMOOTH",
"55 117 OFFCURVE",
"108 -12 OFFCURVE",
"274 -12 CURVE SMOOTH"
);
},
{
closed = 1;
nodes = (
"146 98 OFFCURVE",
"109 165 OFFCURVE",
"109 292 CURVE SMOOTH",
"109 369 OFFCURVE",
"146 437 OFFCURVE",
"185 480 CURVE",
"323 480 LINE SMOOTH",
"446 480 OFFCURVE",
"489 409 OFFCURVE",
"489 305 CURVE SMOOTH",
"489 197 OFFCURVE",
"399 98 OFFCURVE",
"271 98 CURVE SMOOTH"
);
}
);
width = 571.9759;
}
);
unicode = 05DD;
},
{
glyphname = "mem-hb";
lastChange = "2019-12-24 17:23:53 +0000";
layers = (
{
anchors = (
{
name = bottom;
position = "{265, 0}";
},
{
name = bottomleft;
position = "{72, 0}";
},
{
name = center;
position = "{281, 370}";
},
{
name = top;
position = "{288, 536}";
},
{
name = topleft;
position = "{11, 536}";
}
);
layerId = "B853D75E-14CD-4000-B7A0-02101202F42C";
paths = (
{
closed = 1;
nodes = (
"415 214 OFFCURVE",
"481 320 OFFCURVE",
"481 415 CURVE SMOOTH",
"481 511 OFFCURVE",
"418 604 OFFCURVE",
"279 604 CURVE SMOOTH",
"207 604 OFFCURVE",
"96 491 OFFCURVE",
"107 478 CURVE SMOOTH",
"110 474 OFFCURVE",
"115 455 OFFCURVE",
"118 460 CURVE SMOOTH",
"151 510 OFFCURVE",
"223 577 OFFCURVE",
"281 577 CURVE SMOOTH",
"395 577 OFFCURVE",
"454 500 OFFCURVE",
"454 414 CURVE SMOOTH",
"454 349 OFFCURVE",
"413 251 OFFCURVE",
"337 210 CURVE SMOOTH",
"320 201 OFFCURVE",
"310 193 OFFCURVE",
"310 182 CURVE SMOOTH",
"310 174 OFFCURVE",
"324 174 OFFCURVE",
"346 183 CURVE SMOOTH"
);
},
{
closed = 1;
nodes = (
"120 83 OFFCURVE",
"146 191 OFFCURVE",
"146 300 CURVE SMOOTH",
"146 403 OFFCURVE",
"123 507 OFFCURVE",
"72 600 CURVE SMOOTH",
"66 610 OFFCURVE",
"43 591 OFFCURVE",
"50 579 CURVE SMOOTH",
"97 491 OFFCURVE",
"119 396 OFFCURVE",
"119 301 CURVE SMOOTH",
"119 196 OFFCURVE",
"92 92 OFFCURVE",
"39 -4 CURVE SMOOTH",
"33 -16 OFFCURVE",
"61 -21 OFFCURVE",
"67 -11 CURVE SMOOTH"
);
}
);
width = 507;
},
{
anchors = (
{
name = bottom;
position = "{375, 0}";
},
{
name = bottomleft;
position = "{49, 0}";
},
{
name = center;
position = "{339, 278}";
},
{
name = top;
position = "{371, 536}";
},
{
name = topleft;
position = "{-8, 536}";
}
);
layerId = "79F23985-86A9-4934-8BAF-8AAE7E0AB6FA";
paths = (
{
closed = 1;
nodes = (
"477 61 OFFCURVE",
"581 247 OFFCURVE",
"581 365 CURVE SMOOTH",
"581 532 OFFCURVE",
"513 604 OFFCURVE",
"401 604 CURVE SMOOTH",
"289 604 OFFCURVE",
"164 427 OFFCURVE",
"164 394 CURVE SMOOTH",
"164 373 OFFCURVE",
"186 334 OFFCURVE",
"204 351 CURVE SMOOTH",
"251 387 OFFCURVE",
"301 406 OFFCURVE",
"386 406 CURVE SMOOTH",
"471 406 OFFCURVE",
"510 357 OFFCURVE",
"510 326 CURVE SMOOTH",
"510 231 OFFCURVE",
"437 186 OFFCURVE",
"388 174 CURVE SMOOTH",
"377 172 OFFCURVE",
"360 128 OFFCURVE",
"360 96 CURVE SMOOTH",
"360 76 OFFCURVE",
"366 61 OFFCURVE",
"383 61 CURVE SMOOTH"
);
},
{
closed = 1;
nodes = (
"182 61 OFFCURVE",
"210 168 OFFCURVE",
"210 309 CURVE SMOOTH",
"210 480 OFFCURVE",
"168 571 OFFCURVE",
"142 605 CURVE SMOOTH",
"119 638 OFFCURVE",
"-16 520 OFFCURVE",
"30 482 CURVE SMOOTH",
"105 419 OFFCURVE",
"150 369 OFFCURVE",
"150 288 CURVE SMOOTH",
"150 174 OFFCURVE",
"110 109 OFFCURVE",
"38 39 CURVE SMOOTH",
"-25 -18 OFFCURVE",
"99 -82 OFFCURVE",
"132 -31 CURVE SMOOTH"
);
}
);
width = 608;
},
{
anchors = (
{
name = bottom;
position = "{319, 0}";
},
{
name = bottomleft;
position = "{61, 0}";
},
{
name = center;
position = "{310, 325}";
},
{
name = top;
position = "{329, 536}";
},
{
name = topleft;
position = "{2, 536}";
}
);
layerId = "6A5C4ED4-BBA5-4E07-B50E-1C6C5DE6A04B";
paths = (
{
closed = 1;
nodes = (
"446 138 OFFCURVE",
"530 284 OFFCURVE",
"530 390 CURVE SMOOTH",
"530 521 OFFCURVE",
"465 604 OFFCURVE",
"339 604 CURVE SMOOTH",
"248 604 OFFCURVE",
"130 459 OFFCURVE",
"135 437 CURVE SMOOTH",
"137 424 OFFCURVE",
"150 395 OFFCURVE",
"160 406 CURVE SMOOTH",
"200 449 OFFCURVE",
"262 493 OFFCURVE",
"333 493 CURVE SMOOTH",
"433 493 OFFCURVE",
"482 429 OFFCURVE",
"482 371 CURVE SMOOTH",
"482 291 OFFCURVE",
"425 219 OFFCURVE",
"362 192 CURVE SMOOTH",
"348 187 OFFCURVE",
"335 161 OFFCURVE",
"335 140 CURVE SMOOTH",
"335 126 OFFCURVE",
"345 118 OFFCURVE",
"364 123 CURVE SMOOTH"
);
},
{
closed = 1;
nodes = (
"151 72 OFFCURVE",
"178 180 OFFCURVE",
"178 304 CURVE SMOOTH",
"178 441 OFFCURVE",
"145 539 OFFCURVE",
"107 602 CURVE SMOOTH",
"92 624 OFFCURVE",
"14 556 OFFCURVE",
"40 531 CURVE SMOOTH",
"101 455 OFFCURVE",
"134 383 OFFCURVE",
"134 295 CURVE SMOOTH",
"134 185 OFFCURVE",
"101 100 OFFCURVE",
"39 17 CURVE SMOOTH",
"4 -17 OFFCURVE",
"80 -51 OFFCURVE",
"99 -21 CURVE SMOOTH"
);
}
);
width = 556.89157;
}
);
unicode = 05DE;
},
{
glyphname = "finalnun-hb";
lastChange = "2019-12-24 17:34:55 +0000";
layers = (
{
anchors = (
{
name = bottomleft;
position = "{41, 0}";
},
{
name = center;
position = "{53, 300}";
},
{
name = top;
position = "{132, 536}";
},
{
name = topleft;
position = "{19, 536}";
}
);
layerId = "B853D75E-14CD-4000-B7A0-02101202F42C";
paths = (
{
closed = 1;
nodes = (
"169 -240 OFFCURVE",
"181 -231 OFFCURVE",
"181 -217 CURVE SMOOTH",
"179 45 OFFCURVE",
"172 204 OFFCURVE",
"172 286 CURVE SMOOTH",
"173 451 OFFCURVE",
"199 454 OFFCURVE",
"197 539 CURVE SMOOTH",
"197 559 OFFCURVE",
"187 574 OFFCURVE",
"174 586 CURVE SMOOTH",
"152 605 OFFCURVE",
"118 620 OFFCURVE",
"69 631 CURVE SMOOTH",
"60 633 OFFCURVE",
"55 628 OFFCURVE",
"55 619 CURVE SMOOTH",
"55 608 OFFCURVE",
"59 598 OFFCURVE",
"73 595 CURVE SMOOTH",
"143 581 OFFCURVE",
"168 567 OFFCURVE",
"168 532 CURVE SMOOTH",
"169 449 OFFCURVE",
"145 450 OFFCURVE",
"145 287 CURVE SMOOTH",
"145 161 OFFCURVE",
"150 -127 OFFCURVE",
"152 -232 CURVE SMOOTH",
"152 -238 OFFCURVE",
"156 -240 OFFCURVE",
"160 -240 CURVE SMOOTH"
);
}
);
width = 245;
},
{
anchors = (
{
name = bottomleft;
position = "{0, 0}";
},
{
name = center;
position = "{70, 290}";
},
{
name = top;
position = "{155, 536}";
},
{
name = topleft;
position = "{-5, 536}";
}
);
background = {
paths = (
{
closed = 1;
nodes = (
"191 -240 OFFCURVE",
"257 -193 OFFCURVE",
"264 -131 CURVE SMOOTH",
"278 -3 OFFCURVE",
"209 83 OFFCURVE",
"224 184 CURVE SMOOTH",
"231 231 OFFCURVE",
"285 344 OFFCURVE",
"280 433 CURVE SMOOTH",
"278 467 OFFCURVE",
"275 522 OFFCURVE",
"249 560 CURVE SMOOTH",
"223 598 OFFCURVE",
"111 621 OFFCURVE",
"51 616 CURVE SMOOTH",
"27 614 OFFCURVE",
"34 547 OFFCURVE",
"44 502 CURVE SMOOTH",
"57 442 OFFCURVE",
"74 432 OFFCURVE",
"85 424 CURVE SMOOTH",
"149 378 OFFCURVE",
"200 401 OFFCURVE",
"200 331 CURVE SMOOTH",
"200 319 OFFCURVE",
"199 304 OFFCURVE",
"196 285 CURVE SMOOTH",
"186 232 OFFCURVE",
"154 195 OFFCURVE",
"145 118 CURVE SMOOTH",
"135 33 OFFCURVE",
"154 -157 OFFCURVE",
"147 -220 CURVE SMOOTH",
"145 -237 OFFCURVE",
"153 -240 OFFCURVE",
"161 -240 CURVE SMOOTH"
);
}
);
};
layerId = "79F23985-86A9-4934-8BAF-8AAE7E0AB6FA";
paths = (
{
closed = 1;
nodes = (
"191 -240 OFFCURVE",
"257 -193 OFFCURVE",
"264 -131 CURVE SMOOTH",
"277 -16 OFFCURVE",
"222 66 OFFCURVE",
"222 154 CURVE SMOOTH",
"222 189 OFFCURVE",
"278 344 OFFCURVE",
"278 434 CURVE SMOOTH",
"278 474 OFFCURVE",
"269 522 OFFCURVE",
"255 545 CURVE SMOOTH",
"228 589 OFFCURVE",
"119 623 OFFCURVE",
"58 621 CURVE SMOOTH",
"34 621 OFFCURVE",
"38 560 OFFCURVE",
"46 515 CURVE SMOOTH",
"55 454 OFFCURVE",
"72 443 OFFCURVE",
"82 435 CURVE SMOOTH",
"145 384 OFFCURVE",
"193 400 OFFCURVE",
"193 337 CURVE SMOOTH",
"193 241 OFFCURVE",
"145 171 OFFCURVE",
"145 90 CURVE SMOOTH",
"145 33 OFFCURVE",
"154 -157 OFFCURVE",
"147 -220 CURVE SMOOTH",
"145 -237 OFFCURVE",
"153 -240 OFFCURVE",
"161 -240 CURVE SMOOTH"
);
}
);
width = 310;
},
{
anchors = (
{
name = bottomleft;
position = "{0, 0}";
},
{
name = center;
position = "{80, 260}";
},
{
name = top;
position = "{155, 536}";
},
{
name = topleft;
position = "{-5, 536}";
}
);
associatedMasterId = "79F23985-86A9-4934-8BAF-8AAE7E0AB6FA";
background = {
paths = (
{
closed = 1;
nodes = (
"280 492 OFFCURVE",
"272 522 OFFCURVE",
"260 556 CURVE SMOOTH",
"249 588 OFFCURVE",
"230 598 OFFCURVE",
"178 593 CURVE SMOOTH",
"140 590 OFFCURVE",
"133 590 OFFCURVE",
"114 592 CURVE SMOOTH",
"93 593 OFFCURVE",
"89 611 OFFCURVE",
"90 640 CURVE SMOOTH",
"90 655 OFFCURVE",
"49 654 OFFCURVE",
"48 646 CURVE SMOOTH",
"30 532 OFFCURVE",
"46 396 OFFCURVE",
"118 391 CURVE SMOOTH",
"138 390 OFFCURVE",
"147 391 OFFCURVE",
"162 393 CURVE SMOOTH",
"175 395 OFFCURVE",
"195 396 OFFCURVE",
"195 366 CURVE SMOOTH",
"195 333 OFFCURVE",
"158 192 OFFCURVE",
"152 118 CURVE SMOOTH",
"151 33 OFFCURVE",
"154 -157 OFFCURVE",
"153 -220 CURVE SMOOTH",
"151 -237 OFFCURVE",
"159 -240 OFFCURVE",
"171 -240 CURVE SMOOTH",
"197 -240 OFFCURVE",
"256 -193 OFFCURVE",
"263 -131 CURVE SMOOTH",
"277 -3 OFFCURVE",
"206 83 OFFCURVE",
"221 184 CURVE SMOOTH",
"239 302 OFFCURVE",
"277 346 OFFCURVE",
"279 435 CURVE SMOOTH"
);
}
);
};
layerId = "D3E6E596-35C0-4B11-97EA-7E65DA5E16ED";
name = "Dec 22 19, 17:34";
paths = (
{
closed = 1;
nodes = (
"191 -240 OFFCURVE",
"257 -193 OFFCURVE",
"264 -131 CURVE SMOOTH",
"278 -3 OFFCURVE",
"209 83 OFFCURVE",
"224 184 CURVE SMOOTH",
"231 231 OFFCURVE",
"285 344 OFFCURVE",
"280 433 CURVE SMOOTH",
"278 467 OFFCURVE",
"275 522 OFFCURVE",
"249 560 CURVE SMOOTH",
"223 598 OFFCURVE",
"111 621 OFFCURVE",
"51 616 CURVE SMOOTH",
"27 614 OFFCURVE",
"34 547 OFFCURVE",
"44 502 CURVE SMOOTH",
"57 442 OFFCURVE",
"74 432 OFFCURVE",
"85 424 CURVE SMOOTH",
"149 378 OFFCURVE",
"200 401 OFFCURVE",
"200 331 CURVE SMOOTH",
"200 319 OFFCURVE",
"199 304 OFFCURVE",
"196 285 CURVE SMOOTH",
"186 233 OFFCURVE",
"154 195 OFFCURVE",
"145 118 CURVE SMOOTH",
"135 33 OFFCURVE",
"154 -157 OFFCURVE",
"147 -220 CURVE SMOOTH",
"145 -237 OFFCURVE",
"153 -240 OFFCURVE",
"161 -240 CURVE SMOOTH"
);
}
);
width = 310;
},
{
anchors = (
{
name = bottomleft;
position = "{21, 0}";
},
{
name = center;
position = "{61, 295}";
},
{
name = top;
position = "{143, 536}";
},
{
name = topleft;
position = "{7, 536}";
}
);
layerId = "6A5C4ED4-BBA5-4E07-B50E-1C6C5DE6A04B";
paths = (
{
closed = 1;
nodes = (
"180 -240 OFFCURVE",
"219 -212 OFFCURVE",
"222 -175 CURVE SMOOTH",
"227 15 OFFCURVE",
"197 136 OFFCURVE",
"197 221 CURVE SMOOTH",
"197 322 OFFCURVE",
"238 400 OFFCURVE",
"237 487 CURVE SMOOTH",
"237 517 OFFCURVE",
"228 548 OFFCURVE",
"214 566 CURVE SMOOTH",
"190 597 OFFCURVE",
"118 621 OFFCURVE",
"64 626 CURVE SMOOTH",
"47 627 OFFCURVE",
"47 594 OFFCURVE",
"51 568 CURVE SMOOTH",
"55 532 OFFCURVE",
"65 521 OFFCURVE",
"77 516 CURVE SMOOTH",
"144 484 OFFCURVE",
"180 485 OFFCURVE",
"180 436 CURVE SMOOTH",
"181 346 OFFCURVE",
"145 312 OFFCURVE",
"145 190 CURVE SMOOTH",
"145 98 OFFCURVE",
"152 -142 OFFCURVE",
"150 -226 CURVE SMOOTH",
"149 -238 OFFCURVE",
"155 -240 OFFCURVE",
"160 -240 CURVE SMOOTH"
);
}
);
width = 277.10843;
}
);
unicode = 05DF;
},
{
glyphname = "nun-hb";
lastChange = "2019-12-24 17:20:34 +0000";
layers = (
{
anchors = (
{
name = bottom;
position = "{157, 0}";
},
{
name = bottomleft;
position = "{0, -10}";
},
{
name = center;
position = "{96, 340}";
},
{
name = top;
position = "{152, 536}";
},
{
name = topleft;
position = "{15, 536}";
}
);
layerId = "B853D75E-14CD-4000-B7A0-02101202F42C";
paths = (
{
closed = 1;
nodes = (
"182 563 OFFCURVE",
"223 484 OFFCURVE",
"223 303 CURVE SMOOTH",
"223 126 OFFCURVE",
"144 16 OFFCURVE",
"47 16 CURVE SMOOTH",
"35 16 OFFCURVE",
"29 17 OFFCURVE",
"22 18 CURVE",
"22 -8 OFFCURVE",
"29 -11 OFFCURVE",
"39 -11 CURVE SMOOTH",
"197 -12 OFFCURVE",
"251 147 OFFCURVE",
"251 313 CURVE SMOOTH",
"251 499 OFFCURVE",
"209 578 OFFCURVE",
"150 594 CURVE SMOOTH",
"110 604 OFFCURVE",
"96 604 OFFCURVE",
"82 604 CURVE SMOOTH",
"73 604 OFFCURVE",
"73 578 OFFCURVE",
"86 576 CURVE SMOOTH",
"137 569 LINE SMOOTH"
);
}
);
width = 315;
},
{
anchors = (
{
name = bottom;
position = "{187, 0}";
},
{
name = bottomleft;
position = "{-28, 0}";
},
{
name = center;
position = "{147, 297}";
},
{
name = top;
position = "{238, 536}";
},
{
name = topleft;
position = "{15, 536}";
}
);
layerId = "79F23985-86A9-4934-8BAF-8AAE7E0AB6FA";
paths = (
{
closed = 1;
nodes = (
"236 375 OFFCURVE",
"250 358 OFFCURVE",
"250 303 CURVE SMOOTH",
"250 233 OFFCURVE",
"177 188 OFFCURVE",
"104 188 CURVE SMOOTH",
"72 188 OFFCURVE",
"58 190 OFFCURVE",
"39 192 CURVE",
"39 -4 OFFCURVE",
"77 -11 OFFCURVE",
"126 -11 CURVE SMOOTH",
"228 -12 OFFCURVE",
"308 147 OFFCURVE",
"308 313 CURVE SMOOTH",
"308 499 OFFCURVE",
"254 562 OFFCURVE",
"160 595 CURVE SMOOTH",
"137 603 OFFCURVE",
"123 604 OFFCURVE",
"109 604 CURVE SMOOTH",
"70 604 OFFCURVE",
"110 397 OFFCURVE",
"133 393 CURVE SMOOTH",
"163 388 LINE SMOOTH"
);
}
);
width = 332;
},
{
anchors = (
{
name = bottom;
position = "{164, 0}";
},
{
name = bottomleft;
position = "{-21, -5}";
},
{
name = center;
position = "{114, 319}";
},
{
name = top;
position = "{187, 536}";
},
{
name = topleft;
position = "{8, 536}";
}
);
layerId = "6A5C4ED4-BBA5-4E07-B50E-1C6C5DE6A04B";
paths = (
{
closed = 1;
nodes = (
"201 470 OFFCURVE",
"229 422 OFFCURVE",
"229 303 CURVE SMOOTH",
"229 179 OFFCURVE",
"153 101 OFFCURVE",
"68 101 CURVE SMOOTH",
"46 101 OFFCURVE",
"36 102 OFFCURVE",
"23 104 CURVE",
"23 -6 OFFCURVE",
"45 -11 OFFCURVE",
"75 -11 CURVE SMOOTH",
"205 -12 OFFCURVE",
"272 147 OFFCURVE",
"272 313 CURVE SMOOTH",
"272 499 OFFCURVE",
"224 571 OFFCURVE",
"143 596 CURVE SMOOTH",
"116 604 OFFCURVE",
"102 604 OFFCURVE",
"88 604 CURVE SMOOTH",
"64 604 OFFCURVE",
"84 486 OFFCURVE",
"102 483 CURVE SMOOTH",
"143 478 LINE SMOOTH"
);
}
);
width = 315.98795;
}
);
unicode = 05E0;
},
{
glyphname = "samekh-hb";
lastChange = "2019-12-23 12:51:47 +0000";
layers = (
{
anchors = (
{
name = bottom;
position = "{325, 0}";
},
{
name = bottomleft;
position = "{134, -50}";
},
{
name = center;
position = "{322, 340}";
},
{
name = top;
position = "{332, 536}";
},
{
name = topleft;
position = "{79, 536}";
}
);
background = {
paths = (
{
closed = 1;
nodes = (
"469 -12 OFFCURVE",
"550 138 OFFCURVE",
"551 298 CURVE SMOOTH",
"552 476 OFFCURVE",
"482 592 OFFCURVE",
"311 592 CURVE SMOOTH",
"261 592 OFFCURVE",
"212 592 OFFCURVE",
"162 592 CURVE",
"144 593 OFFCURVE",
"137 606 OFFCURVE",
"137 642 CURVE SMOOTH",
"137 650 OFFCURVE",
"122 654 OFFCURVE",
"120 646 CURVE SMOOTH",
"117 636 OFFCURVE",
"116 626 OFFCURVE",
"116 617 CURVE SMOOTH",
"116 583 OFFCURVE",
"134 564 OFFCURVE",
"152 564 CURVE SMOOTH",
"169 564 LINE",
"128 505 OFFCURVE",
"97 428 OFFCURVE",
"97 299 CURVE SMOOTH",
"97 137 OFFCURVE",
"134 -12 OFFCURVE",
"311 -12 CURVE SMOOTH"
);
},
{
closed = 1;
nodes = (
"171 16 OFFCURVE",
"126 114 OFFCURVE",
"126 305 CURVE SMOOTH",
"126 415 OFFCURVE",
"158 500 OFFCURVE",
"197 564 CURVE",
"313 564 LINE SMOOTH",
"471 564 OFFCURVE",
"522 457 OFFCURVE",
"522 296 CURVE SMOOTH",
"522 153 OFFCURVE",
"450 16 OFFCURVE",
"319 16 CURVE SMOOTH"
);
}
);
};
layerId = "B853D75E-14CD-4000-B7A0-02101202F42C";
paths = (
{
closed = 1;
nodes = (
"97 278 LINE",
"97 167 OFFCURVE",
"130 63 OFFCURVE",
"111 -78 CURVE SMOOTH",
"110 -85 OFFCURVE",
"116 -89 OFFCURVE",
"123 -89 CURVE SMOOTH",
"130 -89 OFFCURVE",
"138 -85 OFFCURVE",
"139 -78 CURVE SMOOTH",
"156 60 OFFCURVE",
"124 200 OFFCURVE",
"122 259 CURVE"
);
},
{
closed = 1;
nodes = (
"469 -12 OFFCURVE",
"550 138 OFFCURVE",
"551 298 CURVE SMOOTH",
"552 476 OFFCURVE",
"482 592 OFFCURVE",
"311 592 CURVE SMOOTH",
"261 592 OFFCURVE",
"212 592 OFFCURVE",
"162 592 CURVE",
"144 593 OFFCURVE",
"137 606 OFFCURVE",
"137 642 CURVE SMOOTH",
"137 650 OFFCURVE",
"122 654 OFFCURVE",
"120 646 CURVE SMOOTH",
"117 636 OFFCURVE",
"116 626 OFFCURVE",
"116 617 CURVE SMOOTH",
"116 583 OFFCURVE",
"134 564 OFFCURVE",
"152 564 CURVE SMOOTH",
"169 564 LINE",
"128 505 OFFCURVE",
"97 428 OFFCURVE",
"97 299 CURVE SMOOTH",
"97 137 OFFCURVE",
"134 -12 OFFCURVE",
"311 -12 CURVE SMOOTH"
);
},
{
closed = 1;
nodes = (
"171 16 OFFCURVE",
"126 114 OFFCURVE",
"126 305 CURVE SMOOTH",
"126 415 OFFCURVE",
"158 500 OFFCURVE",
"197 564 CURVE",
"313 564 LINE SMOOTH",
"471 564 OFFCURVE",
"522 457 OFFCURVE",
"522 296 CURVE SMOOTH",
"522 153 OFFCURVE",
"450 16 OFFCURVE",
"319 16 CURVE SMOOTH"
);
}
);
width = 590;
},
{
anchors = (
{
name = bottom;
position = "{347, 0}";
},
{
name = bottomleft;
position = "{34, 0}";
},
{
name = center;
position = "{324, 297}";
},
{
name = top;
position = "{347, 536}";
},
{
name = topleft;
position = "{82, 566}";
}
);
layerId = "79F23985-86A9-4934-8BAF-8AAE7E0AB6FA";
paths = (
{
closed = 1;
nodes = (
"59 209 LINE",
"59 130 OFFCURVE",
"88 37 OFFCURVE",
"64 -93 CURVE SMOOTH",
"62 -104 OFFCURVE",
"71 -107 OFFCURVE",
"82 -107 CURVE SMOOTH",
"105 -107 OFFCURVE",
"139 -102 OFFCURVE",
"142 -68 CURVE SMOOTH",
"153 61 OFFCURVE",
"126 200 OFFCURVE",
"124 259 CURVE"
);
},
{
closed = 1;
nodes = (
"491 -12 OFFCURVE",
"562 133 OFFCURVE",
"563 287 CURVE SMOOTH",
"564 472 OFFCURVE",
"497 592 OFFCURVE",
"318 592 CURVE SMOOTH",
"255 592 OFFCURVE",
"188 593 OFFCURVE",
"125 593 CURVE SMOOTH",
"113 593 OFFCURVE",
"98 606 OFFCURVE",
"100 635 CURVE SMOOTH",
"101 653 OFFCURVE",
"58 657 OFFCURVE",
"56 647 CURVE SMOOTH",
"52 625 OFFCURVE",
"51 612 OFFCURVE",
"51 580 CURVE SMOOTH",
"51 473 OFFCURVE",
"84 394 OFFCURVE",
"127 394 CURVE SMOOTH",
"141 394 LINE",
"97 353 OFFCURVE",
"59 295 OFFCURVE",
"59 209 CURVE SMOOTH",
"59 97 OFFCURVE",
"129 -12 OFFCURVE",
"313 -12 CURVE SMOOTH"
);
},
{
closed = 1;
nodes = (
"169 172 OFFCURVE",
"128 207 OFFCURVE",
"128 279 CURVE SMOOTH",
"128 321 OFFCURVE",
"170 372 OFFCURVE",
"209 394 CURVE",
"305 394 LINE SMOOTH",
"439 394 OFFCURVE",
"493 351 OFFCURVE",
"493 285 CURVE SMOOTH",
"493 223 OFFCURVE",
"445 172 OFFCURVE",
"309 172 CURVE SMOOTH"
);
}
);
width = 608;
},
{
anchors = (
{
name = bottom;
position = "{336, 0}";
},
{
name = bottomleft;
position = "{85, -25}";
},
{
name = center;
position = "{323, 319}";
},
{
name = top;
position = "{339, 536}";
},
{
name = topleft;
position = "{80, 551}";
}
);
layerId = "6A5C4ED4-BBA5-4E07-B50E-1C6C5DE6A04B";
paths = (
{
closed = 1;
nodes = (
"78 244 LINE",
"78 149 OFFCURVE",
"109 50 OFFCURVE",
"88 -85 CURVE SMOOTH",
"86 -94 OFFCURVE",
"94 -98 OFFCURVE",
"103 -98 CURVE SMOOTH",
"118 -98 OFFCURVE",
"138 -93 OFFCURVE",
"140 -73 CURVE SMOOTH",
"155 60 OFFCURVE",
"125 200 OFFCURVE",
"123 259 CURVE"
);
},
{
closed = 1;
nodes = (
"473 -12 OFFCURVE",
"556 141 OFFCURVE",
"557 317 CURVE SMOOTH",
"558 470 OFFCURVE",
"488 592 OFFCURVE",
"344 592 CURVE SMOOTH",
"282 592 OFFCURVE",
"213 592 OFFCURVE",
"147 592 CURVE",
"132 593 OFFCURVE",
"122 606 OFFCURVE",
"122 639 CURVE SMOOTH",
"122 651 OFFCURVE",
"93 655 OFFCURVE",
"91 646 CURVE SMOOTH",
"88 631 OFFCURVE",
"87 619 OFFCURVE",
"87 599 CURVE SMOOTH",
"87 529 OFFCURVE",
"112 480 OFFCURVE",
"143 480 CURVE SMOOTH",
"155 480 LINE",
"113 430 OFFCURVE",
"78 362 OFFCURVE",
"78 255 CURVE SMOOTH",
"78 117 OFFCURVE",
"142 -12 OFFCURVE",
"323 -12 CURVE SMOOTH"
);
},
{
closed = 1;
nodes = (
"180 98 OFFCURVE",
"132 165 OFFCURVE",
"132 292 CURVE SMOOTH",
"132 369 OFFCURVE",
"169 437 OFFCURVE",
"208 480 CURVE",
"346 480 LINE SMOOTH",
"469 480 OFFCURVE",
"512 409 OFFCURVE",
"512 305 CURVE SMOOTH",
"512 177 OFFCURVE",
"436 98 OFFCURVE",
"320 98 CURVE SMOOTH"
);
}
);
width = 598.89157;
}
);
unicode = 05E1;
},
{
glyphname = "ayin-hb";
lastChange = "2019-12-24 16:56:22 +0000";
layers = (
{
anchors = (
{
name = bottom;
position = "{287, 0}";
},
{
name = bottomleft;
position = "{85, 0}";
},
{
name = center;
position = "{306, 369}";
},
{
name = top;
position = "{230, 536}";
},
{
name = topleft;
position = "{10, 536}";
}
);
layerId = "B853D75E-14CD-4000-B7A0-02101202F42C";
paths = (
{
closed = 1;
nodes = (
"307 -11 OFFCURVE",
"469 127 OFFCURVE",
"469 349 CURVE SMOOTH",
"469 466 OFFCURVE",
"450 513 OFFCURVE",
"432 534 CURVE SMOOTH",
"408 563 OFFCURVE",
"398 570 OFFCURVE",
"332 606 CURVE SMOOTH",
"323 611 OFFCURVE",
"318 606 OFFCURVE",
"318 597 CURVE SMOOTH",
"318 586 OFFCURVE",
"322 576 OFFCURVE",
"364 554 CURVE SMOOTH",
"420 525 OFFCURVE",
"441 485 OFFCURVE",
"441 349 CURVE SMOOTH",
"441 143 OFFCURVE",
"291 17 OFFCURVE",
"59 17 CURVE SMOOTH",
"50 17 OFFCURVE",
"41 19 OFFCURVE",
"32 21 CURVE",
"32 -10 OFFCURVE",
"40 -11 OFFCURVE",
"47 -11 CURVE SMOOTH"
);
},
{
closed = 1;
nodes = (
"227 229 OFFCURVE",
"219 481 OFFCURVE",
"111 601 CURVE SMOOTH",
"104 610 OFFCURVE",
"80 592 OFFCURVE",
"90 581 CURVE SMOOTH",
"194 475 OFFCURVE",
"199 232 OFFCURVE",
"141 33 CURVE SMOOTH",
"133 1 OFFCURVE",
"163 4 OFFCURVE",
"168 24 CURVE SMOOTH"
);
}
);
width = 526;
},
{
anchors = (
{
name = bottom;
position = "{319, 0}";
},
{
name = bottomleft;
position = "{39, 0}";
},
{
name = center;
position = "{354, 315}";
},
{
name = top;
position = "{312, 536}";
},
{
name = topleft;
position = "{13, 536}";
}
);
layerId = "79F23985-86A9-4934-8BAF-8AAE7E0AB6FA";
paths = (
{
closed = 1;
nodes = (
"481 213 OFFCURVE",
"150 188 OFFCURVE",
"85 188 CURVE SMOOTH",
"46 188 OFFCURVE",
"39 190 OFFCURVE",
"20 192 CURVE",
"20 -4 OFFCURVE",
"38 -11 OFFCURVE",
"117 -11 CURVE SMOOTH",
"347 -12 OFFCURVE",
"540 167 OFFCURVE",
"540 349 CURVE SMOOTH",
"540 499 OFFCURVE",
"494 566 OFFCURVE",
"403 599 CURVE SMOOTH",
"389 604 OFFCURVE",
"375 604 OFFCURVE",
"361 604 CURVE SMOOTH",
"322 604 OFFCURVE",
"362 390 OFFCURVE",
"385 388 CURVE SMOOTH",
"395 387 OFFCURVE",
"406 385 OFFCURVE",
"416 384 CURVE SMOOTH",
"471 379 OFFCURVE",
"481 358 OFFCURVE",
"481 324 CURVE SMOOTH"
);
},
{
closed = 1;
nodes = (
"270 246 OFFCURVE",
"288 515 OFFCURVE",
"195 604 CURVE",
"172 637 OFFCURVE",
"29 509 OFFCURVE",
"83 481 CURVE SMOOTH",
"230 405 OFFCURVE",
"218 251 OFFCURVE",
"198 135 CURVE SMOOTH",
"192 101 OFFCURVE",
"255 97 OFFCURVE",
"261 156 CURVE SMOOTH"
);
}
);
width = 559;
},
{
anchors = (
{
name = bottom;
position = "{303, 0}";
},
{
name = bottomleft;
position = "{62, 0}";
},
{
name = center;
position = "{330, 342}";
},
{
name = top;
position = "{271, 536}";
},
{
name = topleft;
position = "{11, 536}";
}
);
layerId = "6A5C4ED4-BBA5-4E07-B50E-1C6C5DE6A04B";
paths = (
{
closed = 1;
nodes = (
"327 -11 OFFCURVE",
"504 147 OFFCURVE",
"504 346 CURVE SMOOTH",
"504 458 OFFCURVE",
"485 513 OFFCURVE",
"464 535 CURVE SMOOTH",
"442 560 OFFCURVE",
"397 587 OFFCURVE",
"346 605 CURVE SMOOTH",
"327 608 OFFCURVE",
"326 569 OFFCURVE",
"329 554 CURVE SMOOTH",
"337 517 OFFCURVE",
"348 501 OFFCURVE",
"376 484 CURVE SMOOTH",
"420 455 OFFCURVE",
"461 432 OFFCURVE",
"461 341 CURVE SMOOTH",
"461 178 OFFCURVE",
"221 101 OFFCURVE",
"72 101 CURVE SMOOTH",
"48 101 OFFCURVE",
"40 103 OFFCURVE",
"26 105 CURVE",
"26 -7 OFFCURVE",
"39 -11 OFFCURVE",
"82 -11 CURVE SMOOTH"
);
},
{
closed = 1;
nodes = (
"248 237 OFFCURVE",
"253 498 OFFCURVE",
"152 602 CURVE SMOOTH",
"138 623 OFFCURVE",
"55 551 OFFCURVE",
"87 532 CURVE SMOOTH",
"212 440 OFFCURVE",
"208 241 OFFCURVE",
"169 83 CURVE SMOOTH",
"162 50 OFFCURVE",
"208 50 OFFCURVE",
"214 89 CURVE SMOOTH"
);
}
);
width = 542.3012;
}
);
unicode = 05E2;
},
{
glyphname = "finalpe-hb";
lastChange = "2019-12-23 03:33:39 +0000";
layers = (
{
anchors = (
{
name = bottomleft;
position = "{159, 0}";
},
{
name = center;
position = "{256, 358}";
},
{
name = top;
position = "{252, 536}";
},
{
name = topleft;
position = "{62, 536}";
}
);
layerId = "B853D75E-14CD-4000-B7A0-02101202F42C";
paths = (
{
closed = 1;
nodes = (
"392 13 OFFCURVE",
"390 113 OFFCURVE",
"391 170 CURVE SMOOTH",
"392 273 OFFCURVE",
"456 349 OFFCURVE",
"456 427 CURVE SMOOTH",
"456 482 OFFCURVE",
"431 525 OFFCURVE",
"382 553 CURVE SMOOTH",
"334 580 OFFCURVE",
"297 597 OFFCURVE",
"247 597 CURVE SMOOTH",
"213 597 OFFCURVE",
"167 560 OFFCURVE",
"131 509 CURVE SMOOTH",
"70 421 OFFCURVE",
"24 292 OFFCURVE",
"79 242 CURVE SMOOTH",
"112 212 OFFCURVE",
"143 203 OFFCURVE",
"178 195 CURVE SMOOTH",
"196 191 OFFCURVE",
"197 218 OFFCURVE",
"189 220 CURVE SMOOTH",
"131 234 OFFCURVE",
"83 258 OFFCURVE",
"83 310 CURVE SMOOTH",
"83 404 OFFCURVE",
"187 570 OFFCURVE",
"247 570 CURVE SMOOTH",
"297 570 OFFCURVE",
"329 551 OFFCURVE",
"376 523 CURVE SMOOTH",
"410 503 OFFCURVE",
"429 469 OFFCURVE",
"429 434 CURVE SMOOTH",
"429 353 OFFCURVE",
"364 265 OFFCURVE",
"364 168 CURVE SMOOTH",
"364 72 OFFCURVE",
"376 -126 OFFCURVE",
"387 -235 CURVE SMOOTH",
"387 -238 OFFCURVE",
"389 -240 OFFCURVE",
"393 -240 CURVE SMOOTH",
"401 -240 OFFCURVE",
"416 -228 OFFCURVE",
"415 -221 CURVE SMOOTH"
);
}
);
width = 518;
},
{
anchors = (
{
name = bottomleft;
position = "{119, 0}";
},
{
name = center;
position = "{266, 360}";
},
{
name = top;
position = "{309, 546}";
},
{
name = topleft;
position = "{19, 536}";
}
);
background = {
components = (
{
name = "finalnun-hb";
transform = "{1, 0, 0, 1, 210, 0}";
}
);
};
layerId = "79F23985-86A9-4934-8BAF-8AAE7E0AB6FA";
paths = (
{
closed = 1;
nodes = (
"488 -3 OFFCURVE",
"422 83 OFFCURVE",
"437 184 CURVE SMOOTH",
"444 230 OFFCURVE",
"487 344 OFFCURVE",
"487 433 CURVE SMOOTH",
"487 474 OFFCURVE",
"479 522 OFFCURVE",
"465 545 CURVE SMOOTH",
"438 589 OFFCURVE",
"340 618 OFFCURVE",
"285 621 CURVE SMOOTH",
"198 626 OFFCURVE",
"146 554 OFFCURVE",
"105 496 CURVE SMOOTH",
"38 402 OFFCURVE",
"30 228 OFFCURVE",
"73 194 CURVE SMOOTH",
"125 153 OFFCURVE",
"173 139 OFFCURVE",
"216 139 CURVE SMOOTH",
"244 139 OFFCURVE",
"342 277 OFFCURVE",
"267 290 CURVE SMOOTH",
"179 305 OFFCURVE",
"133 345 OFFCURVE",
"133 374 CURVE SMOOTH",
"133 408 OFFCURVE",
"172 457 OFFCURVE",
"198 459 CURVE SMOOTH",
"227 461 OFFCURVE",
"266 450 OFFCURVE",
"305 431 CURVE SMOOTH",
"359 405 OFFCURVE",
"403 387 OFFCURVE",
"403 337 CURVE SMOOTH",
"403 241 OFFCURVE",
"367 195 OFFCURVE",
"358 118 CURVE SMOOTH",
"348 33 OFFCURVE",
"364 -157 OFFCURVE",
"357 -220 CURVE SMOOTH",
"355 -237 OFFCURVE",
"363 -240 OFFCURVE",
"371 -240 CURVE SMOOTH",
"401 -240 OFFCURVE",
"467 -193 OFFCURVE",
"474 -131 CURVE SMOOTH"
);
}
);
width = 523;
},
{
anchors = (
{
name = bottomleft;
position = "{9, 0}";
},
{
name = center;
position = "{336, 270}";
},
{
name = top;
position = "{219, 536}";
},
{
name = topleft;
position = "{-11, 536}";
}
);
associatedMasterId = "79F23985-86A9-4934-8BAF-8AAE7E0AB6FA";
layerId = "94A35CB5-75FF-4927-B955-A9ABCE564D04";
name = "Dec 22 19, 17:45";
paths = (
{
closed = 1;
nodes = (
"489 -3 OFFCURVE",
"412 83 OFFCURVE",
"427 184 CURVE SMOOTH",
"436 231 OFFCURVE",
"497 344 OFFCURVE",
"497 433 CURVE SMOOTH",
"497 474 OFFCURVE",
"471 513 OFFCURVE",
"427 546 CURVE SMOOTH",
"390 574 OFFCURVE",
"349 597 OFFCURVE",
"262 597 CURVE SMOOTH",
"212 597 OFFCURVE",
"156 554 OFFCURVE",
"115 496 CURVE SMOOTH",
"34 382 OFFCURVE",
"12 208 OFFCURVE",
"55 174 CURVE SMOOTH",
"107 132 OFFCURVE",
"155 119 OFFCURVE",
"198 119 CURVE SMOOTH",
"226 119 OFFCURVE",
"324 257 OFFCURVE",
"249 270 CURVE SMOOTH",
"161 285 OFFCURVE",
"130 324 OFFCURVE",
"130 353 CURVE SMOOTH",
"130 395 OFFCURVE",
"161 426 OFFCURVE",
"181 426 CURVE SMOOTH",
"227 426 OFFCURVE",
"291 401 OFFCURVE",
"337 368 CURVE SMOOTH",
"372 343 OFFCURVE",
"398 313 OFFCURVE",
"398 285 CURVE SMOOTH",
"398 233 OFFCURVE",
"357 195 OFFCURVE",
"348 118 CURVE SMOOTH",
"340 33 OFFCURVE",
"365 -157 OFFCURVE",
"358 -220 CURVE SMOOTH",
"356 -237 OFFCURVE",
"364 -240 OFFCURVE",
"372 -240 CURVE SMOOTH",
"402 -240 OFFCURVE",
"468 -193 OFFCURVE",
"475 -131 CURVE SMOOTH"
);
}
);
width = 548;
},
{
anchors = (
{
name = bottomleft;
position = "{139, 0}";
},
{
name = center;
position = "{261, 359}";
},
{
name = top;
position = "{280, 541}";
},
{
name = topleft;
position = "{41, 536}";
}
);
layerId = "6A5C4ED4-BBA5-4E07-B50E-1C6C5DE6A04B";
paths = (
{
closed = 1;
nodes = (
"439 5 OFFCURVE",
"406 98 OFFCURVE",
"414 177 CURVE SMOOTH",
"418 252 OFFCURVE",
"471 347 OFFCURVE",
"471 430 CURVE SMOOTH",
"471 478 OFFCURVE",
"455 524 OFFCURVE",
"423 549 CURVE SMOOTH",
"385 584 OFFCURVE",
"318 607 OFFCURVE",
"266 609 CURVE SMOOTH",
"206 611 OFFCURVE",
"157 557 OFFCURVE",
"118 503 CURVE SMOOTH",
"54 412 OFFCURVE",
"27 260 OFFCURVE",
"76 218 CURVE SMOOTH",
"118 183 OFFCURVE",
"158 171 OFFCURVE",
"197 167 CURVE SMOOTH",
"220 165 OFFCURVE",
"269 247 OFFCURVE",
"228 255 CURVE SMOOTH",
"155 269 OFFCURVE",
"108 301 OFFCURVE",
"108 342 CURVE SMOOTH",
"108 406 OFFCURVE",
"180 514 OFFCURVE",
"223 515 CURVE SMOOTH",
"262 516 OFFCURVE",
"298 501 OFFCURVE",
"341 478 CURVE SMOOTH",
"385 455 OFFCURVE",
"416 428 OFFCURVE",
"416 386 CURVE SMOOTH",
"416 298 OFFCURVE",
"365 230 OFFCURVE",
"361 143 CURVE SMOOTH",
"356 53 OFFCURVE",
"370 -141 OFFCURVE",
"372 -228 CURVE SMOOTH",
"371 -238 OFFCURVE",
"376 -240 OFFCURVE",
"382 -240 CURVE SMOOTH",
"401 -240 OFFCURVE",
"441 -211 OFFCURVE",
"444 -177 CURVE SMOOTH"
);
}
);
width = 520.46988;
}
);
unicode = 05E3;
},
{
glyphname = "pe-hb";
lastChange = "2019-12-23 03:33:39 +0000";
layers = (
{
anchors = (
{
name = bottom;
position = "{284, 0}";
},
{
name = bottomleft;
position = "{98, 0}";
},
{
name = center;
position = "{273, 330}";
},
{
name = top;
position = "{234, 536}";
},
{
name = topleft;
position = "{50, 536}";
}
);
components = (
{
name = "kaf-hb";
}
);
layerId = "B853D75E-14CD-4000-B7A0-02101202F42C";
paths = (
{
closed = 1;
nodes = (
"106 565 LINE",
"106 466 OFFCURVE",
"109 413 OFFCURVE",
"136 331 CURVE SMOOTH",
"140 314 OFFCURVE",
"146 312 OFFCURVE",
"154 312 CURVE SMOOTH",
"162 312 OFFCURVE",
"171 325 OFFCURVE",
"165 339 CURVE SMOOTH",
"139 401 OFFCURVE",
"128 435 OFFCURVE",
"128 575 CURVE"
);
}
);
width = 469;
},
{
anchors = (
{
name = bottom;
position = "{330, 0}";
},
{
name = bottomleft;
position = "{94, 0}";
},
{
name = center;
position = "{368, 310}";
},
{
name = top;
position = "{330, 536}";
},
{
name = topleft;
position = "{86, 560}";
}
);
components = (
{
name = "kaf-hb";
transform = "{1, 0, 0, 1, -4, 0}";
}
);
layerId = "79F23985-86A9-4934-8BAF-8AAE7E0AB6FA";
paths = (
{
closed = 1;
nodes = (
"173 405 LINE",
"173 358 OFFCURVE",
"151 344 OFFCURVE",
"151 304 CURVE SMOOTH",
"151 276 OFFCURVE",
"193 243 OFFCURVE",
"212 243 CURVE SMOOTH",
"248 243 OFFCURVE",
"275 271 OFFCURVE",
"275 302 CURVE SMOOTH",
"275 336 OFFCURVE",
"213 326 OFFCURVE",
"213 440 CURVE"
);
}
);
width = 557;
},
{
anchors = (
{
name = bottom;
position = "{307, 0}";
},
{
name = bottomleft;
position = "{96, 0}";
},
{
name = center;
position = "{320, 320}";
},
{
name = top;
position = "{281, 536}";
},
{
name = topleft;
position = "{68, 548}";
}
);
components = (
{
alignment = -1;
name = "kaf-hb";
transform = "{1, 0, 0, 1, -2, 0}";
}
);
layerId = "6A5C4ED4-BBA5-4E07-B50E-1C6C5DE6A04B";
paths = (
{
closed = 1;
nodes = (
"139 486 LINE",
"139 413 OFFCURVE",
"130 379 OFFCURVE",
"143 318 CURVE SMOOTH",
"145 295 OFFCURVE",
"169 278 OFFCURVE",
"183 278 CURVE SMOOTH",
"204 278 OFFCURVE",
"222 298 OFFCURVE",
"219 321 CURVE SMOOTH",
"206 369 OFFCURVE",
"170 381 OFFCURVE",
"170 508 CURVE"
);
}
);
width = 512.46988;
}
);
unicode = 05E4;
},
{
glyphname = "finaltsadi-hb";
lastChange = "2019-12-24 17:23:23 +0000";
layers = (
{
anchors = (
{
name = bottomleft;
position = "{25, 0}";
},
{
name = center;
position = "{157, 456}";
},
{
name = top;
position = "{216, 536}";
},
{
name = topleft;
position = "{39, 536}";
}
);
layerId = "B853D75E-14CD-4000-B7A0-02101202F42C";
paths = (
{
closed = 1;
nodes = (
"172 -240 OFFCURVE",
"185 -231 OFFCURVE",
"184 -217 CURVE SMOOTH",
"165 45 OFFCURVE",
"163 204 OFFCURVE",
"164 286 CURVE SMOOTH",
"165 391 OFFCURVE",
"174 464 OFFCURVE",
"181 523 CURVE SMOOTH",
"183 542 OFFCURVE",
"195 542 OFFCURVE",
"278 525 CURVE SMOOTH",
"288 523 OFFCURVE",
"290 527 OFFCURVE",
"290 531 CURVE SMOOTH",
"290 539 OFFCURVE",
"290 539 OFFCURVE",
"284 545 CURVE SMOOTH",
"274 555 OFFCURVE",
"63 610 OFFCURVE",
"37 613 CURVE SMOOTH",
"29 614 OFFCURVE",
"25 609 OFFCURVE",
"25 603 CURVE SMOOTH",
"25 596 OFFCURVE",
"28 593 OFFCURVE",
"37 587 CURVE SMOOTH",
"40 585 OFFCURVE",
"97 570 OFFCURVE",
"156 555 CURVE",
"156 492 OFFCURVE",
"138 430 OFFCURVE",
"138 287 CURVE SMOOTH",
"138 161 OFFCURVE",
"155 -127 OFFCURVE",
"155 -232 CURVE SMOOTH",
"155 -238 OFFCURVE",
"159 -240 OFFCURVE",
"163 -240 CURVE SMOOTH"
);
}
);
width = 322;
},
{
anchors = (
{
name = bottomleft;
position = "{-25, 0}";
},
{
name = center;
position = "{70, 319}";
},
{
name = top;
position = "{267, 536}";
},
{
name = topleft;
position = "{35, 536}";
}
);
background = {
paths = (
{
closed = 0;
nodes = (
"179 337 LINE SMOOTH",
"179 241 OFFCURVE",
"131 171 OFFCURVE",
"131 90 CURVE SMOOTH",
"131 33 OFFCURVE",
"140 -157 OFFCURVE",
"133 -220 CURVE SMOOTH",
"131 -237 OFFCURVE",
"139 -240 OFFCURVE",
"147 -240 CURVE SMOOTH",
"177 -240 OFFCURVE",
"243 -193 OFFCURVE",
"250 -131 CURVE SMOOTH",
"263 -16 OFFCURVE",
"208 66 OFFCURVE",
"208 154 CURVE SMOOTH",
"208 189 OFFCURVE",
"264 344 OFFCURVE",
"264 434 CURVE SMOOTH"
);
}
);
};
layerId = "79F23985-86A9-4934-8BAF-8AAE7E0AB6FA";
paths = (
{
closed = 1;
nodes = (
"184 -240 OFFCURVE",
"245 -193 OFFCURVE",
"252 -131 CURVE SMOOTH",
"266 -4 OFFCURVE",
"218 87 OFFCURVE",
"218 184 CURVE SMOOTH",
"218 244 OFFCURVE",
"232 296 OFFCURVE",
"243 346 CURVE SMOOTH",
"249 376 OFFCURVE",
"263 390 OFFCURVE",
"291 386 CURVE SMOOTH",
"311 383 OFFCURVE",
"342 386 OFFCURVE",
"341 414 CURVE SMOOTH",
"340 454 OFFCURVE",
"332 502 OFFCURVE",
"318 525 CURVE SMOOTH",
"291 570 OFFCURVE",
"125 621 OFFCURVE",
"51 621 CURVE SMOOTH",
"27 621 OFFCURVE",
"31 560 OFFCURVE",
"39 515 CURVE SMOOTH",
"49 449 OFFCURVE",
"74 440 OFFCURVE",
"113 425 CURVE SMOOTH",
"133 418 OFFCURVE",
"156 410 OFFCURVE",
"181 403 CURVE",
"186 326 OFFCURVE",
"140 243 OFFCURVE",
"140 120 CURVE SMOOTH",
"140 57 OFFCURVE",
"150 -151 OFFCURVE",
"142 -220 CURVE SMOOTH",
"140 -237 OFFCURVE",
"148 -240 OFFCURVE",
"156 -240 CURVE SMOOTH"
);
}
);
width = 374;
},
{
anchors = (
{
name = bottomleft;
position = "{-18, 0}";
},
{
name = center;
position = "{227, 319}";
},
{
name = top;
position = "{274, 536}";
},
{
name = topleft;
position = "{2, 536}";
}
);
associatedMasterId = "79F23985-86A9-4934-8BAF-8AAE7E0AB6FA";
layerId = "D1FD74B4-7519-4FB6-81B9-85DE026DEE7E";
name = "Dec 22 19, 17:52";
paths = (
{
closed = 1;
nodes = (
"189 389 OFFCURVE",
"222 391 OFFCURVE",
"256 397 CURVE SMOOTH",
"329 411 OFFCURVE",
"365 476 OFFCURVE",
"365 647 CURVE SMOOTH",
"365 658 OFFCURVE",
"332 677 OFFCURVE",
"327 653 CURVE SMOOTH",
"317 604 OFFCURVE",
"271 587 OFFCURVE",
"157 588 CURVE SMOOTH",
"78 589 OFFCURVE",
"69 598 OFFCURVE",
"72 640 CURVE SMOOTH",
"73 655 OFFCURVE",
"31 654 OFFCURVE",
"30 646 CURVE SMOOTH",
"12 501 OFFCURVE",
"36 389 OFFCURVE",
"121 389 CURVE SMOOTH"
);
},
{
closed = 1;
nodes = (
"197 -240 OFFCURVE",
"240 -202 OFFCURVE",
"240 -160 CURVE SMOOTH",
"240 -5 OFFCURVE",
"197 82 OFFCURVE",
"197 194 CURVE SMOOTH",
"197 313 OFFCURVE",
"227 346 OFFCURVE",
"228 435 CURVE",
"158 406 LINE",
"151 333 OFFCURVE",
"138 269 OFFCURVE",
"135 195 CURVE SMOOTH",
"129 41 OFFCURVE",
"148 -154 OFFCURVE",
"154 -229 CURVE",
"154 -237 OFFCURVE",
"160 -240 OFFCURVE",
"168 -240 CURVE SMOOTH"
);
}
);
width = 402;
},
{
anchors = (
{
name = bottomleft;
position = "{4, 0}";
},
{
name = center;
position = "{117, 388}";
},
{
name = top;
position = "{245, 536}";
},
{
name = topleft;
position = "{40, 536}";
}
);
layerId = "6A5C4ED4-BBA5-4E07-B50E-1C6C5DE6A04B";
paths = (
{
closed = 1;
nodes = (
"181 -240 OFFCURVE",
"218 -212 OFFCURVE",
"221 -175 CURVE",
"218 21 OFFCURVE",
"194 146 OFFCURVE",
"194 236 CURVE SMOOTH",
"195 311 OFFCURVE",
"205 371 OFFCURVE",
"216 440 CURVE SMOOTH",
"219 459 OFFCURVE",
"226 467 OFFCURVE",
"288 456 CURVE SMOOTH",
"302 454 OFFCURVE",
"319 457 OFFCURVE",
"319 473 CURVE SMOOTH",
"318 497 OFFCURVE",
"314 521 OFFCURVE",
"304 535 CURVE SMOOTH",
"286 562 OFFCURVE",
"97 615 OFFCURVE",
"47 617 CURVE SMOOTH",
"31 617 OFFCURVE",
"31 585 OFFCURVE",
"35 560 CURVE SMOOTH",
"40 523 OFFCURVE",
"54 517 OFFCURVE",
"78 507 CURVE SMOOTH",
"91 502 OFFCURVE",
"129 490 OFFCURVE",
"171 480 CURVE",
"175 410 OFFCURVE",
"142 337 OFFCURVE",
"142 205 CURVE SMOOTH",
"142 110 OFFCURVE",
"156 -139 OFFCURVE",
"152 -226 CURVE SMOOTH",
"151 -238 OFFCURVE",
"157 -240 OFFCURVE",
"163 -240 CURVE SMOOTH"
);
}
);
width = 359.04819;
}
);
unicode = 05E5;
},
{
glyphname = "tsadi-hb";
lastChange = "2019-12-23 03:33:39 +0000";
layers = (
{
anchors = (
{
name = bottom;
position = "{250, -20}";
},
{
name = bottomleft;
position = "{3, -120}";
},
{
name = center;
position = "{93, 283}";
},
{
name = top;
position = "{251, 536}";
},
{
name = topleft;
position = "{4, 536}";
}
);
layerId = "B853D75E-14CD-4000-B7A0-02101202F42C";
paths = (
{
closed = 1;
nodes = (
"95 -163 OFFCURVE",
"240 10 OFFCURVE",
"240 247 CURVE SMOOTH",
"240 356 OFFCURVE",
"207 522 OFFCURVE",
"136 566 CURVE",
"148 548 LINE",
"198 549 OFFCURVE",
"245 578 OFFCURVE",
"267 621 CURVE SMOOTH",
"275 637 OFFCURVE",
"252 650 OFFCURVE",
"249 644 CURVE SMOOTH",
"231 602 OFFCURVE",
"182 570 OFFCURVE",
"136 575 CURVE SMOOTH",
"91 580 OFFCURVE",
"72 591 OFFCURVE",
"38 611 CURVE",
"27 611 OFFCURVE",
"14 597 OFFCURVE",
"20 590 CURVE SMOOTH",
"60 564 OFFCURVE",
"90 556 OFFCURVE",
"118 543 CURVE SMOOTH",
"178 515 OFFCURVE",
"211 347 OFFCURVE",
"211 247 CURVE SMOOTH",
"211 29 OFFCURVE",
"88 -135 OFFCURVE",
"-125 -135 CURVE SMOOTH",
"-130 -135 OFFCURVE",
"-135 -135 OFFCURVE",
"-140 -135 CURVE",
"-140 -149 OFFCURVE",
"-137 -163 OFFCURVE",
"-118 -163 CURVE SMOOTH"
);
}
);
width = 305;
},
{
anchors = (
{
name = bottom;
position = "{262, 0}";
},
{
name = bottomleft;
position = "{35, -225}";
},
{
name = center;
position = "{138, 217}";
},
{
name = top;
position = "{314, 556}";
},
{
name = topleft;
position = "{66, 536}";
}
);
layerId = "79F23985-86A9-4934-8BAF-8AAE7E0AB6FA";
paths = (
{
closed = 1;
nodes = (
"181 -240 OFFCURVE",
"352 -27 OFFCURVE",
"352 222 CURVE SMOOTH",
"352 366 OFFCURVE",
"317 510 OFFCURVE",
"240 570 CURVE",
"262 492 LINE",
"322 533 OFFCURVE",
"358 573 OFFCURVE",
"390 653 CURVE SMOOTH",
"395 666 OFFCURVE",
"364 685 OFFCURVE",
"358 678 CURVE SMOOTH",
"318 630 OFFCURVE",
"267 584 OFFCURVE",
"216 591 CURVE SMOOTH",
"176 596 OFFCURVE",
"133 627 OFFCURVE",
"119 627 CURVE",
"104 627 OFFCURVE",
"71 581 OFFCURVE",
"71 470 CURVE SMOOTH",
"71 444 OFFCURVE",
"122 402 OFFCURVE",
"215 360 CURVE SMOOTH",
"266 337 OFFCURVE",
"293 273 OFFCURVE",
"293 214 CURVE SMOOTH",
"293 37 OFFCURVE",
"134 -51 OFFCURVE",
"-17 -51 CURVE SMOOTH",
"-37 -51 OFFCURVE",
"-43 -50 OFFCURVE",
"-62 -48 CURVE",
"-62 -232 OFFCURVE",
"-44 -240 OFFCURVE",
"35 -240 CURVE SMOOTH"
);
}
);
width = 412;
},
{
anchors = (
{
name = bottom;
position = "{256, -10}";
},
{
name = bottomleft;
position = "{19, -172}";
},
{
name = center;
position = "{115, 250}";
},
{
name = top;
position = "{282, 546}";
},
{
name = topleft;
position = "{35, 536}";
}
);
layerId = "6A5C4ED4-BBA5-4E07-B50E-1C6C5DE6A04B";
paths = (
{
closed = 1;
nodes = (
"137 -201 OFFCURVE",
"295 -8 OFFCURVE",
"295 235 CURVE SMOOTH",
"295 361 OFFCURVE",
"261 516 OFFCURVE",
"187 568 CURVE",
"204 520 LINE",
"259 541 OFFCURVE",
"301 576 OFFCURVE",
"328 637 CURVE SMOOTH",
"334 651 OFFCURVE",
"307 667 OFFCURVE",
"303 661 CURVE SMOOTH",
"274 616 OFFCURVE",
"224 577 OFFCURVE",
"176 583 CURVE SMOOTH",
"133 588 OFFCURVE",
"102 609 OFFCURVE",
"78 619 CURVE",
"65 619 OFFCURVE",
"42 589 OFFCURVE",
"45 531 CURVE SMOOTH",
"65 505 OFFCURVE",
"106 480 OFFCURVE",
"166 453 CURVE SMOOTH",
"221 427 OFFCURVE",
"252 310 OFFCURVE",
"252 231 CURVE SMOOTH",
"252 33 OFFCURVE",
"111 -94 OFFCURVE",
"-72 -94 CURVE SMOOTH",
"-84 -94 OFFCURVE",
"-90 -93 OFFCURVE",
"-101 -92 CURVE",
"-101 -190 OFFCURVE",
"-91 -201 OFFCURVE",
"-42 -201 CURVE SMOOTH"
);
}
);
width = 357.85542;
}
);
unicode = 05E6;
},
{
glyphname = "qof-hb";
lastChange = "2019-12-23 03:33:39 +0000";
layers = (
{
anchors = (
{
name = bottom;
position = "{321, 0}";
},
{
name = bottomleft;
position = "{26, 0}";
},
{
name = center;
position = "{280, 340}";
},
{
name = top;
position = "{266, 536}";
},
{
name = topleft;
position = "{37, 536}";
}
);
layerId = "B853D75E-14CD-4000-B7A0-02101202F42C";
paths = (
{
closed = 1;
nodes = (
"393 165 OFFCURVE",
"458 296 OFFCURVE",
"458 423 CURVE SMOOTH",
"458 509 OFFCURVE",
"436 596 OFFCURVE",
"303 592 CURVE SMOOTH",
"191 589 OFFCURVE",
"149 590 OFFCURVE",
"107 592 CURVE SMOOTH",
"86 593 OFFCURVE",
"79 606 OFFCURVE",
"79 642 CURVE SMOOTH",
"79 650 OFFCURVE",
"64 654 OFFCURVE",
"62 646 CURVE SMOOTH",
"49 593 OFFCURVE",
"62 566 OFFCURVE",
"93 564 CURVE SMOOTH",
"140 561 OFFCURVE",
"187 561 OFFCURVE",
"295 564 CURVE SMOOTH",
"412 567 OFFCURVE",
"431 499 OFFCURVE",
"431 422 CURVE SMOOTH",
"431 306 OFFCURVE",
"380 189 OFFCURVE",
"320 118 CURVE SMOOTH",
"309 105 OFFCURVE",
"337 97 OFFCURVE",
"347 109 CURVE SMOOTH"
);
},
{
closed = 1;
nodes = (
"133 -240 OFFCURVE",
"146 -228 OFFCURVE",
"146 -219 CURVE SMOOTH",
"137 -8 OFFCURVE",
"133 153 OFFCURVE",
"135 418 CURVE",
"131 422 LINE",
"122 415 LINE SMOOTH",
"113 408 OFFCURVE",
"109 396 OFFCURVE",
"108 364 CURVE SMOOTH",
"102 165 OFFCURVE",
"111 -34 OFFCURVE",
"118 -233 CURVE SMOOTH",
"118 -238 OFFCURVE",
"121 -240 OFFCURVE",
"125 -240 CURVE SMOOTH"
);
}
);
width = 516;
},
{
anchors = (
{
name = bottom;
position = "{385, 0}";
},
{
name = bottomleft;
position = "{-49, 0}";
},
{
name = center;
position = "{286, 257}";
},
{
name = top;
position = "{312, 536}";
},
{
name = topleft;
position = "{68, 566}";
}
);
background = {
paths = (
{
closed = 0;
nodes = (
"453 325 LINE SMOOTH",
"453 199 OFFCURVE",
"372 115 OFFCURVE",
"308 60 CURVE SMOOTH",
"267 25 OFFCURVE",
"372 -9 OFFCURVE",
"393 18 CURVE SMOOTH",
"444 83 OFFCURVE",
"514 188 OFFCURVE",
"514 344 CURVE SMOOTH"
);
}
);
};
layerId = "79F23985-86A9-4934-8BAF-8AAE7E0AB6FA";
paths = (
{
closed = 1;
nodes = (
"478 149 OFFCURVE",
"525 224 OFFCURVE",
"525 343 CURVE SMOOTH",
"525 540 OFFCURVE",
"448 592 OFFCURVE",
"328 592 CURVE SMOOTH",
"210 589 OFFCURVE",
"166 590 OFFCURVE",
"114 592 CURVE SMOOTH",
"93 593 OFFCURVE",
"88 611 OFFCURVE",
"87 640 CURVE SMOOTH",
"86 655 OFFCURVE",
"45 654 OFFCURVE",
"44 646 CURVE SMOOTH",
"29 532 OFFCURVE",
"46 396 OFFCURVE",
"128 391 CURVE SMOOTH",
"190 387 OFFCURVE",
"257 392 OFFCURVE",
"320 394 CURVE SMOOTH",
"417 396 OFFCURVE",
"459 360 OFFCURVE",
"459 324 CURVE SMOOTH",
"459 235 OFFCURVE",
"396 163 OFFCURVE",
"344 124 CURVE SMOOTH",
"302 92 OFFCURVE",
"416 66 OFFCURVE",
"437 95 CURVE SMOOTH"
);
},
{
closed = 1;
nodes = (
"131 -240 OFFCURVE",
"184 -202 OFFCURVE",
"184 -160 CURVE SMOOTH",
"184 -5 OFFCURVE",
"130 102 OFFCURVE",
"138 328 CURVE",
"131 332 LINE",
"102 325 LINE SMOOTH",
"84 321 OFFCURVE",
"80 302 OFFCURVE",
"78 264 CURVE SMOOTH",
"76 98 OFFCURVE",
"82 -154 OFFCURVE",
"88 -229 CURVE SMOOTH",
"89 -239 OFFCURVE",
"93 -240 OFFCURVE",
"102 -240 CURVE SMOOTH"
);
}
);
width = 546;
},
{
anchors = (
{
name = bottom;
position = "{353, 0}";
},
{
name = bottomleft;
position = "{-11, 0}";
},
{
name = center;
position = "{283, 299}";
},
{
name = top;
position = "{289, 536}";
},
{
name = topleft;
position = "{52, 551}";
}
);
layerId = "6A5C4ED4-BBA5-4E07-B50E-1C6C5DE6A04B";
paths = (
{
closed = 1;
nodes = (
"435 157 OFFCURVE",
"491 260 OFFCURVE",
"491 383 CURVE SMOOTH",
"491 524 OFFCURVE",
"442 594 OFFCURVE",
"315 592 CURVE SMOOTH",
"200 589 OFFCURVE",
"157 590 OFFCURVE",
"110 592 CURVE SMOOTH",
"89 593 OFFCURVE",
"83 608 OFFCURVE",
"83 641 CURVE SMOOTH",
"82 652 OFFCURVE",
"55 654 OFFCURVE",
"53 646 CURVE SMOOTH",
"39 563 OFFCURVE",
"54 482 OFFCURVE",
"110 479 CURVE SMOOTH",
"165 475 OFFCURVE",
"222 478 OFFCURVE",
"307 480 CURVE SMOOTH",
"414 483 OFFCURVE",
"445 430 OFFCURVE",
"445 374 CURVE SMOOTH",
"445 271 OFFCURVE",
"388 176 OFFCURVE",
"332 121 CURVE SMOOTH",
"306 99 OFFCURVE",
"376 82 OFFCURVE",
"391 102 CURVE SMOOTH"
);
},
{
closed = 1;
nodes = (
"132 -240 OFFCURVE",
"165 -215 OFFCURVE",
"165 -190 CURVE SMOOTH",
"160 -7 OFFCURVE",
"132 128 OFFCURVE",
"136 374 CURVE",
"131 378 LINE",
"112 371 LINE SMOOTH",
"99 365 OFFCURVE",
"95 350 OFFCURVE",
"93 315 CURVE SMOOTH",
"89 132 OFFCURVE",
"97 -93 OFFCURVE",
"103 -231 CURVE SMOOTH",
"104 -238 OFFCURVE",
"107 -240 OFFCURVE",
"114 -240 CURVE SMOOTH"
);
}
);
width = 530.81928;
}
);
unicode = 05E7;
},
{
glyphname = "resh-hb";
lastChange = "2019-12-24 17:21:46 +0000";
layers = (
{
anchors = (
{
name = bottom;
position = "{364, 0}";
},
{
name = bottomleft;
position = "{195, 0}";
},
{
name = center;
position = "{217, 340}";
},
{
name = top;
position = "{254, 536}";
},
{
name = topleft;
position = "{40, 536}";
}
);
layerId = "B853D75E-14CD-4000-B7A0-02101202F42C";
paths = (
{
closed = 1;
nodes = (
"33 593 OFFCURVE",
"46 566 OFFCURVE",
"77 564 CURVE SMOOTH",
"124 561 OFFCURVE",
"171 561 OFFCURVE",
"279 564 CURVE SMOOTH",
"396 568 OFFCURVE",
"415 499 OFFCURVE",
"415 422 CURVE SMOOTH",
"415 251 OFFCURVE",
"327 85 OFFCURVE",
"279 5 CURVE SMOOTH",
"268 -9 OFFCURVE",
"295 -17 OFFCURVE",
"306 -4 CURVE SMOOTH",
"359 72 OFFCURVE",
"442 257 OFFCURVE",
"442 423 CURVE SMOOTH",
"442 509 OFFCURVE",
"420 596 OFFCURVE",
"287 592 CURVE SMOOTH",
"175 589 OFFCURVE",
"133 590 OFFCURVE",
"91 592 CURVE SMOOTH",
"70 593 OFFCURVE",
"65 606 OFFCURVE",
"63 642 CURVE SMOOTH",
"63 650 OFFCURVE",
"48 654 OFFCURVE",
"46 646 CURVE SMOOTH"
);
}
);
width = 505;
},
{
anchors = (
{
name = bottom;
position = "{392, 0}";
},
{
name = bottomleft;
position = "{141, 0}";
},
{
name = center;
position = "{216, 237}";
},
{
name = top;
position = "{322, 536}";
},
{
name = topleft;
position = "{49, 566}";
}
);
layerId = "79F23985-86A9-4934-8BAF-8AAE7E0AB6FA";
paths = (
{
closed = 1;
nodes = (
"18 532 OFFCURVE",
"35 396 OFFCURVE",
"117 391 CURVE SMOOTH",
"179 387 OFFCURVE",
"246 392 OFFCURVE",
"309 394 CURVE SMOOTH",
"409 397 OFFCURVE",
"453 350 OFFCURVE",
"453 304 CURVE SMOOTH",
"453 178 OFFCURVE",
"372 94 OFFCURVE",
"308 39 CURVE SMOOTH",
"266 5 OFFCURVE",
"372 -30 OFFCURVE",
"393 -3 CURVE SMOOTH",
"452 55 OFFCURVE",
"514 167 OFFCURVE",
"514 323 CURVE SMOOTH",
"514 536 OFFCURVE",
"437 595 OFFCURVE",
"317 592 CURVE SMOOTH",
"199 589 OFFCURVE",
"155 590 OFFCURVE",
"103 592 CURVE SMOOTH",
"82 593 OFFCURVE",
"77 611 OFFCURVE",
"76 640 CURVE SMOOTH",
"75 655 OFFCURVE",
"34 654 OFFCURVE",
"33 646 CURVE SMOOTH"
);
}
);
width = 549;
},
{
anchors = (
{
name = bottom;
position = "{378, 0}";
},
{
name = bottomleft;
position = "{168, 0}";
},
{
name = center;
position = "{217, 289}";
},
{
name = top;
position = "{288, 536}";
},
{
name = topleft;
position = "{44, 551}";
}
);
layerId = "6A5C4ED4-BBA5-4E07-B50E-1C6C5DE6A04B";
paths = (
{
closed = 1;
nodes = (
"26 563 OFFCURVE",
"41 482 OFFCURVE",
"97 479 CURVE SMOOTH",
"151 475 OFFCURVE",
"208 478 OFFCURVE",
"294 480 CURVE SMOOTH",
"402 484 OFFCURVE",
"434 425 OFFCURVE",
"434 364 CURVE SMOOTH",
"434 215 OFFCURVE",
"349 89 OFFCURVE",
"293 22 CURVE SMOOTH",
"267 -2 OFFCURVE",
"333 -23 OFFCURVE",
"349 -4 CURVE SMOOTH",
"405 64 OFFCURVE",
"478 213 OFFCURVE",
"478 374 CURVE SMOOTH",
"478 522 OFFCURVE",
"428 596 OFFCURVE",
"302 592 CURVE SMOOTH",
"187 589 OFFCURVE",
"144 590 OFFCURVE",
"97 592 CURVE SMOOTH",
"76 593 OFFCURVE",
"71 608 OFFCURVE",
"69 641 CURVE SMOOTH",
"69 652 OFFCURVE",
"41 654 OFFCURVE",
"40 646 CURVE SMOOTH"
);
}
);
width = 525;
}
);
unicode = 05E8;
},
{
glyphname = "shin-hb";
lastChange = "2019-12-23 03:33:39 +0000";
layers = (
{
anchors = (
{
name = bottom;
position = "{279, 0}";
},
{
name = bottomleft;
position = "{100, 0}";
},
{
name = center;
position = "{252, 340}";
},
{
name = top;
position = "{223, 536}";
},
{
name = topleft;
position = "{41, 536}";
},
{
name = topright;
position = "{548, 536}";
}
);
layerId = "B853D75E-14CD-4000-B7A0-02101202F42C";
paths = (
{
closed = 1;
nodes = (
"45 582 OFFCURVE",
"58 575 OFFCURVE",
"74 572 CURVE",
"75 414 OFFCURVE",
"74 238 OFFCURVE",
"74 80 CURVE SMOOTH",
"74 10 OFFCURVE",
"61 -1 OFFCURVE",
"46 -25 CURVE SMOOTH",
"37 -39 OFFCURVE",
"61 -37 OFFCURVE",
"70 -30 CURVE SMOOTH",
"75 -26 OFFCURVE",
"86 -13 OFFCURVE",
"96 10 CURVE",
"136 5 OFFCURVE",
"218 -6 OFFCURVE",
"270 -6 CURVE SMOOTH",
"371 -6 OFFCURVE",
"432 147 OFFCURVE",
"432 243 CURVE SMOOTH",
"432 284 OFFCURVE",
"417 330 OFFCURVE",
"405 330 CURVE SMOOTH",
"395 330 OFFCURVE",
"391 326 OFFCURVE",
"391 305 CURVE SMOOTH",
"391 287 OFFCURVE",
"405 279 OFFCURVE",
"405 241 CURVE SMOOTH",
"405 154 OFFCURVE",
"350 21 OFFCURVE",
"266 21 CURVE SMOOTH",
"235 21 OFFCURVE",
"141 29 OFFCURVE",
"102 39 CURVE",
"100 190 OFFCURVE",
"101 517 OFFCURVE",
"103 567 CURVE",
"156 564 OFFCURVE",
"251 566 OFFCURVE",
"332 570 CURVE SMOOTH",
"395 573 OFFCURVE",
"417 580 OFFCURVE",
"417 587 CURVE SMOOTH",
"417 593 OFFCURVE",
"411 606 OFFCURVE",
"403 604 CURVE SMOOTH",
"309 585 OFFCURVE",
"116 588 OFFCURVE",
"59 604 CURVE SMOOTH",
"52 606 OFFCURVE",
"45 593 OFFCURVE",
"45 588 CURVE SMOOTH"
);
}
);
width = 477;
},
{
anchors = (
{
name = bottom;
position = "{383, 0}";
},
{
name = bottomleft;
position = "{96, -20}";
},
{
name = center;
position = "{291, 282}";
},
{
name = top;
position = "{317, 536}";
},
{
name = topleft;
position = "{59, 536}";
},
{
name = topright;
position = "{647, 536}";
}
);
layerId = "79F23985-86A9-4934-8BAF-8AAE7E0AB6FA";
paths = (
{
closed = 1;
nodes = (
"35 442 OFFCURVE",
"58 417 OFFCURVE",
"84 412 CURVE",
"91 301 OFFCURVE",
"93 191 OFFCURVE",
"84 80 CURVE SMOOTH",
"78 10 OFFCURVE",
"71 -1 OFFCURVE",
"56 -25 CURVE SMOOTH",
"47 -39 OFFCURVE",
"62 -73 OFFCURVE",
"89 -61 CURVE SMOOTH",
"107 -53 OFFCURVE",
"143 -23 OFFCURVE",
"164 0 CURVE",
"193 -5 OFFCURVE",
"228 -6 OFFCURVE",
"280 -6 CURVE SMOOTH",
"381 -6 OFFCURVE",
"514 157 OFFCURVE",
"514 293 CURVE SMOOTH",
"514 313 OFFCURVE",
"511 332 OFFCURVE",
"505 350 CURVE SMOOTH",
"491 391 OFFCURVE",
"416 346 OFFCURVE",
"416 315 CURVE SMOOTH",
"416 297 OFFCURVE",
"435 278 OFFCURVE",
"435 241 CURVE SMOOTH",
"435 204 OFFCURVE",
"350 155 OFFCURVE",
"276 155 CURVE SMOOTH",
"245 155 OFFCURVE",
"200 160 OFFCURVE",
"162 170 CURVE",
"155 264 OFFCURVE",
"159 350 OFFCURVE",
"176 399 CURVE",
"215 395 OFFCURVE",
"261 394 OFFCURVE",
"342 404 CURVE SMOOTH",
"405 412 OFFCURVE",
"487 544 OFFCURVE",
"487 596 CURVE SMOOTH",
"487 600 OFFCURVE",
"477 617 OFFCURVE",
"463 614 CURVE SMOOTH",
"319 585 OFFCURVE",
"202 607 OFFCURVE",
"159 607 CURVE SMOOTH",
"121 607 OFFCURVE",
"35 485 OFFCURVE",
"35 456 CURVE SMOOTH"
);
}
);
width = 533;
},
{
anchors = (
{
name = bottom;
position = "{330, 0}";
},
{
name = bottomleft;
position = "{98, -10}";
},
{
name = center;
position = "{271, 311}";
},
{
name = top;
position = "{269, 536}";
},
{
name = topleft;
position = "{50, 536}";
},
{
name = topright;
position = "{597, 536}";
}
);
layerId = "6A5C4ED4-BBA5-4E07-B50E-1C6C5DE6A04B";
paths = (
{
closed = 1;
nodes = (
"40 513 OFFCURVE",
"58 497 OFFCURVE",
"79 493 CURVE",
"83 358 OFFCURVE",
"83 215 OFFCURVE",
"79 80 CURVE SMOOTH",
"76 10 OFFCURVE",
"66 -1 OFFCURVE",
"51 -25 CURVE SMOOTH",
"42 -39 OFFCURVE",
"61 -55 OFFCURVE",
"79 -45 CURVE SMOOTH",
"91 -39 OFFCURVE",
"114 -18 OFFCURVE",
"130 5 CURVE",
"164 0 OFFCURVE",
"223 -6 OFFCURVE",
"275 -6 CURVE SMOOTH",
"376 -6 OFFCURVE",
"473 152 OFFCURVE",
"473 268 CURVE SMOOTH",
"473 298 OFFCURVE",
"463 331 OFFCURVE",
"454 340 CURVE SMOOTH",
"442 360 OFFCURVE",
"403 336 OFFCURVE",
"403 310 CURVE SMOOTH",
"403 292 OFFCURVE",
"420 279 OFFCURVE",
"420 241 CURVE SMOOTH",
"420 179 OFFCURVE",
"350 87 OFFCURVE",
"271 87 CURVE SMOOTH",
"240 87 OFFCURVE",
"170 94 OFFCURVE",
"132 104 CURVE",
"127 227 OFFCURVE",
"130 435 OFFCURVE",
"139 484 CURVE",
"185 481 OFFCURVE",
"256 481 OFFCURVE",
"337 488 CURVE SMOOTH",
"400 493 OFFCURVE",
"452 562 OFFCURVE",
"452 591 CURVE SMOOTH",
"452 596 OFFCURVE",
"444 611 OFFCURVE",
"433 609 CURVE SMOOTH",
"314 585 OFFCURVE",
"158 597 OFFCURVE",
"108 605 CURVE SMOOTH",
"86 606 OFFCURVE",
"40 540 OFFCURVE",
"40 523 CURVE SMOOTH"
);
}
);
width = 504.66265;
}
);
unicode = 05E9;
},
{
glyphname = "tav-hb";
lastChange = "2019-12-23 03:33:39 +0000";
layers = (
{
anchors = (
{
name = bottom;
position = "{293, 0}";
},
{
name = bottomleft;
position = "{130, 0}";
},
{
name = center;
position = "{265, 340}";
},
{
name = top;
position = "{267, 536}";
},
{
name = topleft;
position = "{71, 536}";
}
);
background = {
paths = (
{
closed = 1;
nodes = (
"380 167 OFFCURVE",
"453 296 OFFCURVE",
"453 423 CURVE SMOOTH",
"453 509 OFFCURVE",
"432 596 OFFCURVE",
"308 592 CURVE SMOOTH",
"190 588 OFFCURVE",
"110 594 OFFCURVE",
"66 594 CURVE SMOOTH",
"62 594 OFFCURVE",
"59 588 OFFCURVE",
"59 580 CURVE SMOOTH",
"59 573 OFFCURVE",
"62 565 OFFCURVE",
"72 564 CURVE SMOOTH",
"121 559 OFFCURVE",
"187 561 OFFCURVE",
"300 564 CURVE SMOOTH",
"408 567 OFFCURVE",
"426 499 OFFCURVE",
"426 422 CURVE SMOOTH",
"426 306 OFFCURVE",
"365 194 OFFCURVE",
"305 118 CURVE SMOOTH",
"294 104 OFFCURVE",
"322 97 OFFCURVE",
"332 109 CURVE SMOOTH"
);
}
);
};
layerId = "B853D75E-14CD-4000-B7A0-02101202F42C";
paths = (
{
closed = 1;
nodes = (
"388 165 OFFCURVE",
"453 296 OFFCURVE",
"453 423 CURVE SMOOTH",
"453 509 OFFCURVE",
"431 596 OFFCURVE",
"298 592 CURVE SMOOTH",
"186 589 OFFCURVE",
"144 590 OFFCURVE",
"102 592 CURVE SMOOTH",
"81 593 OFFCURVE",
"76 606 OFFCURVE",
"74 642 CURVE SMOOTH",
"74 650 OFFCURVE",
"59 654 OFFCURVE",
"57 646 CURVE SMOOTH",
"44 593 OFFCURVE",
"57 566 OFFCURVE",
"88 564 CURVE SMOOTH",
"135 561 OFFCURVE",
"182 561 OFFCURVE",
"290 564 CURVE SMOOTH",
"407 568 OFFCURVE",
"426 499 OFFCURVE",
"426 422 CURVE SMOOTH",
"426 306 OFFCURVE",
"373 191 OFFCURVE",
"315 118 CURVE SMOOTH",
"304 105 OFFCURVE",
"332 97 OFFCURVE",
"342 109 CURVE SMOOTH"
);
},
{
closed = 1;
nodes = (
"59 -52 OFFCURVE",
"124 -40 OFFCURVE",
"138 -21 CURVE SMOOTH",
"143 -14 OFFCURVE",
"148 -4 OFFCURVE",
"148 10 CURVE SMOOTH",
"148 63 OFFCURVE",
"100 279 OFFCURVE",
"100 361 CURVE SMOOTH",
"100 385 OFFCURVE",
"114 490 OFFCURVE",
"148 574 CURVE",
"121 573 LINE",
"93 498 OFFCURVE",
"74 399 OFFCURVE",
"74 354 CURVE SMOOTH",
"74 264 OFFCURVE",
"122 37 OFFCURVE",
"122 0 CURVE SMOOTH",
"122 -13 OFFCURVE",
"56 -24 OFFCURVE",
"20 -24 CURVE SMOOTH",
"8 -24 OFFCURVE",
"4 -30 OFFCURVE",
"4 -32 CURVE SMOOTH",
"4 -44 OFFCURVE",
"5 -52 OFFCURVE",
"19 -52 CURVE SMOOTH"
);
}
);
width = 498;
},
{
anchors = (
{
name = bottom;
position = "{370, 0}";
},
{
name = bottomleft;
position = "{63, -80}";
},
{
name = center;
position = "{287, 247}";
},
{
name = top;
position = "{335, 536}";
},
{
name = topleft;
position = "{67, 566}";
}
);
layerId = "79F23985-86A9-4934-8BAF-8AAE7E0AB6FA";
paths = (
{
closed = 1;
nodes = (
"478 149 OFFCURVE",
"525 224 OFFCURVE",
"525 343 CURVE SMOOTH",
"525 540 OFFCURVE",
"448 592 OFFCURVE",
"328 592 CURVE SMOOTH",
"210 589 OFFCURVE",
"166 590 OFFCURVE",
"114 592 CURVE SMOOTH",
"93 593 OFFCURVE",
"88 611 OFFCURVE",
"87 640 CURVE SMOOTH",
"86 655 OFFCURVE",
"45 654 OFFCURVE",
"44 646 CURVE SMOOTH",
"29 532 OFFCURVE",
"46 396 OFFCURVE",
"128 391 CURVE SMOOTH",
"190 387 OFFCURVE",
"257 392 OFFCURVE",
"320 394 CURVE SMOOTH",
"417 396 OFFCURVE",
"459 360 OFFCURVE",
"459 324 CURVE SMOOTH",
"459 235 OFFCURVE",
"396 163 OFFCURVE",
"344 124 CURVE SMOOTH",
"302 92 OFFCURVE",
"416 66 OFFCURVE",
"437 95 CURVE SMOOTH"
);
},
{
closed = 1;
nodes = (
"59 -110 OFFCURVE",
"97 -105 OFFCURVE",
"117 -80 CURVE SMOOTH",
"160 -27 OFFCURVE",
"180 87 OFFCURVE",
"180 137 CURVE SMOOTH",
"180 177 OFFCURVE",
"122 270 OFFCURVE",
"122 303 CURVE SMOOTH",
"122 343 OFFCURVE",
"136 372 OFFCURVE",
"171 424 CURVE",
"119 423 LINE",
"86 375 OFFCURVE",
"68 308 OFFCURVE",
"68 259 CURVE SMOOTH",
"68 203 OFFCURVE",
"111 120 OFFCURVE",
"111 102 CURVE SMOOTH",
"111 59 OFFCURVE",
"53 88 OFFCURVE",
"20 88 CURVE SMOOTH",
"-23 88 OFFCURVE",
"-36 -14 OFFCURVE",
"-36 -40 CURVE SMOOTH",
"-36 -83 OFFCURVE",
"-31 -110 OFFCURVE",
"19 -110 CURVE SMOOTH"
);
}
);
width = 550;
},
{
anchors = (
{
name = bottom;
position = "{331, 0}";
},
{
name = bottomleft;
position = "{97, -40}";
},
{
name = center;
position = "{276, 294}";
},
{
name = top;
position = "{301, 536}";
},
{
name = topleft;
position = "{69, 551}";
}
);
layerId = "6A5C4ED4-BBA5-4E07-B50E-1C6C5DE6A04B";
paths = (
{
closed = 1;
nodes = (
"432 157 OFFCURVE",
"489 260 OFFCURVE",
"489 383 CURVE SMOOTH",
"489 524 OFFCURVE",
"439 594 OFFCURVE",
"313 592 CURVE SMOOTH",
"198 589 OFFCURVE",
"155 590 OFFCURVE",
"108 592 CURVE SMOOTH",
"87 593 OFFCURVE",
"82 608 OFFCURVE",
"80 641 CURVE SMOOTH",
"80 652 OFFCURVE",
"52 654 OFFCURVE",
"51 646 CURVE SMOOTH",
"37 563 OFFCURVE",
"52 482 OFFCURVE",
"108 479 CURVE SMOOTH",
"162 475 OFFCURVE",
"219 478 OFFCURVE",
"305 480 CURVE SMOOTH",
"412 483 OFFCURVE",
"442 430 OFFCURVE",
"442 374 CURVE SMOOTH",
"442 271 OFFCURVE",
"384 177 OFFCURVE",
"329 121 CURVE SMOOTH",
"303 99 OFFCURVE",
"373 82 OFFCURVE",
"389 102 CURVE SMOOTH"
);
},
{
closed = 1;
nodes = (
"59 -81 OFFCURVE",
"111 -72 OFFCURVE",
"128 -50 CURVE SMOOTH",
"151 -20 OFFCURVE",
"164 41 OFFCURVE",
"164 73 CURVE SMOOTH",
"164 119 OFFCURVE",
"111 275 OFFCURVE",
"111 332 CURVE SMOOTH",
"111 364 OFFCURVE",
"125 432 OFFCURVE",
"159 500 CURVE",
"120 499 LINE",
"90 437 OFFCURVE",
"71 354 OFFCURVE",
"71 307 CURVE SMOOTH",
"71 234 OFFCURVE",
"117 78 OFFCURVE",
"117 50 CURVE SMOOTH",
"117 23 OFFCURVE",
"55 31 OFFCURVE",
"20 31 CURVE SMOOTH",
"-7 31 OFFCURVE",
"-16 -22 OFFCURVE",
"-16 -36 CURVE SMOOTH",
"-16 -63 OFFCURVE",
"-13 -81 OFFCURVE",
"19 -81 CURVE SMOOTH"
);
}
);
width = 523.68675;
}
);
unicode = 05EA;
},
{
glyphname = "nunhafukha-hb";
lastChange = "2019-12-23 03:33:39 +0000";
layers = (
{
background = {
paths = (
{
closed = 1;
nodes = (
"302 0 LINE",
"299 28 LINE",
"169 28 LINE SMOOTH",
"124 28 OFFCURVE",
"112 44 OFFCURVE",
"112 86 CURVE SMOOTH",
"112 516 LINE SMOOTH",
"112 553 OFFCURVE",
"127 564 OFFCURVE",
"154 564 CURVE SMOOTH",
"220 564 LINE SMOOTH",
"235 564 OFFCURVE",
"239 571 OFFCURVE",
"239 585 CURVE SMOOTH",
"239 597 OFFCURVE",
"236 625 OFFCURVE",
"232 647 CURVE",
"219 647 LINE",
"219 627 LINE SMOOTH",
"219 603 OFFCURVE",
"212 592 OFFCURVE",
"197 592 CURVE SMOOTH",
"154 592 LINE SMOOTH",
"107 592 OFFCURVE",
"87 572 OFFCURVE",
"87 523 CURVE SMOOTH",
"87 92 LINE SMOOTH",
"87 22 OFFCURVE",
"113 0 OFFCURVE",
"157 0 CURVE SMOOTH"
);
}
);
};
layerId = "B853D75E-14CD-4000-B7A0-02101202F42C";
paths = (
{
closed = 1;
nodes = (
"281 -12 OFFCURVE",
"288 -11 OFFCURVE",
"288 20 CURVE",
"269 18 OFFCURVE",
"258 16 OFFCURVE",
"249 16 CURVE SMOOTH",
"139 16 OFFCURVE",
"86 163 OFFCURVE",
"86 316 CURVE SMOOTH",
"86 465 OFFCURVE",
"102 564 OFFCURVE",
"149 564 CURVE SMOOTH",
"170 564 OFFCURVE",
"190 564 OFFCURVE",
"211 564 CURVE SMOOTH",
"242 565 OFFCURVE",
"255 594 OFFCURVE",
"242 646 CURVE SMOOTH",
"240 654 OFFCURVE",
"225 650 OFFCURVE",
"225 642 CURVE SMOOTH",
"225 606 OFFCURVE",
"218 593 OFFCURVE",
"197 592 CURVE SMOOTH",
"182 592 OFFCURVE",
"166 592 OFFCURVE",
"151 592 CURVE SMOOTH",
"83 592 OFFCURVE",
"55 484 OFFCURVE",
"57 318 CURVE SMOOTH",
"59 148 OFFCURVE",
"118 -12 OFFCURVE",
"251 -12 CURVE SMOOTH"
);
}
);
width = 329;
},
{
layerId = "79F23985-86A9-4934-8BAF-8AAE7E0AB6FA";
paths = (
{
closed = 1;
nodes = (
"315 -11 OFFCURVE",
"333 -4 OFFCURVE",
"333 192 CURVE",
"314 190 OFFCURVE",
"287 188 OFFCURVE",
"228 188 CURVE SMOOTH",
"156 188 OFFCURVE",
"101 224 OFFCURVE",
"101 315 CURVE SMOOTH",
"101 367 OFFCURVE",
"131 392 OFFCURVE",
"173 393 CURVE SMOOTH",
"209 394 OFFCURVE",
"240 393 OFFCURVE",
"287 395 CURVE SMOOTH",
"352 398 OFFCURVE",
"348 532 OFFCURVE",
"299 647 CURVE SMOOTH",
"296 655 OFFCURVE",
"257 656 OFFCURVE",
"256 641 CURVE SMOOTH",
"254 612 OFFCURVE",
"250 595 OFFCURVE",
"229 593 CURVE SMOOTH",
"214 592 OFFCURVE",
"204 593 OFFCURVE",
"185 592 CURVE SMOOTH",
"89 585 OFFCURVE",
"40 461 OFFCURVE",
"40 344 CURVE SMOOTH",
"40 147 OFFCURVE",
"144 -11 OFFCURVE",
"236 -11 CURVE SMOOTH"
);
}
);
width = 358;
},
{
layerId = "6A5C4ED4-BBA5-4E07-B50E-1C6C5DE6A04B";
paths = (
{
closed = 1;
nodes = (
"298 -12 OFFCURVE",
"310 -8 OFFCURVE",
"310 105 CURVE",
"291 103 OFFCURVE",
"272 101 OFFCURVE",
"239 101 CURVE SMOOTH",
"147 101 OFFCURVE",
"93 193 OFFCURVE",
"93 316 CURVE SMOOTH",
"93 417 OFFCURVE",
"116 479 OFFCURVE",
"161 480 CURVE SMOOTH",
"189 480 OFFCURVE",
"215 480 OFFCURVE",
"249 481 CURVE SMOOTH",
"296 483 OFFCURVE",
"301 563 OFFCURVE",
"270 646 CURVE SMOOTH",
"268 654 OFFCURVE",
"241 653 OFFCURVE",
"240 642 CURVE SMOOTH",
"239 609 OFFCURVE",
"234 594 OFFCURVE",
"213 592 CURVE SMOOTH",
"198 592 OFFCURVE",
"185 592 OFFCURVE",
"168 592 CURVE SMOOTH",
"86 589 OFFCURVE",
"48 473 OFFCURVE",
"49 331 CURVE SMOOTH",
"50 148 OFFCURVE",
"131 -12 OFFCURVE",
"244 -12 CURVE SMOOTH"
);
}
);
width = 343.3253;
}
);
note = uni05C6;
unicode = 05C6;
},
{
glyphname = "paseq-hb";
lastChange = "2019-12-23 03:33:39 +0000";
layers = (
{
layerId = "B853D75E-14CD-4000-B7A0-02101202F42C";
paths = (
{
closed = 1;
nodes = (
"289 -81 LINE SMOOTH",
"291 -81 OFFCURVE",
"293 -79 OFFCURVE",
"293 -77 CURVE SMOOTH",
"293 669 LINE SMOOTH",
"293 671 OFFCURVE",
"291 673 OFFCURVE",
"289 673 CURVE SMOOTH",
"269 673 LINE SMOOTH",
"267 673 OFFCURVE",
"265 671 OFFCURVE",
"265 669 CURVE SMOOTH",
"265 -77 LINE SMOOTH",
"265 -79 OFFCURVE",
"267 -81 OFFCURVE",
"269 -81 CURVE SMOOTH"
);
}
);
width = 558;
},
{
layerId = "79F23985-86A9-4934-8BAF-8AAE7E0AB6FA";
paths = (
{
closed = 1;
nodes = (
"313 -81 LINE SMOOTH",
"317 -81 OFFCURVE",
"320 -78 OFFCURVE",
"320 -74 CURVE SMOOTH",
"320 666 LINE SMOOTH",
"320 670 OFFCURVE",
"317 673 OFFCURVE",
"313 673 CURVE SMOOTH",
"246 673 LINE SMOOTH",
"242 673 OFFCURVE",
"239 670 OFFCURVE",
"239 666 CURVE SMOOTH",
"239 -74 LINE SMOOTH",
"239 -78 OFFCURVE",
"242 -81 OFFCURVE",
"246 -81 CURVE SMOOTH"
);
}
);
width = 559;
},
{
layerId = "6A5C4ED4-BBA5-4E07-B50E-1C6C5DE6A04B";
paths = (
{
closed = 1;
nodes = (
"301 -81 LINE SMOOTH",
"304 -81 OFFCURVE",
"306 -79 OFFCURVE",
"306 -76 CURVE SMOOTH",
"306 668 LINE SMOOTH",
"306 671 OFFCURVE",
"304 673 OFFCURVE",
"301 673 CURVE SMOOTH",
"258 673 LINE SMOOTH",
"255 673 OFFCURVE",
"252 671 OFFCURVE",
"252 668 CURVE SMOOTH",
"252 -76 LINE SMOOTH",
"252 -79 OFFCURVE",
"255 -81 OFFCURVE",
"258 -81 CURVE SMOOTH"
);
}
);
width = 558.49398;
}
);
note = paseq;
unicode = 05C0;
},
{
glyphname = "sofpasuq-hb";
lastChange = "2019-12-23 03:33:39 +0000";
layers = (
{
layerId = "B853D75E-14CD-4000-B7A0-02101202F42C";
paths = (
{
closed = 1;
nodes = (
"126 443 OFFCURVE",
"139 455 OFFCURVE",
"139 473 CURVE SMOOTH",
"139 489 OFFCURVE",
"126 501 OFFCURVE",
"110 501 CURVE SMOOTH",
"95 501 OFFCURVE",
"81 489 OFFCURVE",
"81 473 CURVE SMOOTH",
"81 455 OFFCURVE",
"95 443 OFFCURVE",
"110 443 CURVE SMOOTH"
);
},
{
closed = 1;
nodes = (
"126 -5 OFFCURVE",
"139 5 OFFCURVE",
"139 25 CURVE SMOOTH",
"139 42 OFFCURVE",
"126 53 OFFCURVE",
"110 53 CURVE SMOOTH",
"95 53 OFFCURVE",
"81 42 OFFCURVE",
"81 25 CURVE SMOOTH",
"81 5 OFFCURVE",
"95 -5 OFFCURVE",
"110 -5 CURVE SMOOTH"
);
}
);
width = 224;
},
{
layerId = "79F23985-86A9-4934-8BAF-8AAE7E0AB6FA";
paths = (
{
closed = 1;
nodes = (
"209 370 OFFCURVE",
"254 415 OFFCURVE",
"254 459 CURVE SMOOTH",
"254 504 OFFCURVE",
"209 548 OFFCURVE",
"158 548 CURVE SMOOTH",
"104 548 OFFCURVE",
"62 504 OFFCURVE",
"62 459 CURVE SMOOTH",
"62 415 OFFCURVE",
"104 370 OFFCURVE",
"158 370 CURVE SMOOTH"
);
},
{
closed = 1;
nodes = (
"209 -9 OFFCURVE",
"254 31 OFFCURVE",
"254 80 CURVE SMOOTH",
"254 125 OFFCURVE",
"209 169 OFFCURVE",
"158 169 CURVE SMOOTH",
"104 169 OFFCURVE",
"62 125 OFFCURVE",
"62 80 CURVE SMOOTH",
"62 31 OFFCURVE",
"104 -9 OFFCURVE",
"158 -9 CURVE SMOOTH"
);
}
);
width = 317;
},
{
layerId = "6A5C4ED4-BBA5-4E07-B50E-1C6C5DE6A04B";
paths = (
{
closed = 1;
nodes = (
"167 407 OFFCURVE",
"196 435 OFFCURVE",
"196 466 CURVE SMOOTH",
"196 496 OFFCURVE",
"167 524 OFFCURVE",
"134 524 CURVE SMOOTH",
"99 524 OFFCURVE",
"72 496 OFFCURVE",
"72 466 CURVE SMOOTH",
"72 435 OFFCURVE",
"99 407 OFFCURVE",
"134 407 CURVE SMOOTH"
);
},
{
closed = 1;
nodes = (
"167 -7 OFFCURVE",
"196 18 OFFCURVE",
"196 52 CURVE SMOOTH",
"196 83 OFFCURVE",
"167 110 OFFCURVE",
"134 110 CURVE SMOOTH",
"99 110 OFFCURVE",
"72 83 OFFCURVE",
"72 52 CURVE SMOOTH",
"72 18 OFFCURVE",
"99 -7 OFFCURVE",
"134 -7 CURVE SMOOTH"
);
}
);
width = 269.93976;
}
);
note = sofpasuq;
unicode = 05C3;
},
{
glyphname = "geresh-hb";
lastChange = "2019-12-23 03:33:39 +0000";
layers = (
{
layerId = "B853D75E-14CD-4000-B7A0-02101202F42C";
paths = (
{
closed = 1;
nodes = (
"99 488 OFFCURVE",
"119 520 OFFCURVE",
"119 574 CURVE SMOOTH",
"119 626 OFFCURVE",
"93 647 OFFCURVE",
"66 647 CURVE SMOOTH",
"47 647 OFFCURVE",
"33 636 OFFCURVE",
"33 613 CURVE SMOOTH",
"33 572 OFFCURVE",
"89 573 OFFCURVE",
"89 539 CURVE SMOOTH",
"89 516 OFFCURVE",
"77 502 OFFCURVE",
"45 478 CURVE",
"43 477 OFFCURVE",
"42 475 OFFCURVE",
"42 473 CURVE SMOOTH",
"42 460 LINE SMOOTH",
"42 457 OFFCURVE",
"44 455 OFFCURVE",
"47 457 CURVE SMOOTH"
);
}
);
width = 164;
},
{
layerId = "79F23985-86A9-4934-8BAF-8AAE7E0AB6FA";
paths = (
{
closed = 1;
nodes = (
"189 413 OFFCURVE",
"237 479 OFFCURVE",
"237 546 CURVE SMOOTH",
"237 606 OFFCURVE",
"203 647 OFFCURVE",
"139 647 CURVE SMOOTH",
"97 647 OFFCURVE",
"65 609 OFFCURVE",
"65 575 CURVE SMOOTH",
"65 528 OFFCURVE",
"135 516 OFFCURVE",
"135 482 CURVE SMOOTH",
"135 466 OFFCURVE",
"108 442 OFFCURVE",
"62 427 CURVE SMOOTH",
"58 426 OFFCURVE",
"56 423 OFFCURVE",
"56 419 CURVE SMOOTH",
"56 377 LINE SMOOTH",
"56 372 OFFCURVE",
"59 370 OFFCURVE",
"64 372 CURVE SMOOTH"
);
}
);
width = 293;
},
{
layerId = "6A5C4ED4-BBA5-4E07-B50E-1C6C5DE6A04B";
paths = (
{
closed = 1;
nodes = (
"143 451 OFFCURVE",
"177 500 OFFCURVE",
"177 560 CURVE SMOOTH",
"177 616 OFFCURVE",
"147 647 OFFCURVE",
"102 647 CURVE SMOOTH",
"72 647 OFFCURVE",
"49 623 OFFCURVE",
"49 594 CURVE SMOOTH",
"49 550 OFFCURVE",
"112 545 OFFCURVE",
"112 511 CURVE SMOOTH",
"112 491 OFFCURVE",
"92 472 OFFCURVE",
"53 453 CURVE",
"50 452 OFFCURVE",
"49 449 OFFCURVE",
"49 446 CURVE SMOOTH",
"49 419 LINE SMOOTH",
"49 415 OFFCURVE",
"51 413 OFFCURVE",
"55 415 CURVE SMOOTH"
);
}
);
width = 227.72289;
}
);
unicode = 05F3;
},
{
glyphname = "gershayim-hb";
lastChange = "2019-12-23 03:33:39 +0000";
layers = (
{
layerId = "B853D75E-14CD-4000-B7A0-02101202F42C";
paths = (
{
closed = 1;
nodes = (
"245 488 OFFCURVE",
"265 520 OFFCURVE",
"265 574 CURVE SMOOTH",
"265 626 OFFCURVE",
"239 647 OFFCURVE",
"212 647 CURVE SMOOTH",
"193 647 OFFCURVE",
"179 636 OFFCURVE",
"179 613 CURVE SMOOTH",
"179 572 OFFCURVE",
"235 573 OFFCURVE",
"235 539 CURVE SMOOTH",
"235 516 OFFCURVE",
"223 502 OFFCURVE",
"191 478 CURVE",
"189 477 OFFCURVE",
"188 475 OFFCURVE",
"188 473 CURVE SMOOTH",
"188 460 LINE SMOOTH",
"188 457 OFFCURVE",
"190 455 OFFCURVE",
"193 457 CURVE SMOOTH"
);
},
{
closed = 1;
nodes = (
"99 488 OFFCURVE",
"119 520 OFFCURVE",
"119 574 CURVE SMOOTH",
"119 626 OFFCURVE",
"93 647 OFFCURVE",
"66 647 CURVE SMOOTH",
"47 647 OFFCURVE",
"33 636 OFFCURVE",
"33 613 CURVE SMOOTH",
"33 572 OFFCURVE",
"89 573 OFFCURVE",
"89 539 CURVE SMOOTH",
"89 516 OFFCURVE",
"77 502 OFFCURVE",
"45 478 CURVE",
"43 477 OFFCURVE",
"42 475 OFFCURVE",
"42 473 CURVE SMOOTH",
"42 460 LINE SMOOTH",
"42 457 OFFCURVE",
"44 455 OFFCURVE",
"47 457 CURVE SMOOTH"
);
}
);
width = 310;
},
{
background = {
paths = (
{
closed = 1;
nodes = (
"187 402 OFFCURVE",
"237 465 OFFCURVE",
"237 546 CURVE SMOOTH",
"237 619 OFFCURVE",
"203 647 OFFCURVE",
"139 647 CURVE SMOOTH",
"97 647 OFFCURVE",
"65 622 OFFCURVE",
"65 575 CURVE SMOOTH",
"65 515 OFFCURVE",
"135 516 OFFCURVE",
"135 482 CURVE SMOOTH",
"135 465 OFFCURVE",
"106 435 OFFCURVE",
"56 425 CURVE",
"56 369 LINE"
);
},
{
closed = 1;
nodes = (
"395 402 OFFCURVE",
"445 465 OFFCURVE",
"445 546 CURVE SMOOTH",
"445 619 OFFCURVE",
"411 647 OFFCURVE",
"347 647 CURVE SMOOTH",
"305 647 OFFCURVE",
"273 622 OFFCURVE",
"273 575 CURVE SMOOTH",
"273 515 OFFCURVE",
"343 516 OFFCURVE",
"343 482 CURVE SMOOTH",
"343 465 OFFCURVE",
"314 435 OFFCURVE",
"264 425 CURVE",
"264 369 LINE"
);
}
);
};
layerId = "79F23985-86A9-4934-8BAF-8AAE7E0AB6FA";
paths = (
{
closed = 1;
nodes = (
"398 413 OFFCURVE",
"446 479 OFFCURVE",
"446 546 CURVE SMOOTH",
"446 606 OFFCURVE",
"412 647 OFFCURVE",
"348 647 CURVE SMOOTH",
"306 647 OFFCURVE",
"274 609 OFFCURVE",
"274 575 CURVE SMOOTH",
"274 528 OFFCURVE",
"344 516 OFFCURVE",
"344 482 CURVE SMOOTH",
"344 466 OFFCURVE",
"317 442 OFFCURVE",
"271 427 CURVE SMOOTH",
"267 426 OFFCURVE",
"265 423 OFFCURVE",
"265 419 CURVE SMOOTH",
"265 377 LINE SMOOTH",
"265 372 OFFCURVE",
"268 370 OFFCURVE",
"273 372 CURVE SMOOTH"
);
},
{
closed = 1;
nodes = (
"189 413 OFFCURVE",
"237 479 OFFCURVE",
"237 546 CURVE SMOOTH",
"237 606 OFFCURVE",
"203 647 OFFCURVE",
"139 647 CURVE SMOOTH",
"97 647 OFFCURVE",
"65 609 OFFCURVE",
"65 575 CURVE SMOOTH",
"65 528 OFFCURVE",
"135 516 OFFCURVE",
"135 482 CURVE SMOOTH",
"135 466 OFFCURVE",
"108 442 OFFCURVE",
"62 427 CURVE SMOOTH",
"58 426 OFFCURVE",
"56 423 OFFCURVE",
"56 419 CURVE SMOOTH",
"56 377 LINE SMOOTH",
"56 372 OFFCURVE",
"59 370 OFFCURVE",
"64 372 CURVE SMOOTH"
);
}
);
width = 501;
},
{
layerId = "6A5C4ED4-BBA5-4E07-B50E-1C6C5DE6A04B";
paths = (
{
closed = 1;
nodes = (
"321 451 OFFCURVE",
"354 500 OFFCURVE",
"354 560 CURVE SMOOTH",
"354 616 OFFCURVE",
"324 647 OFFCURVE",
"279 647 CURVE SMOOTH",
"249 647 OFFCURVE",
"226 623 OFFCURVE",
"226 594 CURVE SMOOTH",
"226 550 OFFCURVE",
"289 545 OFFCURVE",
"289 511 CURVE SMOOTH",
"289 491 OFFCURVE",
"269 472 OFFCURVE",
"231 453 CURVE",
"228 452 OFFCURVE",
"226 449 OFFCURVE",
"226 446 CURVE SMOOTH",
"226 419 LINE SMOOTH",
"226 415 OFFCURVE",
"229 413 OFFCURVE",
"233 415 CURVE SMOOTH"
);
},
{
closed = 1;
nodes = (
"143 451 OFFCURVE",
"177 500 OFFCURVE",
"177 560 CURVE SMOOTH",
"177 616 OFFCURVE",
"147 647 OFFCURVE",
"102 647 CURVE SMOOTH",
"72 647 OFFCURVE",
"49 623 OFFCURVE",
"49 594 CURVE SMOOTH",
"49 550 OFFCURVE",
"112 545 OFFCURVE",
"112 511 CURVE SMOOTH",
"112 491 OFFCURVE",
"92 472 OFFCURVE",
"53 453 CURVE",
"50 452 OFFCURVE",
"49 449 OFFCURVE",
"49 446 CURVE SMOOTH",
"49 419 LINE SMOOTH",
"49 415 OFFCURVE",
"51 413 OFFCURVE",
"55 415 CURVE SMOOTH"
);
}
);
width = 404.3494;
}
);
unicode = 05F4;
},
{
glyphname = "maqaf-hb";
lastChange = "2019-12-23 03:33:39 +0000";
layers = (
{
layerId = "B853D75E-14CD-4000-B7A0-02101202F42C";
paths = (
{
closed = 1;
nodes = (
"281 564 LINE SMOOTH",
"283 564 OFFCURVE",
"285 566 OFFCURVE",
"285 568 CURVE SMOOTH",
"285 588 LINE SMOOTH",
"285 590 OFFCURVE",
"283 592 OFFCURVE",
"281 592 CURVE SMOOTH",
"29 592 LINE SMOOTH",
"27 592 OFFCURVE",
"25 590 OFFCURVE",
"25 588 CURVE SMOOTH",
"25 568 LINE SMOOTH",
"25 566 OFFCURVE",
"27 564 OFFCURVE",
"29 564 CURVE SMOOTH"
);
}
);
width = 310;
},
{
layerId = "79F23985-86A9-4934-8BAF-8AAE7E0AB6FA";
paths = (
{
closed = 1;
nodes = (
"278 393 LINE SMOOTH",
"282 393 OFFCURVE",
"285 396 OFFCURVE",
"285 400 CURVE SMOOTH",
"285 585 LINE SMOOTH",
"285 589 OFFCURVE",
"282 592 OFFCURVE",
"278 592 CURVE SMOOTH",
"32 592 LINE SMOOTH",
"28 592 OFFCURVE",
"25 589 OFFCURVE",
"25 585 CURVE SMOOTH",
"25 400 LINE SMOOTH",
"25 396 OFFCURVE",
"28 393 OFFCURVE",
"32 393 CURVE SMOOTH"
);
}
);
width = 310;
},
{
layerId = "6A5C4ED4-BBA5-4E07-B50E-1C6C5DE6A04B";
paths = (
{
closed = 1;
nodes = (
"280 480 LINE SMOOTH",
"283 480 OFFCURVE",
"285 482 OFFCURVE",
"285 485 CURVE SMOOTH",
"285 587 LINE SMOOTH",
"285 590 OFFCURVE",
"283 592 OFFCURVE",
"280 592 CURVE SMOOTH",
"30 592 LINE SMOOTH",
"27 592 OFFCURVE",
"25 590 OFFCURVE",
"25 587 CURVE SMOOTH",
"25 485 LINE SMOOTH",
"25 482 OFFCURVE",
"27 480 OFFCURVE",
"30 480 CURVE SMOOTH"
);
}
);
width = 310;
}
);
unicode = 05BE;
},
{
glyphname = "shindot-hb";
lastChange = "2019-12-23 03:33:39 +0000";
layers = (
{
anchors = (
{
name = _topright;
position = "{72, 536}";
}
);
layerId = "B853D75E-14CD-4000-B7A0-02101202F42C";
paths = (
{
closed = 1;
nodes = (
"84 672 OFFCURVE",
"94 681 OFFCURVE",
"94 695 CURVE SMOOTH",
"94 707 OFFCURVE",
"84 716 OFFCURVE",
"72 716 CURVE SMOOTH",
"61 716 OFFCURVE",
"50 707 OFFCURVE",
"50 695 CURVE SMOOTH",
"50 681 OFFCURVE",
"61 672 OFFCURVE",
"72 672 CURVE SMOOTH"
);
}
);
width = 144;
},
{
anchors = (
{
name = _topright;
position = "{101, 536}";
}
);
layerId = "79F23985-86A9-4934-8BAF-8AAE7E0AB6FA";
paths = (
{
closed = 1;
nodes = (
"129 673 OFFCURVE",
"152 694 OFFCURVE",
"152 715 CURVE SMOOTH",
"152 734 OFFCURVE",
"129 757 OFFCURVE",
"101 757 CURVE SMOOTH",
"73 757 OFFCURVE",
"50 734 OFFCURVE",
"50 715 CURVE SMOOTH",
"50 694 OFFCURVE",
"73 673 OFFCURVE",
"101 673 CURVE SMOOTH"
);
}
);
width = 202;
},
{
anchors = (
{
name = _topright;
position = "{86, 536}";
}
);
layerId = "6A5C4ED4-BBA5-4E07-B50E-1C6C5DE6A04B";
paths = (
{
closed = 1;
nodes = (
"106 672 OFFCURVE",
"123 687 OFFCURVE",
"123 705 CURVE SMOOTH",
"123 720 OFFCURVE",
"106 736 OFFCURVE",
"86 736 CURVE SMOOTH",
"67 736 OFFCURVE",
"50 720 OFFCURVE",
"50 705 CURVE SMOOTH",
"50 687 OFFCURVE",
"67 672 OFFCURVE",
"86 672 CURVE SMOOTH"
);
}
);
width = 172.6506;
}
);
note = shindot;
unicode = 05C1;
},
{
glyphname = "etnahtaleft-hb";
lastChange = "2019-12-23 03:33:39 +0000";
layers = (
{
anchors = (
{
name = _bottomleft;
position = "{104, 0}";
}
);
layerId = "B853D75E-14CD-4000-B7A0-02101202F42C";
paths = (
{
closed = 1;
nodes = (
"74 -215 LINE SMOOTH",
"76 -215 OFFCURVE",
"78 -214 OFFCURVE",
"77 -211 CURVE",
"76 -202 OFFCURVE",
"76 -188 OFFCURVE",
"76 -183 CURVE SMOOTH",
"76 -158 OFFCURVE",
"86 -146 OFFCURVE",
"104 -146 CURVE SMOOTH",
"123 -146 OFFCURVE",
"133 -158 OFFCURVE",
"133 -184 CURVE SMOOTH",
"133 -190 OFFCURVE",
"133 -203 OFFCURVE",
"132 -212 CURVE",
"131 -215 OFFCURVE",
"134 -217 OFFCURVE",
"136 -217 CURVE SMOOTH",
"153 -215 LINE SMOOTH",
"155 -215 OFFCURVE",
"157 -214 OFFCURVE",
"157 -211 CURVE SMOOTH",
"158 -202 OFFCURVE",
"159 -187 OFFCURVE",
"159 -180 CURVE SMOOTH",
"159 -167 OFFCURVE",
"159 -157 OFFCURVE",
"152 -146 CURVE SMOOTH",
"146 -136 OFFCURVE",
"136 -127 OFFCURVE",
"121 -123 CURVE",
"119 -122 OFFCURVE",
"118 -120 OFFCURVE",
"118 -118 CURVE SMOOTH",
"118 -89 LINE SMOOTH",
"118 -87 OFFCURVE",
"116 -85 OFFCURVE",
"114 -85 CURVE SMOOTH",
"96 -87 LINE SMOOTH",
"94 -87 OFFCURVE",
"92 -89 OFFCURVE",
"92 -91 CURVE SMOOTH",
"92 -118 LINE SMOOTH",
"92 -120 OFFCURVE",
"91 -122 OFFCURVE",
"89 -123 CURVE",
"73 -127 OFFCURVE",
"63 -135 OFFCURVE",
"58 -146 CURVE SMOOTH",
"53 -158 OFFCURVE",
"50 -168 OFFCURVE",
"50 -183 CURVE SMOOTH",
"50 -190 OFFCURVE",
"51 -204 OFFCURVE",
"52 -213 CURVE SMOOTH",
"52 -216 OFFCURVE",
"54 -217 OFFCURVE",
"56 -217 CURVE SMOOTH"
);
}
);
width = 209;
},
{
anchors = (
{
name = _bottomleft;
position = "{158, 0}";
}
);
layerId = "79F23985-86A9-4934-8BAF-8AAE7E0AB6FA";
paths = (
{
closed = 1;
nodes = (
"96 -276 LINE SMOOTH",
"100 -276 OFFCURVE",
"102 -273 OFFCURVE",
"102 -269 CURVE SMOOTH",
"100 -255 OFFCURVE",
"100 -243 OFFCURVE",
"100 -232 CURVE SMOOTH",
"100 -184 OFFCURVE",
"119 -160 OFFCURVE",
"155 -160 CURVE SMOOTH",
"190 -160 OFFCURVE",
"212 -185 OFFCURVE",
"212 -234 CURVE SMOOTH",
"212 -247 OFFCURVE",
"211 -257 OFFCURVE",
"209 -271 CURVE SMOOTH",
"209 -276 OFFCURVE",
"211 -278 OFFCURVE",
"216 -278 CURVE SMOOTH",
"252 -276 LINE SMOOTH",
"256 -276 OFFCURVE",
"259 -274 OFFCURVE",
"259 -269 CURVE SMOOTH",
"260 -256 OFFCURVE",
"261 -242 OFFCURVE",
"261 -227 CURVE SMOOTH",
"261 -201 OFFCURVE",
"260 -184 OFFCURVE",
"247 -160 CURVE SMOOTH",
"236 -139 OFFCURVE",
"217 -123 OFFCURVE",
"188 -116 CURVE",
"184 -114 OFFCURVE",
"182 -112 OFFCURVE",
"182 -108 CURVE SMOOTH",
"182 -68 LINE SMOOTH",
"182 -64 OFFCURVE",
"179 -61 OFFCURVE",
"175 -61 CURVE SMOOTH",
"137 -64 LINE SMOOTH",
"133 -64 OFFCURVE",
"130 -67 OFFCURVE",
"130 -71 CURVE SMOOTH",
"130 -108 LINE SMOOTH",
"130 -112 OFFCURVE",
"128 -114 OFFCURVE",
"124 -115 CURVE SMOOTH",
"95 -123 OFFCURVE",
"76 -139 OFFCURVE",
"65 -161 CURVE SMOOTH",
"54 -184 OFFCURVE",
"50 -203 OFFCURVE",
"50 -232 CURVE SMOOTH",
"50 -246 OFFCURVE",
"51 -259 OFFCURVE",
"52 -272 CURVE SMOOTH",
"53 -277 OFFCURVE",
"56 -279 OFFCURVE",
"60 -279 CURVE SMOOTH"
);
}
);
width = 311;
},
{
anchors = (
{
name = _bottomleft;
position = "{131, 0}";
}
);
layerId = "6A5C4ED4-BBA5-4E07-B50E-1C6C5DE6A04B";
paths = (
{
closed = 1;
nodes = (
"85 -245 LINE SMOOTH",
"88 -245 OFFCURVE",
"90 -243 OFFCURVE",
"89 -240 CURVE",
"88 -228 OFFCURVE",
"88 -215 OFFCURVE",
"88 -207 CURVE SMOOTH",
"88 -171 OFFCURVE",
"102 -153 OFFCURVE",
"129 -153 CURVE SMOOTH",
"156 -153 OFFCURVE",
"172 -171 OFFCURVE",
"172 -209 CURVE SMOOTH",
"172 -218 OFFCURVE",
"172 -230 OFFCURVE",
"170 -241 CURVE",
"170 -245 OFFCURVE",
"172 -247 OFFCURVE",
"176 -247 CURVE SMOOTH",
"202 -245 LINE SMOOTH",
"205 -245 OFFCURVE",
"207 -244 OFFCURVE",
"207 -240 CURVE SMOOTH",
"208 -229 OFFCURVE",
"209 -214 OFFCURVE",
"209 -203 CURVE SMOOTH",
"209 -184 OFFCURVE",
"209 -170 OFFCURVE",
"199 -153 CURVE SMOOTH",
"190 -137 OFFCURVE",
"176 -125 OFFCURVE",
"154 -120 CURVE",
"151 -118 OFFCURVE",
"150 -116 OFFCURVE",
"150 -113 CURVE SMOOTH",
"150 -79 LINE SMOOTH",
"150 -76 OFFCURVE",
"147 -73 OFFCURVE",
"144 -73 CURVE SMOOTH",
"116 -76 LINE SMOOTH",
"113 -76 OFFCURVE",
"111 -78 OFFCURVE",
"111 -81 CURVE SMOOTH",
"111 -113 LINE SMOOTH",
"111 -116 OFFCURVE",
"109 -118 OFFCURVE",
"106 -119 CURVE",
"84 -125 OFFCURVE",
"69 -137 OFFCURVE",
"61 -153 CURVE SMOOTH",
"53 -171 OFFCURVE",
"50 -185 OFFCURVE",
"50 -207 CURVE SMOOTH",
"50 -218 OFFCURVE",
"51 -231 OFFCURVE",
"52 -242 CURVE SMOOTH",
"52 -246 OFFCURVE",
"55 -248 OFFCURVE",
"58 -248 CURVE SMOOTH"
);
}
);
width = 259.38554;
}
);
note = uni0591;
unicode = 0591;
},
{
glyphname = "segolta-hb";
lastChange = "2019-12-23 03:33:39 +0000";
layers = (
{
anchors = (
{
name = _topleft;
position = "{179, 536}";
}
);
layerId = "B853D75E-14CD-4000-B7A0-02101202F42C";
paths = (
{
closed = 1;
nodes = (
"131 749 OFFCURVE",
"141 758 OFFCURVE",
"141 772 CURVE SMOOTH",
"141 784 OFFCURVE",
"131 793 OFFCURVE",
"119 793 CURVE SMOOTH",
"108 793 OFFCURVE",
"97 784 OFFCURVE",
"97 772 CURVE SMOOTH",
"97 758 OFFCURVE",
"108 749 OFFCURVE",
"119 749 CURVE SMOOTH"
);
},
{
closed = 1;
nodes = (
"84 672 OFFCURVE",
"94 681 OFFCURVE",
"94 695 CURVE SMOOTH",
"94 707 OFFCURVE",
"84 716 OFFCURVE",
"72 716 CURVE SMOOTH",
"61 716 OFFCURVE",
"50 707 OFFCURVE",
"50 695 CURVE SMOOTH",
"50 681 OFFCURVE",
"61 672 OFFCURVE",
"72 672 CURVE SMOOTH"
);
},
{
closed = 1;
nodes = (
"179 672 OFFCURVE",
"189 681 OFFCURVE",
"189 695 CURVE SMOOTH",
"189 707 OFFCURVE",
"179 716 OFFCURVE",
"167 716 CURVE SMOOTH",
"156 716 OFFCURVE",
"145 707 OFFCURVE",
"145 695 CURVE SMOOTH",
"145 681 OFFCURVE",
"156 672 OFFCURVE",
"167 672 CURVE SMOOTH"
);
}
);
width = 239;
},
{
anchors = (
{
name = _topleft;
position = "{230, 536}";
}
);
layerId = "79F23985-86A9-4934-8BAF-8AAE7E0AB6FA";
paths = (
{
closed = 1;
nodes = (
"193 778 OFFCURVE",
"216 799 OFFCURVE",
"216 820 CURVE SMOOTH",
"216 839 OFFCURVE",
"193 862 OFFCURVE",
"165 862 CURVE SMOOTH",
"137 862 OFFCURVE",
"114 839 OFFCURVE",
"114 820 CURVE SMOOTH",
"114 799 OFFCURVE",
"137 778 OFFCURVE",
"165 778 CURVE SMOOTH"
);
},
{
closed = 1;
nodes = (
"129 673 OFFCURVE",
"152 694 OFFCURVE",
"152 715 CURVE SMOOTH",
"152 734 OFFCURVE",
"129 757 OFFCURVE",
"101 757 CURVE SMOOTH",
"73 757 OFFCURVE",
"50 734 OFFCURVE",
"50 715 CURVE SMOOTH",
"50 694 OFFCURVE",
"73 673 OFFCURVE",
"101 673 CURVE SMOOTH"
);
},
{
closed = 1;
nodes = (
"258 673 OFFCURVE",
"281 694 OFFCURVE",
"281 715 CURVE SMOOTH",
"281 734 OFFCURVE",
"258 757 OFFCURVE",
"230 757 CURVE SMOOTH",
"202 757 OFFCURVE",
"179 734 OFFCURVE",
"179 715 CURVE SMOOTH",
"179 694 OFFCURVE",
"202 673 OFFCURVE",
"230 673 CURVE SMOOTH"
);
}
);
width = 331;
},
{
anchors = (
{
name = _topleft;
position = "{204, 536}";
}
);
layerId = "6A5C4ED4-BBA5-4E07-B50E-1C6C5DE6A04B";
paths = (
{
closed = 1;
nodes = (
"162 763 OFFCURVE",
"178 778 OFFCURVE",
"178 796 CURVE SMOOTH",
"178 811 OFFCURVE",
"162 827 OFFCURVE",
"142 827 CURVE SMOOTH",
"122 827 OFFCURVE",
"105 811 OFFCURVE",
"105 796 CURVE SMOOTH",
"105 778 OFFCURVE",
"122 763 OFFCURVE",
"142 763 CURVE SMOOTH"
);
},
{
closed = 1;
nodes = (
"106 672 OFFCURVE",
"123 687 OFFCURVE",
"123 705 CURVE SMOOTH",
"123 720 OFFCURVE",
"106 736 OFFCURVE",
"86 736 CURVE SMOOTH",
"67 736 OFFCURVE",
"50 720 OFFCURVE",
"50 705 CURVE SMOOTH",
"50 687 OFFCURVE",
"67 672 OFFCURVE",
"86 672 CURVE SMOOTH"
);
},
{
closed = 1;
nodes = (
"218 672 OFFCURVE",
"234 687 OFFCURVE",
"234 705 CURVE SMOOTH",
"234 720 OFFCURVE",
"218 736 OFFCURVE",
"198 736 CURVE SMOOTH",
"179 736 OFFCURVE",
"162 720 OFFCURVE",
"162 705 CURVE SMOOTH",
"162 687 OFFCURVE",
"179 672 OFFCURVE",
"198 672 CURVE SMOOTH"
);
}
);
width = 284.44578;
}
);
note = uni0592;
unicode = 0592;
},
{
glyphname = "shalshelet-hb";
lastChange = "2019-12-23 03:33:39 +0000";
layers = (
{
anchors = (
{
name = _top;
position = "{94, 536}";
}
);
layerId = "B853D75E-14CD-4000-B7A0-02101202F42C";
paths = (
{
closed = 1;
nodes = (
"82 652 LINE SMOOTH",
"83 652 OFFCURVE",
"86 652 OFFCURVE",
"87 653 CURVE",
"133 675 LINE",
"136 677 OFFCURVE",
"136 680 OFFCURVE",
"133 681 CURVE",
"96 701 LINE SMOOTH",
"94 702 OFFCURVE",
"94 706 OFFCURVE",
"96 707 CURVE SMOOTH",
"133 727 LINE SMOOTH",
"135 728 OFFCURVE",
"135 732 OFFCURVE",
"133 733 CURVE SMOOTH",
"96 753 LINE SMOOTH",
"94 754 OFFCURVE",
"94 758 OFFCURVE",
"96 759 CURVE SMOOTH",
"129 777 LINE SMOOTH",
"132 779 OFFCURVE",
"132 782 OFFCURVE",
"128 782 CURVE SMOOTH",
"100 782 LINE SMOOTH",
"98 782 OFFCURVE",
"96 782 OFFCURVE",
"95 781 CURVE",
"55 759 LINE SMOOTH",
"53 758 OFFCURVE",
"53 754 OFFCURVE",
"55 753 CURVE SMOOTH",
"92 733 LINE SMOOTH",
"94 732 OFFCURVE",
"94 728 OFFCURVE",
"92 727 CURVE SMOOTH",
"55 707 LINE SMOOTH",
"53 706 OFFCURVE",
"53 702 OFFCURVE",
"55 701 CURVE SMOOTH",
"92 681 LINE SMOOTH",
"94 680 OFFCURVE",
"94 676 OFFCURVE",
"92 675 CURVE SMOOTH",
"59 657 LINE SMOOTH",
"56 655 OFFCURVE",
"56 652 OFFCURVE",
"60 652 CURVE SMOOTH"
);
}
);
width = 188;
},
{
anchors = (
{
name = _top;
position = "{137, 536}";
}
);
layerId = "79F23985-86A9-4934-8BAF-8AAE7E0AB6FA";
paths = (
{
closed = 1;
nodes = (
"115 642 LINE SMOOTH",
"118 642 OFFCURVE",
"121 642 OFFCURVE",
"124 644 CURVE",
"215 688 LINE SMOOTH",
"220 691 OFFCURVE",
"220 694 OFFCURVE",
"215 697 CURVE SMOOTH",
"141 739 LINE SMOOTH",
"136 742 OFFCURVE",
"136 746 OFFCURVE",
"141 749 CURVE SMOOTH",
"215 789 LINE SMOOTH",
"220 792 OFFCURVE",
"220 796 OFFCURVE",
"215 799 CURVE SMOOTH",
"141 840 LINE SMOOTH",
"136 843 OFFCURVE",
"136 847 OFFCURVE",
"141 850 CURVE SMOOTH",
"209 888 LINE SMOOTH",
"215 892 OFFCURVE",
"214 896 OFFCURVE",
"207 896 CURVE SMOOTH",
"147 896 LINE SMOOTH",
"144 896 OFFCURVE",
"141 895 OFFCURVE",
"138 894 CURVE",
"59 850 LINE SMOOTH",
"54 847 OFFCURVE",
"54 843 OFFCURVE",
"59 840 CURVE SMOOTH",
"133 799 LINE SMOOTH",
"138 796 OFFCURVE",
"138 792 OFFCURVE",
"133 789 CURVE SMOOTH",
"59 749 LINE SMOOTH",
"54 746 OFFCURVE",
"54 742 OFFCURVE",
"59 739 CURVE SMOOTH",
"133 697 LINE SMOOTH",
"138 694 OFFCURVE",
"138 690 OFFCURVE",
"133 687 CURVE SMOOTH",
"65 650 LINE SMOOTH",
"58 646 OFFCURVE",
"61 642 OFFCURVE",
"68 642 CURVE SMOOTH"
);
}
);
width = 274;
},
{
anchors = (
{
name = _top;
position = "{115, 536}";
}
);
layerId = "6A5C4ED4-BBA5-4E07-B50E-1C6C5DE6A04B";
paths = (
{
closed = 1;
nodes = (
"98 647 LINE SMOOTH",
"100 647 OFFCURVE",
"103 647 OFFCURVE",
"105 649 CURVE",
"174 681 LINE",
"177 684 OFFCURVE",
"177 687 OFFCURVE",
"174 689 CURVE",
"118 720 LINE SMOOTH",
"115 722 OFFCURVE",
"115 726 OFFCURVE",
"118 728 CURVE SMOOTH",
"174 758 LINE SMOOTH",
"177 760 OFFCURVE",
"177 764 OFFCURVE",
"174 766 CURVE SMOOTH",
"118 796 LINE SMOOTH",
"115 798 OFFCURVE",
"115 802 OFFCURVE",
"118 804 CURVE SMOOTH",
"169 832 LINE SMOOTH",
"173 835 OFFCURVE",
"173 838 OFFCURVE",
"167 838 CURVE SMOOTH",
"123 838 LINE SMOOTH",
"121 838 OFFCURVE",
"118 838 OFFCURVE",
"116 837 CURVE",
"57 804 LINE SMOOTH",
"53 802 OFFCURVE",
"53 798 OFFCURVE",
"57 796 CURVE SMOOTH",
"112 766 LINE SMOOTH",
"116 764 OFFCURVE",
"116 760 OFFCURVE",
"112 758 CURVE SMOOTH",
"57 728 LINE SMOOTH",
"53 726 OFFCURVE",
"53 722 OFFCURVE",
"57 720 CURVE SMOOTH",
"112 689 LINE SMOOTH",
"116 687 OFFCURVE",
"116 683 OFFCURVE",
"112 681 CURVE SMOOTH",
"62 654 LINE SMOOTH",
"57 651 OFFCURVE",
"58 647 OFFCURVE",
"64 647 CURVE SMOOTH"
);
}
);
width = 230.48193;
}
);
note = uni0593;
unicode = 0593;
},
{
glyphname = "zaqefqatan-hb";
lastChange = "2019-12-23 03:33:39 +0000";
layers = (
{
anchors = (
{
name = _top;
position = "{72, 536}";
}
);
layerId = "B853D75E-14CD-4000-B7A0-02101202F42C";
paths = (
{
closed = 1;
nodes = (
"84 749 OFFCURVE",
"94 758 OFFCURVE",
"94 772 CURVE SMOOTH",
"94 784 OFFCURVE",
"84 793 OFFCURVE",
"72 793 CURVE SMOOTH",
"61 793 OFFCURVE",
"50 784 OFFCURVE",
"50 772 CURVE SMOOTH",
"50 758 OFFCURVE",
"61 749 OFFCURVE",
"72 749 CURVE SMOOTH"
);
},
{
closed = 1;
nodes = (
"84 672 OFFCURVE",
"94 681 OFFCURVE",
"94 695 CURVE SMOOTH",
"94 707 OFFCURVE",
"84 716 OFFCURVE",
"72 716 CURVE SMOOTH",
"61 716 OFFCURVE",
"50 707 OFFCURVE",
"50 695 CURVE SMOOTH",
"50 681 OFFCURVE",
"61 672 OFFCURVE",
"72 672 CURVE SMOOTH"
);
}
);
width = 144;
},
{
anchors = (
{
name = _top;
position = "{101, 536}";
}
);
layerId = "79F23985-86A9-4934-8BAF-8AAE7E0AB6FA";
paths = (
{
closed = 1;
nodes = (
"129 778 OFFCURVE",
"152 799 OFFCURVE",
"152 820 CURVE SMOOTH",
"152 839 OFFCURVE",
"129 862 OFFCURVE",
"101 862 CURVE SMOOTH",
"73 862 OFFCURVE",
"50 839 OFFCURVE",
"50 820 CURVE SMOOTH",
"50 799 OFFCURVE",
"73 778 OFFCURVE",
"101 778 CURVE SMOOTH"
);
},
{
closed = 1;
nodes = (
"129 673 OFFCURVE",
"152 694 OFFCURVE",
"152 715 CURVE SMOOTH",
"152 734 OFFCURVE",
"129 757 OFFCURVE",
"101 757 CURVE SMOOTH",
"73 757 OFFCURVE",
"50 734 OFFCURVE",
"50 715 CURVE SMOOTH",
"50 694 OFFCURVE",
"73 673 OFFCURVE",
"101 673 CURVE SMOOTH"
);
}
);
width = 202;
},
{
anchors = (
{
name = _top;
position = "{86, 536}";
}
);
layerId = "6A5C4ED4-BBA5-4E07-B50E-1C6C5DE6A04B";
paths = (
{
closed = 1;
nodes = (
"106 763 OFFCURVE",
"123 778 OFFCURVE",
"123 796 CURVE SMOOTH",
"123 811 OFFCURVE",
"106 827 OFFCURVE",
"86 827 CURVE SMOOTH",
"67 827 OFFCURVE",
"50 811 OFFCURVE",
"50 796 CURVE SMOOTH",
"50 778 OFFCURVE",
"67 763 OFFCURVE",
"86 763 CURVE SMOOTH"
);
},
{
closed = 1;
nodes = (
"106 672 OFFCURVE",
"123 687 OFFCURVE",
"123 705 CURVE SMOOTH",
"123 720 OFFCURVE",
"106 736 OFFCURVE",
"86 736 CURVE SMOOTH",
"67 736 OFFCURVE",
"50 720 OFFCURVE",
"50 705 CURVE SMOOTH",
"50 687 OFFCURVE",
"67 672 OFFCURVE",
"86 672 CURVE SMOOTH"
);
}
);
width = 172.6506;
}
);
note = uni0594;
unicode = 0594;
},
{
glyphname = "zaqefgadol-hb";
lastChange = "2019-12-23 03:33:39 +0000";
layers = (
{
anchors = (
{
name = _top;
position = "{97, 536}";
}
);
layerId = "B853D75E-14CD-4000-B7A0-02101202F42C";
paths = (
{
closed = 1;
nodes = (
"71 673 LINE SMOOTH",
"73 673 OFFCURVE",
"75 675 OFFCURVE",
"75 677 CURVE SMOOTH",
"75 791 LINE SMOOTH",
"75 793 OFFCURVE",
"73 794 OFFCURVE",
"71 794 CURVE SMOOTH",
"54 792 LINE SMOOTH",
"52 792 OFFCURVE",
"50 790 OFFCURVE",
"50 788 CURVE SMOOTH",
"50 674 LINE SMOOTH",
"50 672 OFFCURVE",
"52 671 OFFCURVE",
"54 671 CURVE SMOOTH"
);
},
{
closed = 1;
nodes = (
"144 672 OFFCURVE",
"154 681 OFFCURVE",
"154 695 CURVE SMOOTH",
"154 707 OFFCURVE",
"144 716 OFFCURVE",
"132 716 CURVE SMOOTH",
"121 716 OFFCURVE",
"110 707 OFFCURVE",
"110 695 CURVE SMOOTH",
"110 681 OFFCURVE",
"121 672 OFFCURVE",
"132 672 CURVE SMOOTH"
);
},
{
closed = 1;
nodes = (
"144 749 OFFCURVE",
"154 758 OFFCURVE",
"154 772 CURVE SMOOTH",
"154 784 OFFCURVE",
"144 793 OFFCURVE",
"132 793 CURVE SMOOTH",
"121 793 OFFCURVE",
"110 784 OFFCURVE",
"110 772 CURVE SMOOTH",
"110 758 OFFCURVE",
"121 749 OFFCURVE",
"132 749 CURVE SMOOTH"
);
}
);
width = 204;
},
{
anchors = (
{
name = _top;
position = "{139, 536}";
}
);
background = {
paths = (
{
closed = 1;
nodes = (
"225 673 OFFCURVE",
"248 686 OFFCURVE",
"248 715 CURVE SMOOTH",
"248 743 OFFCURVE",
"225 757 OFFCURVE",
"197 757 CURVE SMOOTH",
"169 757 OFFCURVE",
"146 743 OFFCURVE",
"146 715 CURVE SMOOTH",
"146 686 OFFCURVE",
"169 673 OFFCURVE",
"197 673 CURVE SMOOTH"
);
},
{
closed = 1;
nodes = (
"223 778 OFFCURVE",
"248 791 OFFCURVE",
"248 820 CURVE SMOOTH",
"248 848 OFFCURVE",
"223 862 OFFCURVE",
"197 862 CURVE SMOOTH",
"168 862 OFFCURVE",
"146 848 OFFCURVE",
"146 820 CURVE",
"146 791 OFFCURVE",
"168 778 OFFCURVE",
"197 778 CURVE SMOOTH"
);
}
);
};
layerId = "79F23985-86A9-4934-8BAF-8AAE7E0AB6FA";
paths = (
{
closed = 1;
nodes = (
"100 676 LINE SMOOTH",
"104 676 OFFCURVE",
"107 679 OFFCURVE",
"107 683 CURVE SMOOTH",
"107 855 LINE SMOOTH",
"107 859 OFFCURVE",
"104 862 OFFCURVE",
"100 862 CURVE SMOOTH",
"57 859 LINE SMOOTH",
"53 859 OFFCURVE",
"50 856 OFFCURVE",
"50 852 CURVE SMOOTH",
"50 680 LINE SMOOTH",
"50 676 OFFCURVE",
"53 673 OFFCURVE",
"57 673 CURVE SMOOTH"
);
},
{
closed = 1;
nodes = (
"225 673 OFFCURVE",
"248 694 OFFCURVE",
"248 715 CURVE SMOOTH",
"248 734 OFFCURVE",
"225 757 OFFCURVE",
"197 757 CURVE SMOOTH",
"169 757 OFFCURVE",
"146 734 OFFCURVE",
"146 715 CURVE SMOOTH",
"146 694 OFFCURVE",
"169 673 OFFCURVE",
"197 673 CURVE SMOOTH"
);
},
{
closed = 1;
nodes = (
"225 778 OFFCURVE",
"248 799 OFFCURVE",
"248 820 CURVE SMOOTH",
"248 839 OFFCURVE",
"225 862 OFFCURVE",
"197 862 CURVE SMOOTH",
"169 862 OFFCURVE",
"146 839 OFFCURVE",
"146 820 CURVE SMOOTH",
"146 799 OFFCURVE",
"169 778 OFFCURVE",
"197 778 CURVE SMOOTH"
);
}
);
width = 298;
},
{
anchors = (
{
name = _top;
position = "{118, 536}";
}
);
layerId = "6A5C4ED4-BBA5-4E07-B50E-1C6C5DE6A04B";
paths = (
{
closed = 1;
nodes = (
"85 674 LINE SMOOTH",
"88 674 OFFCURVE",
"91 677 OFFCURVE",
"91 680 CURVE SMOOTH",
"91 823 LINE SMOOTH",
"91 826 OFFCURVE",
"88 828 OFFCURVE",
"85 828 CURVE SMOOTH",
"55 825 LINE SMOOTH",
"52 825 OFFCURVE",
"50 823 OFFCURVE",
"50 820 CURVE SMOOTH",
"50 677 LINE SMOOTH",
"50 674 OFFCURVE",
"52 672 OFFCURVE",
"55 672 CURVE SMOOTH"
);
},
{
closed = 1;
nodes = (
"184 672 OFFCURVE",
"200 687 OFFCURVE",
"200 705 CURVE SMOOTH",
"200 720 OFFCURVE",
"184 736 OFFCURVE",
"164 736 CURVE SMOOTH",
"145 736 OFFCURVE",
"128 720 OFFCURVE",
"128 705 CURVE SMOOTH",
"128 687 OFFCURVE",
"145 672 OFFCURVE",
"164 672 CURVE SMOOTH"
);
},
{
closed = 1;
nodes = (
"184 763 OFFCURVE",
"200 778 OFFCURVE",
"200 796 CURVE SMOOTH",
"200 811 OFFCURVE",
"184 827 OFFCURVE",
"164 827 CURVE SMOOTH",
"145 827 OFFCURVE",
"128 811 OFFCURVE",
"128 796 CURVE SMOOTH",
"128 778 OFFCURVE",
"145 763 OFFCURVE",
"164 763 CURVE SMOOTH"
);
}
);
width = 250.43373;
}
);
note = uni0595;
unicode = 0595;
},
{
glyphname = "tipehaleft-hb";
lastChange = "2019-12-23 03:33:39 +0000";
layers = (
{
anchors = (
{
name = _bottomleft;
position = "{52, 0}";
}
);
layerId = "B853D75E-14CD-4000-B7A0-02101202F42C";
paths = (
{
closed = 1;
nodes = (
"109 -217 OFFCURVE",
"111 -215 OFFCURVE",
"111 -213 CURVE SMOOTH",
"113 -193 LINE SMOOTH",
"113 -190 OFFCURVE",
"112 -189 OFFCURVE",
"110 -188 CURVE SMOOTH",
"96 -183 OFFCURVE",
"87 -177 OFFCURVE",
"83 -170 CURVE SMOOTH",
"76 -158 OFFCURVE",
"77 -112 OFFCURVE",
"78 -88 CURVE SMOOTH",
"78 -86 OFFCURVE",
"76 -84 OFFCURVE",
"74 -84 CURVE SMOOTH",
"55 -86 LINE SMOOTH",
"53 -86 OFFCURVE",
"51 -87 OFFCURVE",
"51 -90 CURVE SMOOTH",
"48 -126 OFFCURVE",
"49 -171 OFFCURVE",
"61 -186 CURVE SMOOTH",
"70 -199 OFFCURVE",
"85 -210 OFFCURVE",
"107 -216 CURVE"
);
}
);
width = 163;
},
{
anchors = (
{
name = _bottomleft;
position = "{82, 0}";
}
);
layerId = "79F23985-86A9-4934-8BAF-8AAE7E0AB6FA";
paths = (
{
closed = 1;
nodes = (
"165 -289 OFFCURVE",
"169 -286 OFFCURVE",
"169 -282 CURVE SMOOTH",
"172 -240 LINE SMOOTH",
"172 -235 OFFCURVE",
"171 -234 OFFCURVE",
"167 -232 CURVE",
"140 -225 OFFCURVE",
"121 -213 OFFCURVE",
"114 -198 CURVE SMOOTH",
"101 -174 OFFCURVE",
"102 -119 OFFCURVE",
"104 -78 CURVE",
"105 -73 OFFCURVE",
"101 -71 OFFCURVE",
"97 -71 CURVE SMOOTH",
"60 -73 LINE SMOOTH",
"56 -73 OFFCURVE",
"53 -75 OFFCURVE",
"53 -80 CURVE SMOOTH",
"48 -149 OFFCURVE",
"49 -199 OFFCURVE",
"70 -230 CURVE SMOOTH",
"88 -256 OFFCURVE",
"118 -277 OFFCURVE",
"160 -288 CURVE SMOOTH"
);
}
);
width = 223;
},
{
anchors = (
{
name = _bottomleft;
position = "{67, 0}";
}
);
layerId = "6A5C4ED4-BBA5-4E07-B50E-1C6C5DE6A04B";
paths = (
{
closed = 1;
nodes = (
"137 -253 OFFCURVE",
"140 -250 OFFCURVE",
"140 -247 CURVE SMOOTH",
"142 -216 LINE SMOOTH",
"142 -212 OFFCURVE",
"141 -211 OFFCURVE",
"138 -210 CURVE SMOOTH",
"118 -204 OFFCURVE",
"104 -195 OFFCURVE",
"98 -184 CURVE SMOOTH",
"88 -166 OFFCURVE",
"89 -115 OFFCURVE",
"91 -83 CURVE SMOOTH",
"91 -80 OFFCURVE",
"88 -78 OFFCURVE",
"85 -78 CURVE SMOOTH",
"57 -80 LINE SMOOTH",
"54 -80 OFFCURVE",
"52 -81 OFFCURVE",
"52 -85 CURVE SMOOTH",
"48 -137 OFFCURVE",
"49 -185 OFFCURVE",
"65 -208 CURVE SMOOTH",
"79 -227 OFFCURVE",
"101 -243 OFFCURVE",
"133 -252 CURVE"
);
}
);
width = 192.63855;
}
);
note = uni0596;
unicode = 0596;
},
{
glyphname = "reviamugrash-hb";
lastChange = "2019-12-23 03:33:39 +0000";
layers = (
{
anchors = (
{
name = _topleft;
position = "{128, 536}";
}
);
layerId = "B853D75E-14CD-4000-B7A0-02101202F42C";
paths = (
{
closed = 1;
nodes = (
"92 661 OFFCURVE",
"94 661 OFFCURVE",
"96 663 CURVE SMOOTH",
"133 705 LINE",
"134 707 OFFCURVE",
"134 709 OFFCURVE",
"133 711 CURVE",
"96 753 LINE SMOOTH",
"94 755 OFFCURVE",
"92 755 OFFCURVE",
"90 753 CURVE SMOOTH",
"53 711 LINE",
"52 709 OFFCURVE",
"52 707 OFFCURVE",
"53 705 CURVE",
"90 663 LINE SMOOTH"
);
}
);
width = 186;
},
{
anchors = (
{
name = _topleft;
position = "{170, 536}";
}
);
layerId = "79F23985-86A9-4934-8BAF-8AAE7E0AB6FA";
paths = (
{
closed = 1;
nodes = (
"133 641 OFFCURVE",
"137 641 OFFCURVE",
"140 645 CURVE SMOOTH",
"216 728 LINE SMOOTH",
"219 732 OFFCURVE",
"219 734 OFFCURVE",
"216 738 CURVE SMOOTH",
"140 822 LINE SMOOTH",
"137 826 OFFCURVE",
"133 826 OFFCURVE",
"130 822 CURVE SMOOTH",
"54 738 LINE SMOOTH",
"51 734 OFFCURVE",
"51 732 OFFCURVE",
"54 728 CURVE SMOOTH",
"130 645 LINE SMOOTH"
);
}
);
width = 270;
},
{
anchors = (
{
name = _topleft;
position = "{149, 536}";
}
);
layerId = "6A5C4ED4-BBA5-4E07-B50E-1C6C5DE6A04B";
paths = (
{
closed = 1;
nodes = (
"112 651 OFFCURVE",
"115 651 OFFCURVE",
"118 654 CURVE SMOOTH",
"174 716 LINE",
"176 719 OFFCURVE",
"176 721 OFFCURVE",
"174 724 CURVE",
"118 787 LINE SMOOTH",
"115 790 OFFCURVE",
"112 790 OFFCURVE",
"110 787 CURVE SMOOTH",
"53 724 LINE",
"52 721 OFFCURVE",
"52 719 OFFCURVE",
"53 716 CURVE",
"110 654 LINE SMOOTH"
);
}
);
width = 227.49398;
}
);
note = uni0597;
unicode = 0597;
},
{
glyphname = "zarqa-hb";
lastChange = "2019-12-23 03:33:39 +0000";
layers = (
{
anchors = (
{
name = _top;
position = "{145, 536}";
}
);
layerId = "B853D75E-14CD-4000-B7A0-02101202F42C";
paths = (
{
closed = 1;
nodes = (
"80 660 OFFCURVE",
"81 661 OFFCURVE",
"82 664 CURVE SMOOTH",
"87 676 LINE SMOOTH",
"88 679 OFFCURVE",
"88 680 OFFCURVE",
"86 682 CURVE SMOOTH",
"77 687 OFFCURVE",
"72 694 OFFCURVE",
"72 705 CURVE SMOOTH",
"72 719 OFFCURVE",
"80 727 OFFCURVE",
"91 727 CURVE SMOOTH",
"104 727 OFFCURVE",
"110 720 OFFCURVE",
"127 696 CURVE SMOOTH",
"146 669 OFFCURVE",
"160 661 OFFCURVE",
"179 661 CURVE SMOOTH",
"203 661 OFFCURVE",
"220 677 OFFCURVE",
"220 703 CURVE SMOOTH",
"220 724 OFFCURVE",
"211 738 OFFCURVE",
"193 746 CURVE SMOOTH",
"190 748 OFFCURVE",
"188 747 OFFCURVE",
"187 744 CURVE SMOOTH",
"182 731 LINE SMOOTH",
"181 728 OFFCURVE",
"182 727 OFFCURVE",
"184 725 CURVE SMOOTH",
"193 720 OFFCURVE",
"198 714 OFFCURVE",
"198 703 CURVE SMOOTH",
"198 688 OFFCURVE",
"190 681 OFFCURVE",
"179 681 CURVE SMOOTH",
"167 681 OFFCURVE",
"158 689 OFFCURVE",
"143 711 CURVE SMOOTH",
"124 739 OFFCURVE",
"110 747 OFFCURVE",
"92 747 CURVE SMOOTH",
"67 747 OFFCURVE",
"50 730 OFFCURVE",
"50 705 CURVE SMOOTH",
"50 683 OFFCURVE",
"59 669 OFFCURVE",
"77 661 CURVE SMOOTH"
);
}
);
width = 270;
},
{
anchors = (
{
name = _top;
position = "{217, 536}";
}
);
layerId = "79F23985-86A9-4934-8BAF-8AAE7E0AB6FA";
paths = (
{
closed = 1;
nodes = (
"109 643 OFFCURVE",
"112 644 OFFCURVE",
"113 648 CURVE SMOOTH",
"124 676 LINE SMOOTH",
"125 680 OFFCURVE",
"124 683 OFFCURVE",
"120 685 CURVE SMOOTH",
"103 694 OFFCURVE",
"94 708 OFFCURVE",
"94 730 CURVE SMOOTH",
"94 756 OFFCURVE",
"109 773 OFFCURVE",
"130 773 CURVE SMOOTH",
"155 773 OFFCURVE",
"168 760 OFFCURVE",
"201 713 CURVE SMOOTH",
"238 659 OFFCURVE",
"266 643 OFFCURVE",
"304 643 CURVE SMOOTH",
"350 643 OFFCURVE",
"384 675 OFFCURVE",
"384 725 CURVE SMOOTH",
"384 766 OFFCURVE",
"366 794 OFFCURVE",
"330 810 CURVE SMOOTH",
"325 812 OFFCURVE",
"322 811 OFFCURVE",
"320 806 CURVE SMOOTH",
"310 779 LINE SMOOTH",
"309 775 OFFCURVE",
"310 772 OFFCURVE",
"314 770 CURVE SMOOTH",
"331 761 OFFCURVE",
"340 747 OFFCURVE",
"340 725 CURVE SMOOTH",
"340 698 OFFCURVE",
"325 683 OFFCURVE",
"304 683 CURVE SMOOTH",
"280 683 OFFCURVE",
"263 699 OFFCURVE",
"233 740 CURVE SMOOTH",
"193 796 OFFCURVE",
"168 812 OFFCURVE",
"132 812 CURVE SMOOTH",
"84 812 OFFCURVE",
"50 778 OFFCURVE",
"50 730 CURVE SMOOTH",
"50 687 OFFCURVE",
"68 658 OFFCURVE",
"104 644 CURVE SMOOTH"
);
}
);
width = 434;
},
{
anchors = (
{
name = _top;
position = "{181, 536}";
}
);
layerId = "6A5C4ED4-BBA5-4E07-B50E-1C6C5DE6A04B";
paths = (
{
closed = 1;
nodes = (
"94 652 OFFCURVE",
"96 653 OFFCURVE",
"97 656 CURVE SMOOTH",
"105 676 LINE SMOOTH",
"106 679 OFFCURVE",
"106 681 OFFCURVE",
"103 683 CURVE SMOOTH",
"90 690 OFFCURVE",
"83 701 OFFCURVE",
"83 717 CURVE SMOOTH",
"83 737 OFFCURVE",
"94 750 OFFCURVE",
"110 750 CURVE SMOOTH",
"129 750 OFFCURVE",
"139 740 OFFCURVE",
"164 704 CURVE SMOOTH",
"191 664 OFFCURVE",
"212 652 OFFCURVE",
"241 652 CURVE SMOOTH",
"276 652 OFFCURVE",
"301 676 OFFCURVE",
"301 714 CURVE SMOOTH",
"301 745 OFFCURVE",
"288 766 OFFCURVE",
"261 778 CURVE SMOOTH",
"257 780 OFFCURVE",
"254 779 OFFCURVE",
"253 775 CURVE SMOOTH",
"245 755 LINE SMOOTH",
"244 751 OFFCURVE",
"245 749 OFFCURVE",
"248 747 CURVE SMOOTH",
"261 740 OFFCURVE",
"268 730 OFFCURVE",
"268 714 CURVE SMOOTH",
"268 693 OFFCURVE",
"257 682 OFFCURVE",
"241 682 CURVE SMOOTH",
"223 682 OFFCURVE",
"210 694 OFFCURVE",
"187 725 CURVE SMOOTH",
"158 767 OFFCURVE",
"139 779 OFFCURVE",
"112 779 CURVE SMOOTH",
"75 779 OFFCURVE",
"50 754 OFFCURVE",
"50 717 CURVE SMOOTH",
"50 685 OFFCURVE",
"63 664 OFFCURVE",
"90 653 CURVE SMOOTH"
);
}
);
width = 351.01205;
}
);
note = uni0598;
unicode = 0598;
},
{
glyphname = "pashta-hb";
lastChange = "2019-12-23 03:33:39 +0000";
layers = (
{
anchors = (
{
name = _topleft;
position = "{113, 536}";
}
);
layerId = "B853D75E-14CD-4000-B7A0-02101202F42C";
paths = (
{
closed = 1;
nodes = (
"107 669 LINE SMOOTH",
"109 669 OFFCURVE",
"111 670 OFFCURVE",
"111 673 CURVE SMOOTH",
"114 709 OFFCURVE",
"114 754 OFFCURVE",
"102 769 CURVE SMOOTH",
"93 782 OFFCURVE",
"78 793 OFFCURVE",
"56 799 CURVE",
"54 800 OFFCURVE",
"52 798 OFFCURVE",
"52 796 CURVE SMOOTH",
"50 776 LINE SMOOTH",
"50 773 OFFCURVE",
"51 772 OFFCURVE",
"53 771 CURVE SMOOTH",
"67 766 OFFCURVE",
"76 760 OFFCURVE",
"80 753 CURVE SMOOTH",
"87 741 OFFCURVE",
"86 695 OFFCURVE",
"85 671 CURVE SMOOTH",
"85 669 OFFCURVE",
"87 667 OFFCURVE",
"89 667 CURVE SMOOTH"
);
}
);
width = 163;
},
{
anchors = (
{
name = _topleft;
position = "{166, 536}";
}
);
layerId = "79F23985-86A9-4934-8BAF-8AAE7E0AB6FA";
paths = (
{
closed = 1;
nodes = (
"163 660 LINE SMOOTH",
"167 660 OFFCURVE",
"170 662 OFFCURVE",
"170 667 CURVE SMOOTH",
"175 736 OFFCURVE",
"174 786 OFFCURVE",
"153 818 CURVE SMOOTH",
"134 843 OFFCURVE",
"104 864 OFFCURVE",
"61 875 CURVE SMOOTH",
"57 876 OFFCURVE",
"53 873 OFFCURVE",
"53 869 CURVE SMOOTH",
"50 828 LINE SMOOTH",
"50 823 OFFCURVE",
"52 821 OFFCURVE",
"56 820 CURVE SMOOTH",
"83 812 OFFCURVE",
"101 800 OFFCURVE",
"109 785 CURVE SMOOTH",
"122 761 OFFCURVE",
"121 707 OFFCURVE",
"118 665 CURVE",
"117 660 OFFCURVE",
"121 657 OFFCURVE",
"125 657 CURVE SMOOTH"
);
}
);
width = 223;
},
{
anchors = (
{
name = _topleft;
position = "{139, 536}";
}
);
layerId = "6A5C4ED4-BBA5-4E07-B50E-1C6C5DE6A04B";
paths = (
{
closed = 1;
nodes = (
"135 665 LINE SMOOTH",
"138 665 OFFCURVE",
"140 666 OFFCURVE",
"140 670 CURVE SMOOTH",
"144 722 OFFCURVE",
"144 770 OFFCURVE",
"127 793 CURVE SMOOTH",
"113 812 OFFCURVE",
"91 828 OFFCURVE",
"58 837 CURVE",
"55 838 OFFCURVE",
"52 835 OFFCURVE",
"52 832 CURVE SMOOTH",
"50 802 LINE SMOOTH",
"50 798 OFFCURVE",
"51 796 OFFCURVE",
"54 795 CURVE SMOOTH",
"75 789 OFFCURVE",
"88 780 OFFCURVE",
"94 769 CURVE SMOOTH",
"104 751 OFFCURVE",
"103 701 OFFCURVE",
"101 668 CURVE SMOOTH",
"101 665 OFFCURVE",
"104 662 OFFCURVE",
"107 662 CURVE SMOOTH"
);
}
);
width = 192.63855;
}
);
note = uni0599;
unicode = 0599;
},
{
glyphname = "yetiv-hb";
lastChange = "2019-12-23 03:33:39 +0000";
layers = (
{
anchors = (
{
name = _bottomleft;
position = "{145, 0}";
}
);
layerId = "B853D75E-14CD-4000-B7A0-02101202F42C";
paths = (
{
closed = 1;
nodes = (
"133 -184 LINE",
"135 -182 OFFCURVE",
"136 -181 OFFCURVE",
"134 -179 CURVE SMOOTH",
"90 -136 LINE SMOOTH",
"88 -134 OFFCURVE",
"88 -132 OFFCURVE",
"90 -130 CURVE SMOOTH",
"134 -87 LINE SMOOTH",
"136 -85 OFFCURVE",
"136 -84 OFFCURVE",
"133 -82 CURVE SMOOTH",
"117 -72 LINE SMOOTH",
"115 -71 OFFCURVE",
"112 -71 OFFCURVE",
"111 -72 CURVE SMOOTH",
"53 -130 LINE SMOOTH",
"51 -132 OFFCURVE",
"51 -134 OFFCURVE",
"53 -136 CURVE SMOOTH",
"111 -194 LINE SMOOTH",
"112 -195 OFFCURVE",
"115 -197 OFFCURVE",
"117 -195 CURVE"
);
}
);
width = 187;
},
{
anchors = (
{
name = _bottomleft;
position = "{171, 0}";
}
);
layerId = "79F23985-86A9-4934-8BAF-8AAE7E0AB6FA";
paths = (
{
closed = 1;
nodes = (
"192 -241 LINE SMOOTH",
"196 -238 OFFCURVE",
"196 -234 OFFCURVE",
"193 -231 CURVE SMOOTH",
"127 -165 LINE SMOOTH",
"124 -162 OFFCURVE",
"124 -158 OFFCURVE",
"127 -155 CURVE SMOOTH",
"193 -89 LINE SMOOTH",
"196 -86 OFFCURVE",
"196 -82 OFFCURVE",
"192 -79 CURVE SMOOTH",
"159 -59 LINE SMOOTH",
"156 -57 OFFCURVE",
"153 -57 OFFCURVE",
"150 -60 CURVE SMOOTH",
"55 -155 LINE SMOOTH",
"51 -159 OFFCURVE",
"52 -162 OFFCURVE",
"55 -165 CURVE SMOOTH",
"150 -260 LINE SMOOTH",
"153 -263 OFFCURVE",
"156 -263 OFFCURVE",
"159 -261 CURVE SMOOTH"
);
}
);
width = 249;
},
{
anchors = (
{
name = _bottomleft;
position = "{158, 0}";
}
);
layerId = "6A5C4ED4-BBA5-4E07-B50E-1C6C5DE6A04B";
paths = (
{
closed = 1;
nodes = (
"162 -212 LINE",
"165 -210 OFFCURVE",
"166 -207 OFFCURVE",
"163 -205 CURVE SMOOTH",
"108 -150 LINE SMOOTH",
"106 -148 OFFCURVE",
"106 -145 OFFCURVE",
"108 -142 CURVE SMOOTH",
"163 -88 LINE SMOOTH",
"166 -85 OFFCURVE",
"166 -83 OFFCURVE",
"162 -81 CURVE SMOOTH",
"138 -66 LINE SMOOTH",
"135 -64 OFFCURVE",
"132 -64 OFFCURVE",
"130 -66 CURVE SMOOTH",
"54 -142 LINE SMOOTH",
"51 -145 OFFCURVE",
"51 -148 OFFCURVE",
"54 -150 CURVE SMOOTH",
"130 -227 LINE SMOOTH",
"132 -229 OFFCURVE",
"135 -230 OFFCURVE",
"138 -228 CURVE"
);
}
);
width = 217.62651;
}
);
note = uni059A;
unicode = 059A;
},
{
glyphname = "tevirleft-hb";
lastChange = "2019-12-23 03:33:39 +0000";
layers = (
{
anchors = (
{
name = _bottomleft;
position = "{155, 0}";
}
);
layerId = "B853D75E-14CD-4000-B7A0-02101202F42C";
paths = (
{
closed = 1;
nodes = (
"107 -211 OFFCURVE",
"125 -200 OFFCURVE",
"134 -187 CURVE SMOOTH",
"146 -172 OFFCURVE",
"146 -127 OFFCURVE",
"143 -91 CURVE SMOOTH",
"143 -88 OFFCURVE",
"141 -87 OFFCURVE",
"139 -87 CURVE SMOOTH",
"120 -89 LINE SMOOTH",
"118 -89 OFFCURVE",
"116 -90 OFFCURVE",
"116 -93 CURVE SMOOTH",
"117 -116 OFFCURVE",
"118 -159 OFFCURVE",
"111 -171 CURVE SMOOTH",
"107 -178 OFFCURVE",
"99 -185 OFFCURVE",
"86 -189 CURVE SMOOTH",
"84 -190 OFFCURVE",
"83 -190 OFFCURVE",
"83 -193 CURVE SMOOTH",
"81 -213 LINE SMOOTH",
"81 -216 OFFCURVE",
"83 -218 OFFCURVE",
"86 -217 CURVE SMOOTH"
);
},
{
closed = 1;
nodes = (
"82 -128 OFFCURVE",
"91 -120 OFFCURVE",
"91 -107 CURVE SMOOTH",
"91 -95 OFFCURVE",
"82 -87 OFFCURVE",
"71 -87 CURVE SMOOTH",
"60 -87 OFFCURVE",
"50 -95 OFFCURVE",
"50 -107 CURVE SMOOTH",
"50 -120 OFFCURVE",
"60 -128 OFFCURVE",
"71 -128 CURVE SMOOTH"
);
}
);
width = 195;
},
{
anchors = (
{
name = _bottomleft;
position = "{199, 0}";
}
);
layerId = "79F23985-86A9-4934-8BAF-8AAE7E0AB6FA";
paths = (
{
closed = 1;
nodes = (
"160 -276 OFFCURVE",
"194 -255 OFFCURVE",
"213 -230 CURVE SMOOTH",
"234 -199 OFFCURVE",
"235 -149 OFFCURVE",
"230 -80 CURVE SMOOTH",
"230 -75 OFFCURVE",
"227 -73 OFFCURVE",
"223 -73 CURVE SMOOTH",
"184 -76 LINE SMOOTH",
"180 -76 OFFCURVE",
"177 -79 OFFCURVE",
"178 -83 CURVE",
"181 -125 OFFCURVE",
"182 -173 OFFCURVE",
"169 -198 CURVE SMOOTH",
"161 -213 OFFCURVE",
"145 -225 OFFCURVE",
"119 -232 CURVE",
"115 -234 OFFCURVE",
"113 -235 OFFCURVE",
"113 -240 CURVE SMOOTH",
"111 -282 LINE SMOOTH",
"111 -288 OFFCURVE",
"113 -289 OFFCURVE",
"118 -288 CURVE SMOOTH"
);
},
{
closed = 1;
nodes = (
"111 -152 OFFCURVE",
"128 -135 OFFCURVE",
"128 -112 CURVE SMOOTH",
"128 -90 OFFCURVE",
"111 -73 OFFCURVE",
"89 -73 CURVE SMOOTH",
"67 -73 OFFCURVE",
"50 -91 OFFCURVE",
"50 -112 CURVE SMOOTH",
"50 -135 OFFCURVE",
"67 -152 OFFCURVE",
"89 -152 CURVE SMOOTH"
);
}
);
width = 283;
},
{
anchors = (
{
name = _bottomleft;
position = "{177, 0}";
}
);
layerId = "6A5C4ED4-BBA5-4E07-B50E-1C6C5DE6A04B";
paths = (
{
closed = 1;
nodes = (
"133 -243 OFFCURVE",
"159 -227 OFFCURVE",
"173 -208 CURVE SMOOTH",
"189 -185 OFFCURVE",
"190 -138 OFFCURVE",
"186 -86 CURVE SMOOTH",
"186 -82 OFFCURVE",
"183 -80 OFFCURVE",
"180 -80 CURVE SMOOTH",
"152 -83 LINE SMOOTH",
"149 -83 OFFCURVE",
"146 -85 OFFCURVE",
"147 -88 CURVE SMOOTH",
"149 -120 OFFCURVE",
"150 -166 OFFCURVE",
"140 -184 CURVE SMOOTH",
"134 -195 OFFCURVE",
"122 -205 OFFCURVE",
"102 -210 CURVE SMOOTH",
"99 -212 OFFCURVE",
"98 -212 OFFCURVE",
"98 -216 CURVE SMOOTH",
"96 -247 LINE SMOOTH",
"96 -252 OFFCURVE",
"98 -253 OFFCURVE",
"102 -252 CURVE SMOOTH"
);
},
{
closed = 1;
nodes = (
"96 -140 OFFCURVE",
"109 -127 OFFCURVE",
"109 -109 CURVE SMOOTH",
"109 -93 OFFCURVE",
"96 -80 OFFCURVE",
"80 -80 CURVE SMOOTH",
"63 -80 OFFCURVE",
"50 -93 OFFCURVE",
"50 -109 CURVE SMOOTH",
"50 -127 OFFCURVE",
"63 -140 OFFCURVE",
"80 -140 CURVE SMOOTH"
);
}
);
width = 238.46988;
}
);
note = uni059B;
unicode = 059B;
},
{
glyphname = "gereshaccent-hb";
lastChange = "2019-12-23 03:33:39 +0000";
layers = (
{
anchors = (
{
name = _topleft;
position = "{50, 536}";
}
);
layerId = "B853D75E-14CD-4000-B7A0-02101202F42C";
paths = (
{
closed = 1;
nodes = (
"76 667 OFFCURVE",
"78 669 OFFCURVE",
"78 671 CURVE SMOOTH",
"77 695 OFFCURVE",
"76 741 OFFCURVE",
"83 753 CURVE SMOOTH",
"87 760 OFFCURVE",
"96 766 OFFCURVE",
"110 771 CURVE SMOOTH",
"112 772 OFFCURVE",
"113 773 OFFCURVE",
"113 776 CURVE SMOOTH",
"111 796 LINE SMOOTH",
"111 798 OFFCURVE",
"109 800 OFFCURVE",
"107 799 CURVE",
"85 793 OFFCURVE",
"70 782 OFFCURVE",
"61 769 CURVE SMOOTH",
"49 754 OFFCURVE",
"48 709 OFFCURVE",
"51 673 CURVE SMOOTH",
"51 670 OFFCURVE",
"53 669 OFFCURVE",
"55 669 CURVE SMOOTH",
"74 667 LINE SMOOTH"
);
}
);
width = 163;
},
{
anchors = (
{
name = _topleft;
position = "{80, 536}";
}
);
layerId = "79F23985-86A9-4934-8BAF-8AAE7E0AB6FA";
paths = (
{
closed = 1;
nodes = (
"102 657 OFFCURVE",
"105 660 OFFCURVE",
"105 664 CURVE SMOOTH",
"102 707 OFFCURVE",
"101 761 OFFCURVE",
"114 785 CURVE SMOOTH",
"121 800 OFFCURVE",
"140 812 OFFCURVE",
"167 820 CURVE SMOOTH",
"171 821 OFFCURVE",
"172 823 OFFCURVE",
"172 828 CURVE SMOOTH",
"169 869 LINE SMOOTH",
"169 873 OFFCURVE",
"165 876 OFFCURVE",
"161 875 CURVE SMOOTH",
"118 864 OFFCURVE",
"88 843 OFFCURVE",
"70 818 CURVE SMOOTH",
"49 786 OFFCURVE",
"48 736 OFFCURVE",
"53 667 CURVE SMOOTH",
"53 662 OFFCURVE",
"56 660 OFFCURVE",
"60 660 CURVE SMOOTH",
"98 657 LINE SMOOTH"
);
}
);
width = 223;
},
{
anchors = (
{
name = _topleft;
position = "{65, 536}";
}
);
layerId = "6A5C4ED4-BBA5-4E07-B50E-1C6C5DE6A04B";
paths = (
{
closed = 1;
nodes = (
"89 662 OFFCURVE",
"91 665 OFFCURVE",
"91 668 CURVE SMOOTH",
"89 701 OFFCURVE",
"88 751 OFFCURVE",
"98 769 CURVE SMOOTH",
"104 780 OFFCURVE",
"118 789 OFFCURVE",
"138 795 CURVE SMOOTH",
"141 796 OFFCURVE",
"142 798 OFFCURVE",
"142 802 CURVE SMOOTH",
"140 832 LINE SMOOTH",
"140 835 OFFCURVE",
"137 838 OFFCURVE",
"134 837 CURVE",
"101 828 OFFCURVE",
"79 812 OFFCURVE",
"65 793 CURVE SMOOTH",
"49 770 OFFCURVE",
"48 722 OFFCURVE",
"52 670 CURVE SMOOTH",
"52 666 OFFCURVE",
"54 665 OFFCURVE",
"57 665 CURVE SMOOTH",
"86 662 LINE SMOOTH"
);
}
);
width = 192.63855;
}
);
note = uni059C;
unicode = 059C;
},
{
glyphname = "gereshmuqdam-hb";
lastChange = "2019-12-23 03:33:39 +0000";
layers = (
{
anchors = (
{
name = _top;
position = "{125, 536}";
}
);
layerId = "B853D75E-14CD-4000-B7A0-02101202F42C";
paths = (
{
closed = 1;
nodes = (
"76 667 OFFCURVE",
"78 669 OFFCURVE",
"78 671 CURVE SMOOTH",
"77 695 OFFCURVE",
"76 741 OFFCURVE",
"83 753 CURVE SMOOTH",
"87 760 OFFCURVE",
"96 766 OFFCURVE",
"110 771 CURVE SMOOTH",
"112 772 OFFCURVE",
"113 773 OFFCURVE",
"113 776 CURVE SMOOTH",
"111 796 LINE SMOOTH",
"111 798 OFFCURVE",
"109 800 OFFCURVE",
"107 799 CURVE",
"85 793 OFFCURVE",
"70 782 OFFCURVE",
"61 769 CURVE SMOOTH",
"49 754 OFFCURVE",
"48 709 OFFCURVE",
"51 673 CURVE SMOOTH",
"51 670 OFFCURVE",
"53 669 OFFCURVE",
"55 669 CURVE SMOOTH",
"74 667 LINE SMOOTH"
);
}
);
width = 163;
},
{
anchors = (
{
name = _top;
position = "{155, 536}";
}
);
layerId = "79F23985-86A9-4934-8BAF-8AAE7E0AB6FA";
paths = (
{
closed = 1;
nodes = (
"102 657 OFFCURVE",
"105 660 OFFCURVE",
"105 664 CURVE SMOOTH",
"102 707 OFFCURVE",
"101 761 OFFCURVE",
"114 785 CURVE SMOOTH",
"121 800 OFFCURVE",
"140 812 OFFCURVE",
"167 820 CURVE SMOOTH",
"171 821 OFFCURVE",
"172 823 OFFCURVE",
"172 828 CURVE SMOOTH",
"169 869 LINE SMOOTH",
"169 873 OFFCURVE",
"165 876 OFFCURVE",
"161 875 CURVE SMOOTH",
"118 864 OFFCURVE",
"88 843 OFFCURVE",
"70 818 CURVE SMOOTH",
"49 786 OFFCURVE",
"48 736 OFFCURVE",
"53 667 CURVE SMOOTH",
"53 662 OFFCURVE",
"56 660 OFFCURVE",
"60 660 CURVE SMOOTH",
"98 657 LINE SMOOTH"
);
}
);
width = 223;
},
{
anchors = (
{
name = _top;
position = "{140, 536}";
}
);
layerId = "6A5C4ED4-BBA5-4E07-B50E-1C6C5DE6A04B";
paths = (
{
closed = 1;
nodes = (
"89 662 OFFCURVE",
"91 665 OFFCURVE",
"91 668 CURVE SMOOTH",
"89 701 OFFCURVE",
"88 751 OFFCURVE",
"98 769 CURVE SMOOTH",
"104 780 OFFCURVE",
"118 789 OFFCURVE",
"138 795 CURVE SMOOTH",
"141 796 OFFCURVE",
"142 798 OFFCURVE",
"142 802 CURVE SMOOTH",
"140 832 LINE SMOOTH",
"140 835 OFFCURVE",
"137 838 OFFCURVE",
"134 837 CURVE",
"101 828 OFFCURVE",
"79 812 OFFCURVE",
"65 793 CURVE SMOOTH",
"49 770 OFFCURVE",
"48 722 OFFCURVE",
"52 670 CURVE SMOOTH",
"52 666 OFFCURVE",
"54 665 OFFCURVE",
"57 665 CURVE SMOOTH",
"86 662 LINE SMOOTH"
);
}
);
width = 192.63855;
}
);
note = uni059D;
unicode = 059D;
},
{
glyphname = "gershayimaccent-hb";
lastChange = "2019-12-23 03:33:39 +0000";
layers = (
{
anchors = (
{
name = _top;
position = "{96, 536}";
}
);
layerId = "B853D75E-14CD-4000-B7A0-02101202F42C";
paths = (
{
closed = 1;
nodes = (
"149 667 OFFCURVE",
"151 669 OFFCURVE",
"151 671 CURVE SMOOTH",
"149 695 OFFCURVE",
"148 741 OFFCURVE",
"155 753 CURVE SMOOTH",
"159 760 OFFCURVE",
"168 766 OFFCURVE",
"182 771 CURVE SMOOTH",
"184 772 OFFCURVE",
"185 773 OFFCURVE",
"185 776 CURVE SMOOTH",
"183 796 LINE SMOOTH",
"183 798 OFFCURVE",
"181 800 OFFCURVE",
"179 799 CURVE",
"157 793 OFFCURVE",
"142 782 OFFCURVE",
"133 769 CURVE SMOOTH",
"121 754 OFFCURVE",
"121 709 OFFCURVE",
"123 673 CURVE SMOOTH",
"123 670 OFFCURVE",
"125 669 OFFCURVE",
"127 669 CURVE SMOOTH",
"147 667 LINE SMOOTH"
);
},
{
closed = 1;
nodes = (
"76 667 OFFCURVE",
"78 669 OFFCURVE",
"78 671 CURVE SMOOTH",
"77 695 OFFCURVE",
"76 741 OFFCURVE",
"83 753 CURVE SMOOTH",
"87 760 OFFCURVE",
"96 766 OFFCURVE",
"110 771 CURVE SMOOTH",
"112 772 OFFCURVE",
"113 773 OFFCURVE",
"113 776 CURVE SMOOTH",
"111 796 LINE SMOOTH",
"111 798 OFFCURVE",
"109 800 OFFCURVE",
"107 799 CURVE",
"85 793 OFFCURVE",
"69 781 OFFCURVE",
"60 769 CURVE SMOOTH",
"48 754 OFFCURVE",
"48 709 OFFCURVE",
"51 673 CURVE SMOOTH",
"51 670 OFFCURVE",
"53 669 OFFCURVE",
"55 669 CURVE SMOOTH",
"74 667 LINE SMOOTH"
);
}
);
width = 235;
},
{
anchors = (
{
name = _top;
position = "{160, 536}";
}
);
layerId = "79F23985-86A9-4934-8BAF-8AAE7E0AB6FA";
paths = (
{
closed = 1;
nodes = (
"243 657 OFFCURVE",
"247 660 OFFCURVE",
"246 665 CURVE",
"243 707 OFFCURVE",
"242 761 OFFCURVE",
"255 785 CURVE SMOOTH",
"263 800 OFFCURVE",
"281 812 OFFCURVE",
"308 820 CURVE SMOOTH",
"312 821 OFFCURVE",
"314 823 OFFCURVE",
"314 828 CURVE SMOOTH",
"311 869 LINE SMOOTH",
"311 873 OFFCURVE",
"307 876 OFFCURVE",
"303 875 CURVE SMOOTH",
"260 864 OFFCURVE",
"230 843 OFFCURVE",
"211 818 CURVE SMOOTH",
"190 786 OFFCURVE",
"189 736 OFFCURVE",
"194 667 CURVE SMOOTH",
"194 662 OFFCURVE",
"197 660 OFFCURVE",
"201 660 CURVE SMOOTH",
"239 657 LINE SMOOTH"
);
},
{
closed = 1;
nodes = (
"102 657 OFFCURVE",
"105 660 OFFCURVE",
"105 664 CURVE SMOOTH",
"102 707 OFFCURVE",
"101 761 OFFCURVE",
"114 785 CURVE SMOOTH",
"121 800 OFFCURVE",
"140 812 OFFCURVE",
"167 820 CURVE SMOOTH",
"171 821 OFFCURVE",
"172 823 OFFCURVE",
"172 828 CURVE SMOOTH",
"169 869 LINE SMOOTH",
"169 873 OFFCURVE",
"165 876 OFFCURVE",
"161 875 CURVE SMOOTH",
"118 864 OFFCURVE",
"88 843 OFFCURVE",
"70 818 CURVE SMOOTH",
"49 786 OFFCURVE",
"48 736 OFFCURVE",
"53 667 CURVE SMOOTH",
"53 662 OFFCURVE",
"56 660 OFFCURVE",
"60 660 CURVE SMOOTH",
"98 657 LINE SMOOTH"
);
}
);
width = 364;
},
{
anchors = (
{
name = _top;
position = "{128, 536}";
}
);
layerId = "6A5C4ED4-BBA5-4E07-B50E-1C6C5DE6A04B";
paths = (
{
closed = 1;
nodes = (
"195 662 OFFCURVE",
"198 665 OFFCURVE",
"198 668 CURVE SMOOTH",
"195 701 OFFCURVE",
"194 751 OFFCURVE",
"204 769 CURVE SMOOTH",
"210 780 OFFCURVE",
"224 789 OFFCURVE",
"244 795 CURVE SMOOTH",
"247 796 OFFCURVE",
"249 798 OFFCURVE",
"249 802 CURVE SMOOTH",
"246 832 LINE SMOOTH",
"246 835 OFFCURVE",
"243 838 OFFCURVE",
"240 837 CURVE",
"208 828 OFFCURVE",
"185 812 OFFCURVE",
"172 793 CURVE SMOOTH",
"155 770 OFFCURVE",
"155 722 OFFCURVE",
"158 670 CURVE SMOOTH",
"158 666 OFFCURVE",
"161 665 OFFCURVE",
"164 665 CURVE SMOOTH",
"192 662 LINE SMOOTH"
);
},
{
closed = 1;
nodes = (
"89 662 OFFCURVE",
"91 665 OFFCURVE",
"91 668 CURVE SMOOTH",
"89 701 OFFCURVE",
"88 751 OFFCURVE",
"98 769 CURVE SMOOTH",
"104 780 OFFCURVE",
"118 789 OFFCURVE",
"138 795 CURVE SMOOTH",
"141 796 OFFCURVE",
"142 798 OFFCURVE",
"142 802 CURVE SMOOTH",
"140 832 LINE SMOOTH",
"140 835 OFFCURVE",
"137 838 OFFCURVE",
"134 837 CURVE",
"101 828 OFFCURVE",
"78 812 OFFCURVE",
"65 793 CURVE SMOOTH",
"48 770 OFFCURVE",
"48 722 OFFCURVE",
"52 670 CURVE SMOOTH",
"52 666 OFFCURVE",
"54 665 OFFCURVE",
"57 665 CURVE SMOOTH",
"86 662 LINE SMOOTH"
);
}
);
width = 298.72289;
}
);
note = uni059E;
unicode = 059E;
},
{
glyphname = "qarneypara-hb";
lastChange = "2019-12-23 03:33:39 +0000";
layers = (
{
anchors = (
{
name = _top;
position = "{174, 536}";
}
);
layerId = "B853D75E-14CD-4000-B7A0-02101202F42C";
paths = (
{
closed = 1;
nodes = (
"146 671 OFFCURVE",
"148 671 OFFCURVE",
"150 673 CURVE SMOOTH",
"164 687 LINE SMOOTH",
"166 689 OFFCURVE",
"166 691 OFFCURVE",
"164 693 CURVE SMOOTH",
"148 709 LINE SMOOTH",
"147 710 OFFCURVE",
"147 712 OFFCURVE",
"148 714 CURVE SMOOTH",
"151 721 OFFCURVE",
"153 728 OFFCURVE",
"153 736 CURVE SMOOTH",
"153 765 OFFCURVE",
"130 787 OFFCURVE",
"101 787 CURVE SMOOTH",
"73 787 OFFCURVE",
"50 765 OFFCURVE",
"50 736 CURVE SMOOTH",
"50 708 OFFCURVE",
"72 685 OFFCURVE",
"101 685 CURVE SMOOTH",
"110 685 OFFCURVE",
"116 687 OFFCURVE",
"123 690 CURVE",
"125 690 OFFCURVE",
"127 690 OFFCURVE",
"128 689 CURVE SMOOTH",
"144 673 LINE SMOOTH"
);
},
{
closed = 1;
nodes = (
"88 711 OFFCURVE",
"75 723 OFFCURVE",
"75 736 CURVE SMOOTH",
"75 750 OFFCURVE",
"88 762 OFFCURVE",
"102 762 CURVE SMOOTH",
"115 762 OFFCURVE",
"127 750 OFFCURVE",
"127 736 CURVE SMOOTH",
"127 722 OFFCURVE",
"115 711 OFFCURVE",
"102 711 CURVE SMOOTH"
);
},
{
closed = 1;
nodes = (
"200 671 OFFCURVE",
"202 671 OFFCURVE",
"204 673 CURVE SMOOTH",
"220 689 LINE SMOOTH",
"221 690 OFFCURVE",
"223 690 OFFCURVE",
"225 690 CURVE",
"232 687 OFFCURVE",
"238 685 OFFCURVE",
"247 685 CURVE SMOOTH",
"276 685 OFFCURVE",
"298 708 OFFCURVE",
"298 736 CURVE SMOOTH",
"298 765 OFFCURVE",
"275 787 OFFCURVE",
"247 787 CURVE SMOOTH",
"218 787 OFFCURVE",
"195 765 OFFCURVE",
"195 736 CURVE SMOOTH",
"195 728 OFFCURVE",
"197 721 OFFCURVE",
"200 714 CURVE SMOOTH",
"201 712 OFFCURVE",
"201 710 OFFCURVE",
"200 709 CURVE SMOOTH",
"184 693 LINE SMOOTH",
"182 691 OFFCURVE",
"182 689 OFFCURVE",
"184 687 CURVE SMOOTH",
"198 673 LINE SMOOTH"
);
},
{
closed = 1;
nodes = (
"233 711 OFFCURVE",
"221 722 OFFCURVE",
"221 736 CURVE SMOOTH",
"221 750 OFFCURVE",
"233 762 OFFCURVE",
"246 762 CURVE SMOOTH",
"260 762 OFFCURVE",
"273 750 OFFCURVE",
"273 736 CURVE SMOOTH",
"273 723 OFFCURVE",
"260 711 OFFCURVE",
"246 711 CURVE SMOOTH"
);
}
);
width = 348;
},
{
anchors = (
{
name = _top;
position = "{293, 536}";
}
);
layerId = "79F23985-86A9-4934-8BAF-8AAE7E0AB6FA";
paths = (
{
closed = 1;
nodes = (
"240 661 OFFCURVE",
"243 661 OFFCURVE",
"246 665 CURVE SMOOTH",
"274 694 LINE SMOOTH",
"277 698 OFFCURVE",
"277 701 OFFCURVE",
"274 704 CURVE SMOOTH",
"241 736 LINE SMOOTH",
"238 739 OFFCURVE",
"238 742 OFFCURVE",
"240 745 CURVE SMOOTH",
"247 758 OFFCURVE",
"251 773 OFFCURVE",
"251 789 CURVE SMOOTH",
"251 845 OFFCURVE",
"206 889 OFFCURVE",
"151 889 CURVE SMOOTH",
"95 889 OFFCURVE",
"50 845 OFFCURVE",
"50 789 CURVE SMOOTH",
"50 734 OFFCURVE",
"94 690 OFFCURVE",
"151 690 CURVE SMOOTH",
"167 690 OFFCURVE",
"181 692 OFFCURVE",
"195 698 CURVE",
"198 700 OFFCURVE",
"201 700 OFFCURVE",
"204 697 CURVE SMOOTH",
"236 665 LINE SMOOTH"
);
},
{
closed = 1;
nodes = (
"124 739 OFFCURVE",
"100 763 OFFCURVE",
"100 789 CURVE SMOOTH",
"100 816 OFFCURVE",
"125 840 OFFCURVE",
"152 840 CURVE SMOOTH",
"177 840 OFFCURVE",
"201 817 OFFCURVE",
"201 789 CURVE SMOOTH",
"201 762 OFFCURVE",
"179 739 OFFCURVE",
"152 739 CURVE SMOOTH"
);
},
{
closed = 1;
nodes = (
"343 661 OFFCURVE",
"347 662 OFFCURVE",
"350 665 CURVE SMOOTH",
"382 697 LINE SMOOTH",
"385 700 OFFCURVE",
"388 700 OFFCURVE",
"391 698 CURVE",
"405 692 OFFCURVE",
"419 690 OFFCURVE",
"435 690 CURVE SMOOTH",
"492 690 OFFCURVE",
"536 734 OFFCURVE",
"536 789 CURVE SMOOTH",
"536 846 OFFCURVE",
"491 889 OFFCURVE",
"435 889 CURVE SMOOTH",
"380 889 OFFCURVE",
"335 845 OFFCURVE",
"335 789 CURVE SMOOTH",
"335 773 OFFCURVE",
"339 758 OFFCURVE",
"346 745 CURVE SMOOTH",
"348 742 OFFCURVE",
"348 739 OFFCURVE",
"345 736 CURVE SMOOTH",
"312 704 LINE SMOOTH",
"309 701 OFFCURVE",
"309 698 OFFCURVE",
"312 694 CURVE SMOOTH",
"340 665 LINE SMOOTH"
);
},
{
closed = 1;
nodes = (
"407 739 OFFCURVE",
"385 762 OFFCURVE",
"385 789 CURVE SMOOTH",
"385 817 OFFCURVE",
"409 840 OFFCURVE",
"434 840 CURVE SMOOTH",
"461 840 OFFCURVE",
"486 816 OFFCURVE",
"486 789 CURVE SMOOTH",
"486 763 OFFCURVE",
"462 739 OFFCURVE",
"434 739 CURVE SMOOTH"
);
}
);
width = 586;
},
{
anchors = (
{
name = _top;
position = "{233, 536}";
}
);
layerId = "6A5C4ED4-BBA5-4E07-B50E-1C6C5DE6A04B";
paths = (
{
closed = 1;
nodes = (
"192 666 OFFCURVE",
"195 666 OFFCURVE",
"197 669 CURVE SMOOTH",
"218 690 LINE SMOOTH",
"221 693 OFFCURVE",
"221 696 OFFCURVE",
"218 698 CURVE SMOOTH",
"194 722 LINE SMOOTH",
"192 724 OFFCURVE",
"192 727 OFFCURVE",
"193 729 CURVE SMOOTH",
"198 739 OFFCURVE",
"201 750 OFFCURVE",
"201 762 CURVE SMOOTH",
"201 805 OFFCURVE",
"168 837 OFFCURVE",
"126 837 CURVE SMOOTH",
"84 837 OFFCURVE",
"50 805 OFFCURVE",
"50 762 CURVE SMOOTH",
"50 721 OFFCURVE",
"83 687 OFFCURVE",
"126 687 CURVE SMOOTH",
"138 687 OFFCURVE",
"148 689 OFFCURVE",
"159 694 CURVE",
"161 695 OFFCURVE",
"164 695 OFFCURVE",
"166 693 CURVE SMOOTH",
"189 669 LINE SMOOTH"
);
},
{
closed = 1;
nodes = (
"106 725 OFFCURVE",
"87 743 OFFCURVE",
"87 762 CURVE SMOOTH",
"87 783 OFFCURVE",
"106 801 OFFCURVE",
"127 801 CURVE SMOOTH",
"146 801 OFFCURVE",
"164 783 OFFCURVE",
"164 762 CURVE SMOOTH",
"164 742 OFFCURVE",
"147 725 OFFCURVE",
"127 725 CURVE SMOOTH"
);
},
{
closed = 1;
nodes = (
"271 666 OFFCURVE",
"274 667 OFFCURVE",
"276 669 CURVE SMOOTH",
"300 693 LINE SMOOTH",
"302 695 OFFCURVE",
"305 695 OFFCURVE",
"307 694 CURVE",
"317 689 OFFCURVE",
"327 687 OFFCURVE",
"340 687 CURVE SMOOTH",
"383 687 OFFCURVE",
"416 721 OFFCURVE",
"416 762 CURVE SMOOTH",
"416 805 OFFCURVE",
"382 837 OFFCURVE",
"340 837 CURVE SMOOTH",
"298 837 OFFCURVE",
"264 805 OFFCURVE",
"264 762 CURVE SMOOTH",
"264 750 OFFCURVE",
"267 739 OFFCURVE",
"272 729 CURVE SMOOTH",
"274 727 OFFCURVE",
"274 724 OFFCURVE",
"272 722 CURVE SMOOTH",
"247 698 LINE SMOOTH",
"245 696 OFFCURVE",
"245 693 OFFCURVE",
"247 690 CURVE SMOOTH",
"268 669 LINE SMOOTH"
);
},
{
closed = 1;
nodes = (
"319 725 OFFCURVE",
"302 742 OFFCURVE",
"302 762 CURVE SMOOTH",
"302 783 OFFCURVE",
"320 801 OFFCURVE",
"339 801 CURVE SMOOTH",
"359 801 OFFCURVE",
"378 783 OFFCURVE",
"378 762 CURVE SMOOTH",
"378 743 OFFCURVE",
"360 725 OFFCURVE",
"339 725 CURVE SMOOTH"
);
}
);
width = 465.56627;
}
);
note = uni059F;
unicode = 059F;
},
{
glyphname = "telishagedola-hb";
lastChange = "2019-12-23 03:33:39 +0000";
layers = (
{
anchors = (
{
name = _top;
position = "{109, 536}";
}
);
layerId = "B853D75E-14CD-4000-B7A0-02101202F42C";
paths = (
{
closed = 1;
nodes = (
"69 671 OFFCURVE",
"71 671 OFFCURVE",
"73 673 CURVE SMOOTH",
"89 689 LINE SMOOTH",
"90 690 OFFCURVE",
"92 690 OFFCURVE",
"94 689 CURVE SMOOTH",
"101 686 OFFCURVE",
"108 685 OFFCURVE",
"116 685 CURVE SMOOTH",
"145 685 OFFCURVE",
"168 708 OFFCURVE",
"168 736 CURVE SMOOTH",
"168 765 OFFCURVE",
"145 787 OFFCURVE",
"116 787 CURVE SMOOTH",
"88 787 OFFCURVE",
"65 765 OFFCURVE",
"65 736 CURVE SMOOTH",
"65 728 OFFCURVE",
"67 721 OFFCURVE",
"70 714 CURVE SMOOTH",
"71 712 OFFCURVE",
"70 710 OFFCURVE",
"69 709 CURVE SMOOTH",
"53 693 LINE SMOOTH",
"51 691 OFFCURVE",
"51 689 OFFCURVE",
"53 687 CURVE SMOOTH",
"67 673 LINE SMOOTH"
);
},
{
closed = 1;
nodes = (
"102 711 OFFCURVE",
"91 722 OFFCURVE",
"91 736 CURVE SMOOTH",
"91 750 OFFCURVE",
"102 762 OFFCURVE",
"116 762 CURVE SMOOTH",
"129 762 OFFCURVE",
"142 750 OFFCURVE",
"142 736 CURVE SMOOTH",
"142 723 OFFCURVE",
"130 711 OFFCURVE",
"116 711 CURVE SMOOTH"
);
}
);
width = 218;
},
{
anchors = (
{
name = _top;
position = "{164, 536}";
}
);
layerId = "79F23985-86A9-4934-8BAF-8AAE7E0AB6FA";
paths = (
{
closed = 1;
nodes = (
"86 661 OFFCURVE",
"90 662 OFFCURVE",
"93 665 CURVE SMOOTH",
"125 697 LINE SMOOTH",
"128 700 OFFCURVE",
"131 700 OFFCURVE",
"134 698 CURVE",
"148 692 OFFCURVE",
"162 690 OFFCURVE",
"178 690 CURVE SMOOTH",
"235 690 OFFCURVE",
"278 734 OFFCURVE",
"278 789 CURVE SMOOTH",
"278 846 OFFCURVE",
"234 889 OFFCURVE",
"178 889 CURVE SMOOTH",
"122 889 OFFCURVE",
"77 845 OFFCURVE",
"77 789 CURVE SMOOTH",
"77 773 OFFCURVE",
"82 758 OFFCURVE",
"88 745 CURVE SMOOTH",
"90 742 OFFCURVE",
"90 739 OFFCURVE",
"87 736 CURVE SMOOTH",
"55 704 LINE SMOOTH",
"52 701 OFFCURVE",
"52 698 OFFCURVE",
"55 694 CURVE SMOOTH",
"83 665 LINE SMOOTH"
);
},
{
closed = 1;
nodes = (
"150 739 OFFCURVE",
"128 762 OFFCURVE",
"128 789 CURVE SMOOTH",
"128 817 OFFCURVE",
"151 840 OFFCURVE",
"177 840 CURVE SMOOTH",
"204 840 OFFCURVE",
"228 816 OFFCURVE",
"228 789 CURVE SMOOTH",
"228 763 OFFCURVE",
"205 739 OFFCURVE",
"177 739 CURVE SMOOTH"
);
}
);
width = 328;
},
{
anchors = (
{
name = _top;
position = "{136, 536}";
}
);
layerId = "6A5C4ED4-BBA5-4E07-B50E-1C6C5DE6A04B";
paths = (
{
closed = 1;
nodes = (
"77 666 OFFCURVE",
"80 667 OFFCURVE",
"83 669 CURVE SMOOTH",
"107 693 LINE SMOOTH",
"109 695 OFFCURVE",
"111 695 OFFCURVE",
"114 693 CURVE SMOOTH",
"124 689 OFFCURVE",
"135 687 OFFCURVE",
"147 687 CURVE SMOOTH",
"189 687 OFFCURVE",
"222 721 OFFCURVE",
"222 762 CURVE SMOOTH",
"222 805 OFFCURVE",
"189 837 OFFCURVE",
"147 837 CURVE SMOOTH",
"105 837 OFFCURVE",
"71 805 OFFCURVE",
"71 762 CURVE SMOOTH",
"71 750 OFFCURVE",
"74 739 OFFCURVE",
"79 729 CURVE SMOOTH",
"80 727 OFFCURVE",
"80 724 OFFCURVE",
"78 722 CURVE SMOOTH",
"54 698 LINE SMOOTH",
"51 696 OFFCURVE",
"51 693 OFFCURVE",
"54 690 CURVE SMOOTH",
"75 669 LINE SMOOTH"
);
},
{
closed = 1;
nodes = (
"126 725 OFFCURVE",
"109 742 OFFCURVE",
"109 762 CURVE SMOOTH",
"109 783 OFFCURVE",
"126 801 OFFCURVE",
"146 801 CURVE SMOOTH",
"166 801 OFFCURVE",
"184 783 OFFCURVE",
"184 762 CURVE SMOOTH",
"184 743 OFFCURVE",
"167 725 OFFCURVE",
"146 725 CURVE SMOOTH"
);
}
);
width = 272.33735;
}
);
note = uni05A0;
unicode = 05A0;
},
{
glyphname = "pazer-hb";
lastChange = "2019-12-23 03:33:39 +0000";
layers = (
{
anchors = (
{
name = _top;
position = "{97, 536}";
}
);
layerId = "B853D75E-14CD-4000-B7A0-02101202F42C";
paths = (
{
closed = 1;
nodes = (
"75 669 LINE SMOOTH",
"77 669 OFFCURVE",
"79 671 OFFCURVE",
"79 673 CURVE SMOOTH",
"79 708 LINE",
"83 705 OFFCURVE",
"88 704 OFFCURVE",
"94 704 CURVE SMOOTH",
"128 704 OFFCURVE",
"144 726 OFFCURVE",
"144 759 CURVE SMOOTH",
"144 779 LINE SMOOTH",
"144 781 OFFCURVE",
"142 783 OFFCURVE",
"140 783 CURVE SMOOTH",
"119 782 LINE SMOOTH",
"117 782 OFFCURVE",
"115 780 OFFCURVE",
"115 778 CURVE SMOOTH",
"115 759 LINE SMOOTH",
"115 738 OFFCURVE",
"108 731 OFFCURVE",
"91 731 CURVE SMOOTH",
"84 731 OFFCURVE",
"81 732 OFFCURVE",
"79 734 CURVE",
"79 779 LINE SMOOTH",
"79 781 OFFCURVE",
"77 783 OFFCURVE",
"75 783 CURVE SMOOTH",
"54 782 LINE SMOOTH",
"52 782 OFFCURVE",
"50 780 OFFCURVE",
"50 778 CURVE SMOOTH",
"50 671 LINE SMOOTH",
"50 669 OFFCURVE",
"52 667 OFFCURVE",
"54 667 CURVE SMOOTH"
);
}
);
width = 194;
},
{
anchors = (
{
name = _top;
position = "{142, 536}";
}
);
layerId = "79F23985-86A9-4934-8BAF-8AAE7E0AB6FA";
paths = (
{
closed = 1;
nodes = (
"99 660 LINE SMOOTH",
"103 660 OFFCURVE",
"106 663 OFFCURVE",
"106 667 CURVE SMOOTH",
"106 717 LINE",
"114 713 OFFCURVE",
"125 711 OFFCURVE",
"137 711 CURVE SMOOTH",
"202 711 OFFCURVE",
"234 752 OFFCURVE",
"234 818 CURVE SMOOTH",
"234 838 LINE SMOOTH",
"234 842 OFFCURVE",
"231 845 OFFCURVE",
"227 845 CURVE SMOOTH",
"184 842 LINE SMOOTH",
"180 842 OFFCURVE",
"177 839 OFFCURVE",
"177 835 CURVE SMOOTH",
"177 818 LINE SMOOTH",
"177 776 OFFCURVE",
"164 762 OFFCURVE",
"130 762 CURVE SMOOTH",
"116 762 OFFCURVE",
"111 764 OFFCURVE",
"106 769 CURVE",
"106 838 LINE SMOOTH",
"106 842 OFFCURVE",
"103 845 OFFCURVE",
"99 845 CURVE SMOOTH",
"57 842 LINE SMOOTH",
"53 842 OFFCURVE",
"50 839 OFFCURVE",
"50 835 CURVE SMOOTH",
"50 664 LINE SMOOTH",
"50 660 OFFCURVE",
"53 657 OFFCURVE",
"57 657 CURVE SMOOTH"
);
}
);
width = 284;
},
{
anchors = (
{
name = _top;
position = "{119, 536}";
}
);
layerId = "6A5C4ED4-BBA5-4E07-B50E-1C6C5DE6A04B";
paths = (
{
closed = 1;
nodes = (
"87 665 LINE SMOOTH",
"90 665 OFFCURVE",
"92 667 OFFCURVE",
"92 670 CURVE SMOOTH",
"92 712 LINE",
"98 709 OFFCURVE",
"106 707 OFFCURVE",
"115 707 CURVE SMOOTH",
"165 707 OFFCURVE",
"188 739 OFFCURVE",
"188 788 CURVE SMOOTH",
"188 808 LINE SMOOTH",
"188 811 OFFCURVE",
"186 814 OFFCURVE",
"183 814 CURVE SMOOTH",
"151 812 LINE SMOOTH",
"148 812 OFFCURVE",
"146 809 OFFCURVE",
"146 806 CURVE SMOOTH",
"146 788 LINE SMOOTH",
"146 757 OFFCURVE",
"136 746 OFFCURVE",
"110 746 CURVE SMOOTH",
"100 746 OFFCURVE",
"96 748 OFFCURVE",
"92 751 CURVE",
"92 808 LINE SMOOTH",
"92 811 OFFCURVE",
"90 814 OFFCURVE",
"87 814 CURVE SMOOTH",
"55 812 LINE SMOOTH",
"52 812 OFFCURVE",
"50 809 OFFCURVE",
"50 806 CURVE SMOOTH",
"50 668 LINE SMOOTH",
"50 665 OFFCURVE",
"52 662 OFFCURVE",
"55 662 CURVE SMOOTH"
);
}
);
width = 238.45783;
}
);
note = uni05A1;
unicode = 05A1;
},
{
glyphname = "atnahhafukh-hb";
lastChange = "2019-12-23 03:33:39 +0000";
layers = (
{
anchors = (
{
name = _bottomleft;
position = "{105, 0}";
}
);
layerId = "B853D75E-14CD-4000-B7A0-02101202F42C";
paths = (
{
closed = 1;
nodes = (
"113 -215 LINE SMOOTH",
"115 -215 OFFCURVE",
"117 -213 OFFCURVE",
"117 -211 CURVE SMOOTH",
"117 -180 LINE",
"134 -176 OFFCURVE",
"146 -168 OFFCURVE",
"151 -156 CURVE SMOOTH",
"156 -144 OFFCURVE",
"159 -134 OFFCURVE",
"159 -119 CURVE SMOOTH",
"159 -112 OFFCURVE",
"158 -98 OFFCURVE",
"157 -89 CURVE SMOOTH",
"157 -86 OFFCURVE",
"155 -85 OFFCURVE",
"153 -85 CURVE SMOOTH",
"135 -87 LINE SMOOTH",
"133 -87 OFFCURVE",
"131 -88 OFFCURVE",
"132 -91 CURVE",
"133 -100 OFFCURVE",
"133 -114 OFFCURVE",
"133 -119 CURVE SMOOTH",
"133 -144 OFFCURVE",
"123 -156 OFFCURVE",
"105 -156 CURVE SMOOTH",
"86 -156 OFFCURVE",
"76 -144 OFFCURVE",
"76 -118 CURVE SMOOTH",
"76 -112 OFFCURVE",
"76 -99 OFFCURVE",
"77 -90 CURVE",
"78 -87 OFFCURVE",
"75 -85 OFFCURVE",
"73 -85 CURVE SMOOTH",
"56 -87 LINE SMOOTH",
"54 -87 OFFCURVE",
"52 -88 OFFCURVE",
"52 -91 CURVE SMOOTH",
"51 -100 OFFCURVE",
"50 -115 OFFCURVE",
"50 -122 CURVE SMOOTH",
"50 -135 OFFCURVE",
"50 -145 OFFCURVE",
"57 -156 CURVE SMOOTH",
"64 -167 OFFCURVE",
"75 -176 OFFCURVE",
"91 -180 CURVE",
"91 -213 LINE SMOOTH",
"91 -215 OFFCURVE",
"93 -217 OFFCURVE",
"95 -217 CURVE SMOOTH"
);
}
);
width = 209;
},
{
anchors = (
{
name = _bottomleft;
position = "{156, 0}";
}
);
layerId = "79F23985-86A9-4934-8BAF-8AAE7E0AB6FA";
paths = (
{
closed = 1;
nodes = (
"174 -286 LINE SMOOTH",
"178 -286 OFFCURVE",
"181 -283 OFFCURVE",
"181 -279 CURVE SMOOTH",
"181 -235 LINE",
"213 -229 OFFCURVE",
"234 -213 OFFCURVE",
"246 -188 CURVE SMOOTH",
"257 -166 OFFCURVE",
"261 -147 OFFCURVE",
"261 -118 CURVE SMOOTH",
"261 -104 OFFCURVE",
"260 -91 OFFCURVE",
"259 -78 CURVE SMOOTH",
"258 -73 OFFCURVE",
"255 -71 OFFCURVE",
"251 -71 CURVE SMOOTH",
"215 -74 LINE SMOOTH",
"211 -74 OFFCURVE",
"209 -77 OFFCURVE",
"209 -81 CURVE SMOOTH",
"211 -95 OFFCURVE",
"211 -107 OFFCURVE",
"211 -118 CURVE SMOOTH",
"211 -166 OFFCURVE",
"192 -189 OFFCURVE",
"156 -189 CURVE SMOOTH",
"121 -189 OFFCURVE",
"99 -165 OFFCURVE",
"99 -116 CURVE SMOOTH",
"99 -103 OFFCURVE",
"100 -93 OFFCURVE",
"102 -79 CURVE SMOOTH",
"102 -74 OFFCURVE",
"100 -72 OFFCURVE",
"95 -72 CURVE SMOOTH",
"59 -74 LINE SMOOTH",
"55 -74 OFFCURVE",
"52 -76 OFFCURVE",
"52 -81 CURVE SMOOTH",
"51 -94 OFFCURVE",
"50 -108 OFFCURVE",
"50 -123 CURVE SMOOTH",
"50 -149 OFFCURVE",
"52 -166 OFFCURVE",
"64 -189 CURVE SMOOTH",
"76 -212 OFFCURVE",
"97 -229 OFFCURVE",
"129 -235 CURVE",
"129 -282 LINE SMOOTH",
"129 -286 OFFCURVE",
"132 -289 OFFCURVE",
"136 -289 CURVE SMOOTH"
);
}
);
width = 311;
},
{
anchors = (
{
name = _bottomleft;
position = "{130, 0}";
}
);
layerId = "6A5C4ED4-BBA5-4E07-B50E-1C6C5DE6A04B";
paths = (
{
closed = 1;
nodes = (
"143 -250 LINE SMOOTH",
"146 -250 OFFCURVE",
"149 -248 OFFCURVE",
"149 -245 CURVE SMOOTH",
"149 -207 LINE",
"173 -202 OFFCURVE",
"189 -190 OFFCURVE",
"198 -172 CURVE SMOOTH",
"206 -155 OFFCURVE",
"209 -140 OFFCURVE",
"209 -119 CURVE SMOOTH",
"209 -108 OFFCURVE",
"208 -95 OFFCURVE",
"207 -84 CURVE SMOOTH",
"207 -80 OFFCURVE",
"204 -78 OFFCURVE",
"201 -78 CURVE SMOOTH",
"175 -81 LINE SMOOTH",
"172 -81 OFFCURVE",
"170 -83 OFFCURVE",
"170 -86 CURVE",
"172 -98 OFFCURVE",
"172 -111 OFFCURVE",
"172 -119 CURVE SMOOTH",
"172 -155 OFFCURVE",
"157 -172 OFFCURVE",
"130 -172 CURVE SMOOTH",
"103 -172 OFFCURVE",
"87 -154 OFFCURVE",
"87 -117 CURVE SMOOTH",
"87 -108 OFFCURVE",
"88 -96 OFFCURVE",
"89 -85 CURVE",
"90 -81 OFFCURVE",
"87 -79 OFFCURVE",
"84 -79 CURVE SMOOTH",
"57 -81 LINE SMOOTH",
"54 -81 OFFCURVE",
"52 -82 OFFCURVE",
"52 -86 CURVE SMOOTH",
"51 -97 OFFCURVE",
"50 -112 OFFCURVE",
"50 -122 CURVE SMOOTH",
"50 -142 OFFCURVE",
"51 -155 OFFCURVE",
"60 -172 CURVE SMOOTH",
"70 -189 OFFCURVE",
"86 -202 OFFCURVE",
"110 -207 CURVE",
"110 -247 LINE SMOOTH",
"110 -250 OFFCURVE",
"112 -253 OFFCURVE",
"115 -253 CURVE SMOOTH"
);
}
);
width = 259.38554;
}
);
note = uni05A2;
unicode = 05A2;
},
{
glyphname = "munahleft-hb";
lastChange = "2019-12-23 03:33:39 +0000";
layers = (
{
anchors = (
{
name = _bottomleft;
position = "{178, 0}";
}
);
layerId = "B853D75E-14CD-4000-B7A0-02101202F42C";
paths = (
{
closed = 1;
nodes = (
"139 -171 LINE SMOOTH",
"141 -171 OFFCURVE",
"143 -169 OFFCURVE",
"143 -167 CURVE SMOOTH",
"143 -85 LINE SMOOTH",
"143 -83 OFFCURVE",
"141 -81 OFFCURVE",
"139 -81 CURVE SMOOTH",
"120 -83 LINE SMOOTH",
"118 -83 OFFCURVE",
"116 -85 OFFCURVE",
"116 -87 CURVE SMOOTH",
"116 -141 LINE SMOOTH",
"116 -143 OFFCURVE",
"114 -145 OFFCURVE",
"112 -145 CURVE SMOOTH",
"55 -145 LINE SMOOTH",
"53 -145 OFFCURVE",
"51 -147 OFFCURVE",
"51 -149 CURVE SMOOTH",
"50 -167 LINE SMOOTH",
"50 -169 OFFCURVE",
"52 -171 OFFCURVE",
"54 -171 CURVE SMOOTH"
);
}
);
width = 193;
},
{
anchors = (
{
name = _bottomleft;
position = "{208, 0}";
}
);
layerId = "79F23985-86A9-4934-8BAF-8AAE7E0AB6FA";
paths = (
{
closed = 1;
nodes = (
"206 -228 LINE SMOOTH",
"210 -228 OFFCURVE",
"213 -225 OFFCURVE",
"213 -221 CURVE SMOOTH",
"213 -78 LINE SMOOTH",
"213 -74 OFFCURVE",
"210 -71 OFFCURVE",
"206 -71 CURVE SMOOTH",
"167 -74 LINE SMOOTH",
"163 -74 OFFCURVE",
"160 -77 OFFCURVE",
"160 -81 CURVE SMOOTH",
"160 -169 LINE SMOOTH",
"160 -173 OFFCURVE",
"157 -176 OFFCURVE",
"153 -176 CURVE SMOOTH",
"60 -176 LINE SMOOTH",
"56 -176 OFFCURVE",
"53 -178 OFFCURVE",
"53 -183 CURVE SMOOTH",
"50 -221 LINE SMOOTH",
"50 -225 OFFCURVE",
"53 -228 OFFCURVE",
"57 -228 CURVE SMOOTH"
);
}
);
width = 263;
},
{
anchors = (
{
name = _bottomleft;
position = "{193, 0}";
}
);
layerId = "6A5C4ED4-BBA5-4E07-B50E-1C6C5DE6A04B";
paths = (
{
closed = 1;
nodes = (
"172 -199 LINE SMOOTH",
"175 -199 OFFCURVE",
"178 -197 OFFCURVE",
"178 -194 CURVE SMOOTH",
"178 -82 LINE SMOOTH",
"178 -79 OFFCURVE",
"175 -76 OFFCURVE",
"172 -76 CURVE SMOOTH",
"143 -79 LINE SMOOTH",
"140 -79 OFFCURVE",
"138 -81 OFFCURVE",
"138 -84 CURVE SMOOTH",
"138 -155 LINE SMOOTH",
"138 -158 OFFCURVE",
"135 -160 OFFCURVE",
"132 -160 CURVE SMOOTH",
"57 -160 LINE SMOOTH",
"54 -160 OFFCURVE",
"52 -162 OFFCURVE",
"52 -166 CURVE SMOOTH",
"50 -194 LINE SMOOTH",
"50 -197 OFFCURVE",
"52 -199 OFFCURVE",
"55 -199 CURVE SMOOTH"
);
}
);
width = 227.57831;
}
);
note = uni05A3;
unicode = 05A3;
},
{
glyphname = "mahapakhleft-hb";
lastChange = "2019-12-23 03:33:39 +0000";
layers = (
{
anchors = (
{
name = _bottomleft;
position = "{146, 0}";
}
);
layerId = "B853D75E-14CD-4000-B7A0-02101202F42C";
paths = (
{
closed = 1;
nodes = (
"133 -184 LINE",
"135 -182 OFFCURVE",
"136 -181 OFFCURVE",
"134 -179 CURVE SMOOTH",
"90 -136 LINE SMOOTH",
"88 -134 OFFCURVE",
"88 -132 OFFCURVE",
"90 -130 CURVE SMOOTH",
"134 -87 LINE SMOOTH",
"136 -85 OFFCURVE",
"136 -84 OFFCURVE",
"133 -82 CURVE SMOOTH",
"117 -72 LINE SMOOTH",
"115 -71 OFFCURVE",
"112 -71 OFFCURVE",
"111 -72 CURVE SMOOTH",
"53 -130 LINE SMOOTH",
"51 -132 OFFCURVE",
"51 -134 OFFCURVE",
"53 -136 CURVE SMOOTH",
"111 -194 LINE SMOOTH",
"112 -195 OFFCURVE",
"115 -197 OFFCURVE",
"117 -195 CURVE"
);
}
);
width = 187;
},
{
anchors = (
{
name = _bottomleft;
position = "{172, 0}";
}
);
layerId = "79F23985-86A9-4934-8BAF-8AAE7E0AB6FA";
paths = (
{
closed = 1;
nodes = (
"192 -241 LINE SMOOTH",
"196 -238 OFFCURVE",
"196 -234 OFFCURVE",
"193 -231 CURVE SMOOTH",
"127 -165 LINE SMOOTH",
"124 -162 OFFCURVE",
"124 -158 OFFCURVE",
"127 -155 CURVE SMOOTH",
"193 -89 LINE SMOOTH",
"196 -86 OFFCURVE",
"196 -82 OFFCURVE",
"192 -79 CURVE SMOOTH",
"159 -59 LINE SMOOTH",
"156 -57 OFFCURVE",
"153 -57 OFFCURVE",
"150 -60 CURVE SMOOTH",
"55 -155 LINE SMOOTH",
"51 -159 OFFCURVE",
"52 -162 OFFCURVE",
"55 -165 CURVE SMOOTH",
"150 -260 LINE SMOOTH",
"153 -263 OFFCURVE",
"156 -263 OFFCURVE",
"159 -261 CURVE SMOOTH"
);
}
);
width = 249;
},
{
anchors = (
{
name = _bottomleft;
position = "{159, 0}";
}
);
layerId = "6A5C4ED4-BBA5-4E07-B50E-1C6C5DE6A04B";
paths = (
{
closed = 1;
nodes = (
"162 -212 LINE",
"165 -210 OFFCURVE",
"166 -207 OFFCURVE",
"163 -205 CURVE SMOOTH",
"108 -150 LINE SMOOTH",
"106 -148 OFFCURVE",
"106 -145 OFFCURVE",
"108 -142 CURVE SMOOTH",
"163 -88 LINE SMOOTH",
"166 -85 OFFCURVE",
"166 -83 OFFCURVE",
"162 -81 CURVE SMOOTH",
"138 -66 LINE SMOOTH",
"135 -64 OFFCURVE",
"132 -64 OFFCURVE",
"130 -66 CURVE SMOOTH",
"54 -142 LINE SMOOTH",
"51 -145 OFFCURVE",
"51 -148 OFFCURVE",
"54 -150 CURVE SMOOTH",
"130 -227 LINE SMOOTH",
"132 -229 OFFCURVE",
"135 -230 OFFCURVE",
"138 -228 CURVE"
);
}
);
width = 217.62651;
}
);
note = uni05A4;
unicode = 05A4;
},
{
glyphname = "merkhaleft-hb";
lastChange = "2019-12-23 03:33:39 +0000";
layers = (
{
anchors = (
{
name = _bottomleft;
position = "{131, 0}";
}
);
layerId = "B853D75E-14CD-4000-B7A0-02101202F42C";
paths = (
{
closed = 1;
nodes = (
"77 -210 OFFCURVE",
"94 -199 OFFCURVE",
"103 -186 CURVE SMOOTH",
"115 -171 OFFCURVE",
"115 -124 OFFCURVE",
"112 -88 CURVE SMOOTH",
"112 -85 OFFCURVE",
"110 -84 OFFCURVE",
"108 -84 CURVE SMOOTH",
"90 -86 LINE SMOOTH",
"88 -86 OFFCURVE",
"86 -87 OFFCURVE",
"86 -90 CURVE SMOOTH",
"87 -113 OFFCURVE",
"88 -158 OFFCURVE",
"81 -170 CURVE SMOOTH",
"77 -177 OFFCURVE",
"68 -183 OFFCURVE",
"55 -188 CURVE SMOOTH",
"53 -189 OFFCURVE",
"52 -189 OFFCURVE",
"52 -192 CURVE SMOOTH",
"50 -212 LINE SMOOTH",
"50 -215 OFFCURVE",
"52 -217 OFFCURVE",
"55 -216 CURVE SMOOTH"
);
}
);
width = 164;
},
{
anchors = (
{
name = _bottomleft;
position = "{161, 0}";
}
);
layerId = "79F23985-86A9-4934-8BAF-8AAE7E0AB6FA";
paths = (
{
closed = 1;
nodes = (
"102 -276 OFFCURVE",
"135 -255 OFFCURVE",
"154 -230 CURVE SMOOTH",
"175 -199 OFFCURVE",
"176 -146 OFFCURVE",
"171 -77 CURVE SMOOTH",
"171 -72 OFFCURVE",
"168 -70 OFFCURVE",
"164 -70 CURVE SMOOTH",
"125 -73 LINE SMOOTH",
"121 -73 OFFCURVE",
"118 -76 OFFCURVE",
"119 -80 CURVE",
"122 -122 OFFCURVE",
"123 -173 OFFCURVE",
"110 -198 CURVE SMOOTH",
"102 -213 OFFCURVE",
"84 -225 OFFCURVE",
"59 -232 CURVE",
"55 -234 OFFCURVE",
"53 -236 OFFCURVE",
"53 -240 CURVE SMOOTH",
"50 -282 LINE SMOOTH",
"50 -287 OFFCURVE",
"53 -289 OFFCURVE",
"58 -288 CURVE SMOOTH"
);
}
);
width = 224;
},
{
anchors = (
{
name = _bottomleft;
position = "{146, 0}";
}
);
layerId = "6A5C4ED4-BBA5-4E07-B50E-1C6C5DE6A04B";
paths = (
{
closed = 1;
nodes = (
"89 -243 OFFCURVE",
"114 -227 OFFCURVE",
"128 -208 CURVE SMOOTH",
"145 -185 OFFCURVE",
"145 -135 OFFCURVE",
"141 -83 CURVE SMOOTH",
"141 -79 OFFCURVE",
"139 -77 OFFCURVE",
"136 -77 CURVE SMOOTH",
"107 -80 LINE SMOOTH",
"104 -80 OFFCURVE",
"102 -82 OFFCURVE",
"102 -85 CURVE SMOOTH",
"104 -117 OFFCURVE",
"105 -165 OFFCURVE",
"95 -184 CURVE SMOOTH",
"89 -195 OFFCURVE",
"76 -204 OFFCURVE",
"57 -210 CURVE SMOOTH",
"54 -211 OFFCURVE",
"52 -212 OFFCURVE",
"52 -216 CURVE SMOOTH",
"50 -247 LINE SMOOTH",
"50 -251 OFFCURVE",
"52 -253 OFFCURVE",
"56 -252 CURVE SMOOTH"
);
}
);
width = 193.63855;
}
);
note = uni05A5;
unicode = 05A5;
},
{
glyphname = "merkhakefulaleft-hb";
lastChange = "2019-12-23 03:33:39 +0000";
layers = (
{
anchors = (
{
name = _bottomleft;
position = "{136, 0}";
}
);
layerId = "B853D75E-14CD-4000-B7A0-02101202F42C";
paths = (
{
closed = 1;
nodes = (
"79 -207 OFFCURVE",
"94 -195 OFFCURVE",
"102 -183 CURVE SMOOTH",
"114 -167 OFFCURVE",
"114 -121 OFFCURVE",
"111 -84 CURVE SMOOTH",
"111 -81 OFFCURVE",
"109 -80 OFFCURVE",
"107 -80 CURVE SMOOTH",
"88 -82 LINE SMOOTH",
"86 -82 OFFCURVE",
"84 -83 OFFCURVE",
"84 -86 CURVE SMOOTH",
"85 -108 OFFCURVE",
"85 -154 OFFCURVE",
"79 -166 CURVE SMOOTH",
"75 -174 OFFCURVE",
"66 -180 OFFCURVE",
"53 -184 CURVE SMOOTH",
"51 -185 OFFCURVE",
"50 -186 OFFCURVE",
"50 -189 CURVE SMOOTH",
"52 -210 LINE SMOOTH",
"52 -212 OFFCURVE",
"54 -214 OFFCURVE",
"56 -213 CURVE"
);
},
{
closed = 1;
nodes = (
"151 -207 OFFCURVE",
"166 -195 OFFCURVE",
"174 -183 CURVE SMOOTH",
"186 -167 OFFCURVE",
"186 -121 OFFCURVE",
"183 -84 CURVE SMOOTH",
"183 -81 OFFCURVE",
"181 -80 OFFCURVE",
"179 -80 CURVE SMOOTH",
"160 -82 LINE SMOOTH",
"158 -82 OFFCURVE",
"156 -83 OFFCURVE",
"156 -86 CURVE SMOOTH",
"158 -108 OFFCURVE",
"157 -153 OFFCURVE",
"151 -166 CURVE SMOOTH",
"147 -174 OFFCURVE",
"139 -180 OFFCURVE",
"126 -184 CURVE SMOOTH",
"123 -185 OFFCURVE",
"122 -186 OFFCURVE",
"122 -189 CURVE SMOOTH",
"124 -210 LINE SMOOTH",
"124 -212 OFFCURVE",
"126 -214 OFFCURVE",
"128 -213 CURVE"
);
}
);
width = 235;
},
{
anchors = (
{
name = _bottomleft;
position = "{200, 0}";
}
);
layerId = "79F23985-86A9-4934-8BAF-8AAE7E0AB6FA";
paths = (
{
closed = 1;
nodes = (
"105 -274 OFFCURVE",
"133 -253 OFFCURVE",
"151 -227 CURVE SMOOTH",
"172 -196 OFFCURVE",
"173 -143 OFFCURVE",
"168 -73 CURVE SMOOTH",
"168 -68 OFFCURVE",
"165 -66 OFFCURVE",
"161 -66 CURVE SMOOTH",
"123 -69 LINE SMOOTH",
"119 -69 OFFCURVE",
"116 -71 OFFCURVE",
"117 -76 CURVE",
"119 -116 OFFCURVE",
"120 -170 OFFCURVE",
"107 -195 CURVE SMOOTH",
"100 -210 OFFCURVE",
"81 -222 OFFCURVE",
"56 -229 CURVE",
"52 -231 OFFCURVE",
"50 -232 OFFCURVE",
"50 -237 CURVE SMOOTH",
"53 -279 LINE SMOOTH",
"53 -283 OFFCURVE",
"57 -286 OFFCURVE",
"62 -285 CURVE SMOOTH"
);
},
{
closed = 1;
nodes = (
"246 -274 OFFCURVE",
"274 -253 OFFCURVE",
"292 -227 CURVE SMOOTH",
"314 -196 OFFCURVE",
"315 -143 OFFCURVE",
"310 -73 CURVE",
"309 -68 OFFCURVE",
"306 -66 OFFCURVE",
"302 -66 CURVE SMOOTH",
"264 -69 LINE SMOOTH",
"260 -69 OFFCURVE",
"257 -71 OFFCURVE",
"258 -76 CURVE",
"260 -116 OFFCURVE",
"261 -170 OFFCURVE",
"248 -195 CURVE SMOOTH",
"241 -210 OFFCURVE",
"222 -222 OFFCURVE",
"198 -229 CURVE",
"194 -231 OFFCURVE",
"192 -232 OFFCURVE",
"192 -237 CURVE SMOOTH",
"195 -279 LINE SMOOTH",
"195 -283 OFFCURVE",
"198 -286 OFFCURVE",
"203 -285 CURVE SMOOTH"
);
}
);
width = 362;
},
{
anchors = (
{
name = _bottomleft;
position = "{168, 0}";
}
);
layerId = "6A5C4ED4-BBA5-4E07-B50E-1C6C5DE6A04B";
paths = (
{
closed = 1;
nodes = (
"92 -240 OFFCURVE",
"113 -224 OFFCURVE",
"126 -205 CURVE SMOOTH",
"143 -181 OFFCURVE",
"143 -132 OFFCURVE",
"139 -79 CURVE SMOOTH",
"139 -75 OFFCURVE",
"137 -73 OFFCURVE",
"134 -73 CURVE SMOOTH",
"105 -76 LINE SMOOTH",
"102 -76 OFFCURVE",
"100 -77 OFFCURVE",
"100 -81 CURVE SMOOTH",
"102 -112 OFFCURVE",
"102 -162 OFFCURVE",
"93 -180 CURVE SMOOTH",
"87 -192 OFFCURVE",
"73 -201 OFFCURVE",
"54 -206 CURVE SMOOTH",
"51 -208 OFFCURVE",
"50 -209 OFFCURVE",
"50 -213 CURVE SMOOTH",
"52 -244 LINE SMOOTH",
"52 -247 OFFCURVE",
"55 -250 OFFCURVE",
"59 -249 CURVE"
);
},
{
closed = 1;
nodes = (
"198 -240 OFFCURVE",
"219 -224 OFFCURVE",
"232 -205 CURVE SMOOTH",
"249 -181 OFFCURVE",
"250 -132 OFFCURVE",
"246 -79 CURVE SMOOTH",
"245 -75 OFFCURVE",
"243 -73 OFFCURVE",
"240 -73 CURVE SMOOTH",
"211 -76 LINE SMOOTH",
"208 -76 OFFCURVE",
"206 -77 OFFCURVE",
"206 -81 CURVE SMOOTH",
"208 -112 OFFCURVE",
"208 -161 OFFCURVE",
"199 -180 CURVE SMOOTH",
"193 -192 OFFCURVE",
"180 -201 OFFCURVE",
"162 -206 CURVE SMOOTH",
"158 -208 OFFCURVE",
"157 -209 OFFCURVE",
"157 -213 CURVE SMOOTH",
"159 -244 LINE SMOOTH",
"159 -247 OFFCURVE",
"162 -250 OFFCURVE",
"165 -249 CURVE"
);
}
);
width = 297.73494;
}
);
note = uni05A6;
unicode = 05A6;
},
{
glyphname = "dargaleft-hb";
lastChange = "2019-12-23 03:33:39 +0000";
layers = (
{
anchors = (
{
name = _bottomleft;
position = "{149, 0}";
}
);
layerId = "B853D75E-14CD-4000-B7A0-02101202F42C";
paths = (
{
closed = 1;
nodes = (
"134 -159 LINE SMOOTH",
"137 -158 OFFCURVE",
"138 -157 OFFCURVE",
"136 -154 CURVE SMOOTH",
"89 -96 LINE SMOOTH",
"87 -93 OFFCURVE",
"88 -92 OFFCURVE",
"92 -91 CURVE SMOOTH",
"128 -86 LINE SMOOTH",
"130 -86 OFFCURVE",
"132 -83 OFFCURVE",
"132 -81 CURVE SMOOTH",
"132 -70 LINE SMOOTH",
"132 -68 OFFCURVE",
"130 -67 OFFCURVE",
"128 -67 CURVE SMOOTH",
"55 -78 LINE SMOOTH",
"51 -79 OFFCURVE",
"51 -80 OFFCURVE",
"53 -83 CURVE SMOOTH",
"100 -142 LINE SMOOTH",
"102 -145 OFFCURVE",
"100 -147 OFFCURVE",
"98 -148 CURVE SMOOTH",
"60 -160 LINE SMOOTH",
"58 -161 OFFCURVE",
"57 -162 OFFCURVE",
"57 -164 CURVE SMOOTH",
"57 -176 LINE SMOOTH",
"57 -178 OFFCURVE",
"59 -181 OFFCURVE",
"61 -180 CURVE"
);
}
);
width = 189;
},
{
anchors = (
{
name = _bottomleft;
position = "{187, 0}";
}
);
layerId = "79F23985-86A9-4934-8BAF-8AAE7E0AB6FA";
paths = (
{
closed = 1;
nodes = (
"196 -216 LINE SMOOTH",
"201 -215 OFFCURVE",
"202 -211 OFFCURVE",
"199 -207 CURVE SMOOTH",
"127 -111 LINE SMOOTH",
"124 -107 OFFCURVE",
"125 -103 OFFCURVE",
"130 -102 CURVE SMOOTH",
"185 -92 LINE SMOOTH",
"189 -91 OFFCURVE",
"191 -89 OFFCURVE",
"191 -85 CURVE SMOOTH",
"191 -62 LINE SMOOTH",
"191 -58 OFFCURVE",
"187 -54 OFFCURVE",
"183 -55 CURVE SMOOTH",
"59 -77 LINE SMOOTH",
"54 -78 OFFCURVE",
"53 -82 OFFCURVE",
"56 -86 CURVE SMOOTH",
"128 -182 LINE SMOOTH",
"131 -186 OFFCURVE",
"130 -190 OFFCURVE",
"125 -191 CURVE SMOOTH",
"71 -199 LINE SMOOTH",
"67 -200 OFFCURVE",
"65 -203 OFFCURVE",
"65 -207 CURVE SMOOTH",
"65 -232 LINE SMOOTH",
"65 -236 OFFCURVE",
"69 -240 OFFCURVE",
"73 -239 CURVE SMOOTH"
);
}
);
width = 255;
},
{
anchors = (
{
name = _bottomleft;
position = "{168, 0}";
}
);
layerId = "6A5C4ED4-BBA5-4E07-B50E-1C6C5DE6A04B";
paths = (
{
closed = 1;
nodes = (
"165 -187 LINE SMOOTH",
"169 -186 OFFCURVE",
"170 -184 OFFCURVE",
"167 -180 CURVE SMOOTH",
"108 -103 LINE SMOOTH",
"105 -100 OFFCURVE",
"106 -97 OFFCURVE",
"111 -96 CURVE SMOOTH",
"156 -89 LINE SMOOTH",
"159 -88 OFFCURVE",
"161 -86 OFFCURVE",
"161 -83 CURVE SMOOTH",
"161 -66 LINE SMOOTH",
"161 -63 OFFCURVE",
"158 -61 OFFCURVE",
"155 -61 CURVE SMOOTH",
"57 -78 LINE SMOOTH",
"52 -79 OFFCURVE",
"52 -81 OFFCURVE",
"54 -84 CURVE SMOOTH",
"114 -162 LINE SMOOTH",
"116 -165 OFFCURVE",
"115 -168 OFFCURVE",
"111 -169 CURVE SMOOTH",
"65 -179 LINE SMOOTH",
"62 -180 OFFCURVE",
"61 -182 OFFCURVE",
"61 -185 CURVE SMOOTH",
"61 -204 LINE SMOOTH",
"61 -207 OFFCURVE",
"64 -210 OFFCURVE",
"67 -209 CURVE"
);
}
);
width = 221.60241;
}
);
note = uni05A7;
unicode = 05A7;
},
